<svg width="17" height="16" fill="none" xmlns="http://www.w3.org/2000/svg"><g clip-path="url(#clip0)"><path d="M13.51 8.405c-.244-.306-.174-.442 0-.715.003-.003 2.018-2.764 2.226-3.7h.001c.103-.342 0-.593-.499-.593h-1.65c-.421 0-.615.215-.719.456 0 0-.84 1.995-2.03 3.288-.383.374-.56.493-.77.493-.103 0-.264-.12-.264-.46V3.988c0-.409-.117-.592-.465-.592H6.744c-.264 0-.42.191-.42.369 0 .388.594.477.656 1.569v2.368c0 .519-.095.614-.306.614-.561 0-1.923-2.003-2.73-4.295-.164-.445-.323-.624-.746-.624H1.546c-.471 0-.566.215-.566.456 0 .425.561 2.54 2.61 5.335 1.365 1.907 3.288 2.94 5.037 2.94 1.051 0 1.18-.229 1.18-.624 0-1.822-.095-1.994.431-1.994.244 0 .665.12 1.646 1.04 1.122 1.09 1.306 1.579 1.934 1.579h1.651c.47 0 .71-.23.572-.683-.314-.952-2.436-2.911-2.531-3.042z" fill="#4A76A8"/></g><defs><clipPath id="clip0"><path fill="#fff" transform="translate(.98 .279)" d="M0 0h15.1v14.97H0z"/></clipPath></defs></svg>