<svg width="30" height="30" fill="none" xmlns="http://www.w3.org/2000/svg"><path d="M18.695 8.255a3.694 3.694 0 10-7.388.001 3.694 3.694 0 007.388 0zm-6.514 0a2.819 2.819 0 115.638.001 2.819 2.819 0 01-5.637 0z" fill="#fff"/><path d="M29.833 29.267l-3.567-9.35a.438.438 0 00-.408-.281h-6.75c.04-.067.082-.133.123-.2 2.597-4.3 3.904-8.062 3.885-11.179a8.116 8.116 0 10-16.231-.003c-.02 3.12 1.288 6.882 3.885 11.182l.123.2h-6.75a.438.438 0 00-.408.281l-3.566 9.35a.437.437 0 00.409.594h28.846a.435.435 0 00.409-.594zM7.76 8.255a7.241 7.241 0 1114.482.003c.037 6.214-5.773 13.879-7.241 15.717-1.469-1.837-7.279-9.5-7.241-15.72zm6.908 16.695a.437.437 0 00.666 0 46.432 46.432 0 003.225-4.44h6.997l.56 1.469-13.673 4.863L7.57 20.51h3.872a46.434 46.434 0 003.226 4.44zm-2.24 2.825h.002l8.157-2.9 3.164 4.11H9.026l3.402-1.21zM4.445 20.51h2.02l5.11 6.64-5.16 1.835H1.213l3.232-8.476zm20.411 8.476l-3.402-4.42 4.975-1.77 2.36 6.19h-3.933z" fill="#fff"/></svg>