<svg width="24" height="19" fill="none" xmlns="http://www.w3.org/2000/svg"><path d="M7.396.833c.864.768 1.68 1.584 2.448 2.448-.096.144-.36.432-.792.864-.432.384-.768.72-1.008 1.008-.24.24-.528.576-.864 1.008a4.656 4.656 0 00-.648 1.152 3.085 3.085 0 00-.216 1.08c0 .528.6 1.368 1.8 2.52 1.2 1.104 1.8 2.328 1.8 3.672 0 1.2-.432 2.232-1.296 3.096-.816.816-1.848 1.224-3.096 1.224-1.68 0-3.024-.6-4.032-1.8-.96-1.2-1.44-2.64-1.44-4.32C.052 8.37 2.5 4.385 7.396.833zm14.04 0c.864.768 1.68 1.584 2.448 2.448-.096.144-.36.432-.792.864-.432.384-.768.72-1.008 1.008-.24.24-.528.576-.864 1.008a4.656 4.656 0 00-.648 1.152 3.085 3.085 0 00-.216 1.08c0 .528.6 1.368 1.8 2.52 1.2 1.104 1.8 2.328 1.8 3.672 0 1.2-.432 2.232-1.296 3.096-.816.816-1.848 1.224-3.096 1.224-1.68 0-3.024-.6-4.032-1.8-.96-1.2-1.44-2.64-1.44-4.32 0-4.416 2.448-8.4 7.344-11.952z" fill="#B41517"/></svg>