<svg width="72" height="77" fill="none" xmlns="http://www.w3.org/2000/svg"><path d="M22.278 61.733c.016.039.021.066.038.088a4451.877 4451.877 0 004.504 6.929c.333-.01.644-.022.955-.027.852-.017 1.704-.028 2.55-.044.087 0 .18.022.262-.05a3.356 3.356 0 00-.011-.7c-.104-.01-.197-.027-.295-.032-.3-.028-.54-.159-.742-.383a5.804 5.804 0 01-.53-.678c-1.119-1.679-2.233-3.358-3.352-5.037-.055-.082-.125-.153-.142-.268.186-.087.371-.17.557-.257a6.068 6.068 0 001.25-.782c1.147-.94 1.42-2.444 1.027-3.631-.246-.744-.738-1.28-1.474-1.575a3.633 3.633 0 00-.754-.192 7.911 7.911 0 00-1.392-.093c-.611.006-1.217.022-1.829.028-1.234.01-2.473.027-3.707.027-.6 0-1.201-.033-1.802-.05-.087 0-.18-.026-.256.028-.038.285-.033.618.016.804.033.006.066.017.099.017.273.038.55.065.824.114.393.077.447.164.491.498.05.328.082.656.098.99.028.508.044 1.023.044 1.531.011 1.334.027 2.674.022 4.009a154.465 154.465 0 01-.066 3.55c-.005.294-.049.59-.087.88-.022.191-.136.306-.333.328-.23.027-.458.065-.688.098-.142.022-.284.033-.426.05-.043.147-.027.278-.021.415 0 .142-.033.284.038.421.24-.01.47-.022.704-.027l.671-.017c.235-.005.465-.016.7-.022.223-.005.447-.005.67-.005h.7c.223 0 .447 0 .671.005.235.006.464.017.699.022.224.006.448.017.672.011.229-.005.458.05.682.017.044-.29.038-.63-.011-.815-.05-.006-.104-.011-.158-.022-.3-.033-.606-.055-.907-.104-.387-.066-.464-.219-.496-.53-.017-.154-.039-.301-.044-.454-.044-.777-.087-1.559-.115-2.341a36.813 36.813 0 01-.01-2.8c.038-1.121.048-2.242.076-3.363.016-.618.027-1.236.044-1.854 0-.088-.022-.18.043-.263.126-.016.262-.05.393-.054.284-.017.573-.017.857-.022.333-.011.661.038.983.125.808.22 1.349.722 1.567 1.537.131.481.131.979.044 1.466a2.44 2.44 0 01-1.005 1.591c-.557.405-1.157.64-1.85.569-.039-.006-.072-.006-.11-.006h-.213c-.038.148-.087.252-.125.35zm35.605-3.53c.092.027.124.102.168.16a98.48 98.48 0 002.703 3.3 341.214 341.214 0 005.18 5.958c.227.258.46.515.693.767.054.06.103.113.195.124.315.048.629.102.948.155.174.027.353.06.526.08a.176.176 0 00.206-.155c.005-.07 0-.14 0-.209a96.402 96.402 0 01-.054-3.958c.021-2.28.032-4.56.054-6.834.005-.343.027-.686.043-1.03 0-.053.006-.107.016-.155.06-.274.2-.413.483-.456.157-.027.32-.038.476-.059.217-.027.44-.038.65-.075.044-.279.038-.617-.01-.794-.103 0-.212-.005-.314 0-.152.006-.304.022-.45.027-1.236.016-2.47.054-3.706-.032-.06-.006-.12.01-.195.016 0 .145-.005.279 0 .407.005.13-.033.263.038.392l.135.016c.347.032.688.065 1.035.102.271.032.368.107.412.365.049.295.081.59.097.89.028.58.05 1.159.05 1.743.01 1.872.01 3.75.01 5.621 0 .038.016.092-.043.124-.076-.038-.13-.108-.185-.172-.71-.799-1.435-1.587-2.129-2.397a229.018 229.018 0 01-5.759-6.962c-.043-.054-.092-.108-.136-.161-.205.016-.395.032-.59.037-.504.011-1.013.027-1.517.022-.558-.006-1.121-.032-1.68-.049-.102-.005-.21-.032-.303.022-.043.338-.032.622.027.794.2.021.401.043.602.07.227.032.455.064.682.107.222.043.325.193.363.402.006.032.011.07.011.107.016.327.043.65.049.976.01.553.005 1.11.005 1.663.006 1.76.027 3.519-.01 5.278-.017.66-.033 1.32-.055 1.98-.01.251-.043.509-.087.755-.038.236-.184.37-.433.397l-.607.065c-.086.01-.179.016-.265.026-.092.011-.195-.005-.298.038-.011.263-.027.52.005.772.027.017.033.022.038.022.558-.022 1.116-.038 1.674-.06.96-.031 1.918.022 2.877.06.011 0 .016-.005.027-.01l.022-.022c.043-.258.038-.596-.016-.789-.152-.016-.31-.027-.472-.048-.238-.032-.477-.059-.71-.102-.249-.043-.33-.134-.363-.38a4.657 4.657 0 01-.048-.473 79.308 79.308 0 01-.054-1.609 290.16 290.16 0 01-.038-6.597c0-.06 0-.123.005-.182-.005-.022.01-.043.022-.07zm-20.121-3.181c-.102-.033-.209-.011-.31-.011-.258.01-.51.027-.762.033-.938.005-1.881.016-2.82.01-.674-.005-1.35-.032-2.03-.049-.102 0-.21-.021-.338.022.01.268-.022.53.021.799.07.01.118.016.172.022.343.038.68.065 1.023.11.338.043.456.174.472.524.022.405.038.804.048 1.209.011.509.006 1.023.016 1.531.049 2.44.038 4.879-.021 7.318a8.7 8.7 0 01-.048.646 1.284 1.284 0 01-.075.311c-.043.137-.134.23-.279.252-.241.038-.483.077-.729.11-.188.021-.38.027-.584.065-.022.274-.027.536.005.788.027.016.032.027.038.027 2.053-.05 4.11-.11 6.164.011a.04.04 0 00.021-.01c.006-.006.016-.012.022-.017a2.594 2.594 0 000-.815c-.166-.017-.343-.028-.515-.05a14.419 14.419 0 01-.702-.093c-.204-.032-.338-.153-.364-.366-.038-.268-.086-.53-.092-.799a63.503 63.503 0 01-.048-2.258 555.57 555.57 0 01-.005-5.163 73.75 73.75 0 01.059-2.205c.005-.202.043-.41.075-.612.043-.24.187-.372.428-.4.177-.016.349-.038.526-.06.214-.021.434-.049.643-.07a2.56 2.56 0 00-.01-.81zm.511 18.868c.208-.027.405-.016.603-.022.186-.005.377-.005.564 0 .191.006.388-.033.58.027v.84c0 .044-.01.088-.022.132-.016.07-.06.109-.131.114-.088.011-.181.011-.269.022-.082.01-.098.06-.07.136.021.011.049.028.07.028.58 0 1.167 0 1.747-.006.017 0 .028-.016.055-.032-.005-.033-.01-.077-.022-.12a4.135 4.135 0 01-.28-.022c-.158-.017-.19-.055-.207-.224v-1.877c0-.082 0-.164.07-.246.11-.01.23-.021.357-.043a.129.129 0 00.077-.066c.01-.027-.006-.065-.011-.098-.039-.005-.066-.016-.088-.016-.575 0-1.15 0-1.725.005-.016 0-.033.011-.05.022-.01.126-.005.147.072.158.12.017.246.033.35.044.088.109.077.224.083.327.005.11.005.213.005.322-.005.104.022.213-.027.306-.367.06-1.451.049-1.736-.017a3.36 3.36 0 01.01-.742c.006-.065.034-.13.056-.196.13-.017.251-.027.36-.044.028-.005.067-.032.078-.06.01-.027 0-.065 0-.098-.039-.01-.06-.022-.088-.022h-1.725c-.016 0-.033.011-.055.022v.136c.154.022.301.044.455.071.01.055.027.099.027.142 0 .655.006 1.304.006 1.959 0 .033-.006.07-.011.104-.017.065-.06.114-.126.12-.088.01-.181.01-.269.022-.087.01-.098.065-.076.141.022.011.044.028.07.028.581 0 1.167-.006 1.748-.006.016 0 .027-.016.044-.027.016-.071 0-.12-.083-.131-.12-.016-.252.01-.361-.066-.077-.25-.093-.583-.055-1.047zm-23.408-1.239c.011.076.028.126.028.18 0 .627.005 1.248.005 1.875 0 .038 0 .071-.005.11-.017.114-.055.157-.17.168-.082.011-.164.006-.24.017-.083.01-.094.065-.061.141.022.006.044.022.071.022h1.697c.033 0 .06-.022.087-.032.022-.093-.016-.131-.093-.137-.12-.01-.252.011-.356-.065-.082-.29-.098-.812-.032-1.036.279-.038 1.483-.038 1.707 0 .055.349.033.834-.06 1.063-.055.011-.115.027-.175.033-.06.005-.126.005-.186.01-.055.006-.082.044-.071.093.005.028.038.06.065.066.072.01.143.005.214.005h1.319c.06 0 .126.006.186 0 .104-.005.115-.038.06-.163-.093-.006-.197-.011-.29-.022-.115-.016-.159-.06-.164-.174-.011-.088-.011-.18-.011-.268 0-.534 0-1.074.005-1.608 0-.098-.01-.196.077-.289.104-.01.219-.022.334-.038.05-.005.087-.027.093-.076.005-.033-.011-.066-.022-.11h-1.784c-.028 0-.05.017-.082.028.005.044.005.087.01.147l.324.033c.114.016.153.049.17.169.021.13.016.638-.012.818-.279.032-.569.021-.854.021-.29-.005-.585.017-.892-.043.006-.322-.027-.627.066-.932.153-.066.317-.011.449-.093 0-.038.005-.065.005-.087 0-.017-.016-.028-.033-.055h-1.79c-.016 0-.027.017-.054.033.005.038.005.076.011.13.148.023.29.044.454.066zm9.455 2.489c.02.006.04.022.066.022h1.495c.03 0 .055-.022.08-.033.01-.07 0-.125-.06-.13-.065-.011-.13-.006-.194-.016-.125-.017-.155-.05-.17-.186-.015-.152-.04-.304-.035-.451.01-.534.025-1.072.04-1.606 0-.016.015-.032.02-.049.2-.065.404-.032.603 0 .065.011.125.044.185.071.309.152.289.604.015.778a.915.915 0 01-.514.158c-.055 0-.114-.022-.15.044 0 .021-.004.043.006.054.389.457.782.909 1.171 1.355.254.028.837.017 1.022-.016 0-.038-.005-.082-.005-.13-.17 0-.29-.093-.389-.213-.284-.321-.568-.637-.852-.958-.025-.027-.035-.065-.055-.109.085-.032.16-.054.224-.081.07-.028.135-.066.2-.104a.677.677 0 00.284-.283.508.508 0 00-.09-.61.556.556 0 00-.324-.174c-.194-.021-.389-.054-.583-.054-.613-.005-1.226 0-1.84 0-.044 0-.094.011-.14.016-.01.142-.004.158.07.175.09.016.175.027.25.043.075.098.075.196.075.294v1.769c0 .027 0 .054-.005.082-.015.136-.045.174-.165.19-.055.01-.114.005-.17.016-.09.006-.104.06-.064.136zm26.068-2.709c-.2 0-.38-.005-.56 0-.186.006-.376-.042-.556.011.01.129.014.145.065.155.101.022.208.032.3.048.07.107.065.214.065.316 0 .289.005.577 0 .866-.004.15-.018.3-.032.444a.508.508 0 01-.273.422c-.171.102-.352.113-.532.123a1.26 1.26 0 01-.667-.117.468.468 0 01-.273-.39 2.36 2.36 0 01-.023-.316c.004-.374.018-.754.027-1.128 0-.038.005-.07.01-.107.014-.086.041-.118.115-.134.088-.016.176-.027.274-.043v-.139c-.028-.01-.047-.021-.07-.021H46.87c-.023 0-.041.01-.069.021v.123c.079.064.167.048.245.059.088.016.12.043.135.15.009.07.014.139.014.208.004.246.004.492.004.738 0 .203-.005.401-.005.604 0 .294.125.503.352.62.144.075.292.14.454.172.324.064.653.059.977.032.203-.016.402-.08.592-.182a.79.79 0 00.426-.636 3.27 3.27 0 00.023-.364c.01-.326.01-.647.019-.973.004-.123.004-.246.083-.358.07-.011.144-.027.218-.043.069-.01.074-.032.05-.16zm-15.346.029c-.05-.016-.074-.032-.106-.032a597.7 597.7 0 00-3.28-.011c-.05 0-.1.01-.156.016v.142c.119.049.243.043.362.054.125.016.156.044.168.152.006.06.006.126.013.186a17.46 17.46 0 01-.013 1.715c-.012.201.006.294-.274.354-.056.01-.081.049-.038.12.081 0 .169.005.262.005.35 0 .692-.005 1.042-.005.542 0 1.085.005 1.628.01.118 0 .243.006.38-.032.006-.224.106-.43.056-.654-.23-.01-.23-.01-.293.131-.038.093-.044.19-.131.261-.599.06-1.328.066-1.584.011-.069-.218-.081-.735-.025-.996.3-.055.923-.044 1.185.016.031.087.062.18.093.278.044.005.088.01.125.01.038 0 .081-.01.125-.016.044-.147.012-.288.019-.43 0-.141.018-.283 0-.414-.106-.054-.188-.054-.269-.005-.03.087-.062.169-.087.245-.293.076-.786.082-1.197.022a2.326 2.326 0 01.037-.904c.063-.005.137-.022.206-.022.368.006.736.006 1.104.016.193.006.293.006.293.251 0 .033.019.065.037.114l.244-.016c.018-.207.05-.392.074-.572zm19.164 2.685c.106.005.18.016.26.016.762 0 1.523.006 2.284.006.192 0 .384 0 .576-.006.068 0 .136-.016.216-.032-.018-.224.087-.426.05-.639-.241-.021-.235-.021-.297.115-.037.093-.05.19-.124.267-.346.044-1.225.071-1.522.044-.025 0-.05-.022-.093-.044a2.261 2.261 0 01-.025-.502c.006-.163-.037-.338.03-.496.372-.038.91-.027 1.183.022.019.07.037.147.062.223.006.022.03.044.043.066.044 0 .087.005.124.005.037-.005.074-.016.118-.027 0-.153.006-.295 0-.436-.007-.142.043-.284-.031-.431-.08.005-.161.005-.23.01-.043.11-.074.197-.105.279-.358.07-.897.07-1.2-.006a5.065 5.065 0 01.03-.867c.05-.016.075-.033.1-.033.445-.043.891-.016 1.337.017.123.01.148.038.167.152.006.044.006.088.018.131 0 .017.019.033.031.055h.235c0-.208.1-.388.062-.595-.303-.038-.6-.016-.89-.016-.286 0-.57.005-.855.005-.297 0-.588 0-.885.006-.291.005-.582-.044-.867.01-.018.088-.012.148.08.159.087.016.18.016.273.027.143.017.167.044.18.175.006.038.006.07.006.109.037.605.018 1.216-.012 1.822 0 .038-.007.07-.013.109-.006.076-.05.13-.136.158-.05.01-.136.016-.18.142zm-.431-2.536c-.015-.016-.025-.032-.035-.037a1.577 1.577 0 00-.114-.047 3.455 3.455 0 00-1.036-.106 2.422 2.422 0 00-.67.121.937.937 0 00-.441.306c-.283.353-.179.826.223.995.129.053.263.09.397.116.173.032.357.037.53.063.16.026.323.058.472.116.218.084.277.363.124.558a.465.465 0 01-.13.116.92.92 0 01-.367.137 1.691 1.691 0 01-.838-.105c-.178-.074-.317-.18-.292-.416 0-.016 0-.037-.005-.053s-.02-.026-.035-.053c-.055.006-.114.006-.184.01-.024.222-.05.433-.074.649.159.052.303.105.456.136.348.064.695.058 1.047.037a1.81 1.81 0 00.635-.168c.159-.074.297-.174.412-.316.223-.28.238-.806-.234-1a1.862 1.862 0 00-.446-.117c-.258-.026-.516-.068-.774-.105a1.073 1.073 0 01-.213-.058c-.233-.11-.273-.39-.08-.563.06-.053.134-.1.209-.121.312-.09.63-.074.937.036.124.043.209.127.204.285 0 .042.01.084.015.116.079.042.148.047.218 0l.09-.532zm-22.497.002c-.025-.021-.035-.037-.05-.042-.084-.026-.169-.053-.258-.074a2.97 2.97 0 00-1.52.042.95.95 0 00-.486.327c-.273.348-.169.807.223.981.124.058.264.095.398.116.173.032.357.037.53.063.16.027.324.053.473.111.233.09.293.374.129.57a.507.507 0 01-.11.1.868.868 0 01-.387.142c-.268.026-.531 0-.794-.095-.219-.079-.353-.206-.333-.464 0-.016-.015-.026-.025-.047-.064-.027-.134-.037-.199.01-.024.211-.05.412-.069.622.144.058.278.106.422.138.358.068.715.063 1.068.042.228-.016.447-.074.66-.18a1.12 1.12 0 00.407-.321c.219-.285.224-.812-.253-.992a1.95 1.95 0 00-.427-.105c-.258-.042-.516-.069-.775-.11a.706.706 0 01-.233-.07c-.224-.11-.258-.374-.08-.553a.562.562 0 01.303-.153c.09-.016.18-.031.269-.031.188-.006.372.015.55.079.145.047.244.131.24.31 0 .032.01.07.014.1.07.054.14.054.219.011l.094-.527z" fill="#fff"/><path d="M22.266 61.706c.039-.098.088-.202.137-.323h.213c.038 0 .07 0 .109.006.699.071 1.3-.164 1.851-.569.546-.399.885-.93 1.005-1.591a3.32 3.32 0 00-.043-1.466c-.224-.815-.765-1.318-1.568-1.537a3.326 3.326 0 00-.983-.125c-.284.01-.573.01-.857.022-.131.005-.268.038-.393.054-.066.082-.044.18-.044.263-.017.618-.033 1.236-.044 1.854-.027 1.12-.038 2.242-.076 3.363-.033.935-.028 1.865.01 2.8.033.782.077 1.559.115 2.34.006.154.028.301.044.454.033.312.11.465.497.531.3.05.606.071.906.104.055.005.104.01.159.022.049.186.055.525.01.815-.223.032-.453-.022-.682-.017-.224.006-.448-.005-.672-.01-.234-.006-.464-.017-.699-.023-.223-.005-.447-.005-.671-.005h-.7c-.223 0-.447 0-.671.005-.235.006-.464.017-.7.022l-.67.017c-.236.005-.465.016-.705.027-.071-.137-.033-.279-.039-.421 0-.131-.021-.268.022-.416l.426-.049c.23-.033.459-.071.688-.098.197-.028.312-.142.334-.328.038-.296.081-.586.087-.88.027-1.182.06-2.369.065-3.55.006-1.335-.01-2.675-.021-4.009a48.008 48.008 0 00-.044-1.531 12.143 12.143 0 00-.098-.99c-.05-.334-.099-.421-.492-.498-.273-.049-.552-.076-.825-.114-.032-.006-.07-.011-.098-.017-.055-.18-.06-.514-.016-.804.082-.054.169-.027.256-.027.601.016 1.202.05 1.803.05 1.234 0 2.474-.017 3.708-.028.611-.006 1.218-.022 1.83-.028.463-.005.933.017 1.392.093.256.044.508.093.753.192.738.295 1.23.831 1.475 1.575.393 1.187.12 2.69-1.027 3.631a6.155 6.155 0 01-1.25.782c-.186.088-.372.17-.557.257.01.115.087.186.142.268 1.114 1.68 2.233 3.358 3.353 5.037.158.24.338.46.53.678a1.1 1.1 0 00.742.383l.295.033c.033.24.022.47.011.7-.082.07-.175.049-.262.049-.852.016-1.704.027-2.55.044-.312.005-.623.016-.956.027a.234.234 0 01-.038-.055c-1.491-2.291-2.977-4.583-4.468-6.874-.027-.05-.032-.077-.049-.115zM46.503 55c.658.032 1.306.048 1.943.149.775.122 1.522.313 2.22.663 1.672.84 2.74 2.135 3.15 3.914.177.765.205 1.535.172 2.31a7.588 7.588 0 01-.388 2.103c-.609 1.769-1.788 3.064-3.537 3.871a7.615 7.615 0 01-1.49.494c-.72.16-1.445.24-2.181.245-.736.01-1.467-.038-2.192-.165-1.086-.186-2.099-.542-2.99-1.179-1.113-.802-1.833-1.864-2.209-3.149-.238-.813-.316-1.64-.299-2.48a7.67 7.67 0 01.294-2.066c.492-1.672 1.517-2.942 3.105-3.791a6.883 6.883 0 011.512-.574c.703-.18 1.423-.276 2.148-.308.255-.005.504-.026.742-.037zm4.44 7a9.522 9.522 0 00-.233-2.295 5.919 5.919 0 00-.813-1.954 3.538 3.538 0 00-.87-.93c-.625-.45-1.345-.669-2.12-.732a7.584 7.584 0 00-1.251-.006 4.14 4.14 0 00-1.113.229 3.683 3.683 0 00-2.087 1.779c-.255.467-.41.966-.52 1.476a9.372 9.372 0 00-.183 1.843c-.011.897.055 1.795.293 2.665.216.781.548 1.514 1.057 2.162a3.53 3.53 0 001.324 1.062c.526.239 1.085.345 1.655.387.454.032.908.032 1.356-.053a3.797 3.797 0 002.608-1.72c.376-.579.587-1.21.72-1.875A9.235 9.235 0 0050.943 62zm6.947-3.797c-.012.026-.028.048-.028.07-.005.058-.005.123-.005.182-.006 2.199-.006 4.398.038 6.598.01.536.032 1.073.054 1.61.005.155.027.316.049.471.038.247.119.338.363.381.232.043.47.07.709.102.157.021.314.032.471.048.054.193.06.531.017.789-.006.005-.011.016-.022.021a.042.042 0 01-.027.011c-.959-.038-1.918-.097-2.876-.059-.558.021-1.116.037-1.674.059-.006 0-.016-.005-.038-.022a4.074 4.074 0 01-.005-.772c.103-.043.2-.027.298-.037.086-.011.178-.017.265-.027l.607-.065c.243-.026.395-.16.433-.397.043-.252.076-.504.087-.756.027-.66.043-1.32.054-1.98.038-1.759.016-3.519.01-5.278 0-.553 0-1.11-.005-1.663-.005-.327-.032-.649-.049-.976 0-.038-.005-.07-.01-.107-.033-.21-.141-.365-.363-.403a14.662 14.662 0 00-.683-.107c-.2-.027-.406-.048-.601-.07-.06-.172-.065-.461-.027-.794.097-.048.2-.021.303-.021.558.016 1.121.043 1.68.048.503.005 1.012-.01 1.516-.021.195-.006.39-.027.59-.038.049.054.092.107.136.16a221.376 221.376 0 005.757 6.964c.7.81 1.42 1.598 2.13 2.398.053.064.107.134.183.171.06-.037.044-.085.044-.123 0-1.872-.006-3.75-.011-5.622a47.068 47.068 0 00-.049-1.743 8.16 8.16 0 00-.097-.89c-.044-.264-.136-.339-.412-.365-.347-.038-.688-.07-1.035-.102a8.403 8.403 0 00-.135-.017c-.07-.128-.033-.262-.038-.391-.005-.129 0-.263 0-.408.076-.005.135-.021.195-.016 1.235.086 2.47.048 3.705.032.151 0 .303-.016.45-.026.102-.006.21 0 .314 0 .048.177.06.514.01.793-.21.043-.433.054-.65.076-.157.016-.32.032-.476.059-.276.042-.423.187-.482.456a.76.76 0 00-.017.155c-.016.343-.043.687-.043 1.03-.022 2.28-.032 4.56-.054 6.834-.01 1.32.01 2.64.054 3.96 0 .069.005.138 0 .208-.01.102-.103.167-.206.156-.173-.022-.352-.054-.525-.08a49.582 49.582 0 00-.948-.156c-.092-.01-.14-.07-.195-.124-.233-.252-.46-.51-.693-.767a300.96 300.96 0 01-5.179-5.96 98.597 98.597 0 01-2.702-3.299c-.038-.053-.07-.134-.163-.16z" fill="#000"/><path d="M6.21 67.894c.022.294.022.55 0 .818-.107.043-.214.022-.315.016-1.002-.065-2.004-.049-3.006-.038-.22 0-.44.022-.659.033-.129.005-.262.027-.391.005a2.28 2.28 0 01-.005-.812c.144-.038.3-.05.455-.066.129-.016.262-.038.391-.054a.5.5 0 00.375-.262c.129-.234.263-.469.37-.709.375-.856.755-1.712 1.103-2.578 1.2-2.977 2.39-5.954 3.585-8.93.042-.104.07-.224.155-.317h1.329c.085.082.112.19.15.289l2.41 5.828c.67 1.614 1.334 3.228 2.01 4.842.176.425.38.845.573 1.264.032.071.08.142.112.213.097.218.274.322.488.36.14.027.278.043.418.06l.385.049c.07.19.075.583.017.818-.006.005-.011.016-.022.016-.027.005-.054.011-.08.011-1.956-.093-3.917-.065-5.872-.01-.005 0-.016-.012-.038-.028a4.387 4.387 0 010-.796c.225-.033.445-.044.665-.06.166-.011.332-.027.498-.055.252-.043.343-.174.3-.436a1.683 1.683 0 00-.086-.31c-.294-.786-.59-1.57-.884-2.35-.016-.039-.043-.077-.064-.11-.402-.06-4.645-.054-4.966.006-.016.033-.043.07-.06.11-.289.746-.583 1.493-.782 2.273-.026.092-.048.19-.064.288-.037.24.054.415.284.464.23.049.466.076.702.103.166.022.332.033.52.055zm3.75-4.443c.05-.006.097-.022.167-.044-.675-1.657-1.345-3.298-2.03-4.961-.108.092-.124.18-.156.261-.321.79-.643 1.587-.959 2.383L6.13 63.2c-.027.07-.08.136-.048.229.16.038.316.049.477.049" fill="#B41517"/><path d="M37.764 55.019c.048.213.048.585 0 .814-.209.022-.428.044-.642.071-.177.022-.348.044-.525.06-.24.028-.39.16-.428.4-.032.202-.07.404-.075.612a75.725 75.725 0 00-.059 2.204 551.56 551.56 0 00.005 5.162c.006.755.022 1.504.049 2.259.01.268.059.536.09.798a.406.406 0 00.364.367c.236.038.466.065.702.093.171.022.348.032.514.049a2.6 2.6 0 010 .815.075.075 0 01-.022.016.04.04 0 01-.021.011c-2.05-.12-4.106-.06-6.155-.01-.006 0-.017-.012-.038-.028a4.282 4.282 0 01-.005-.788c.198-.038.39-.044.583-.065.24-.028.487-.072.728-.11.145-.022.236-.115.278-.251a2.08 2.08 0 00.075-.312c.022-.213.043-.427.048-.645.065-2.44.075-4.878.022-7.317-.01-.509-.006-1.023-.016-1.531a44.4 44.4 0 00-.048-1.209c-.016-.355-.134-.487-.471-.525-.338-.044-.68-.071-1.023-.11a2.889 2.889 0 01-.171-.021c-.043-.268-.01-.536-.021-.799.128-.043.235-.027.337-.021.674.016 1.349.043 2.028.049.937.005 1.879-.006 2.816-.011.257 0 .508-.022.76-.033.117-.005.22-.027.32.006zm.504 18.871c-.039.464-.022.796.06 1.047.104.077.235.05.361.066.083.01.105.06.083.13-.017.012-.028.028-.044.028-.58.006-1.167.006-1.747.006-.022 0-.05-.017-.071-.028-.022-.076-.011-.13.076-.141.088-.011.181-.011.269-.022.07-.011.11-.055.126-.12a.677.677 0 00.01-.104c0-.655 0-1.304-.005-1.959 0-.044-.016-.087-.027-.142a12.943 12.943 0 01-.455-.07v-.137c.022-.01.039-.022.055-.022h1.725c.027 0 .05.011.088.022 0 .033.016.07 0 .098-.011.028-.05.055-.077.06-.115.022-.23.027-.361.044-.017.065-.044.13-.055.196a3.36 3.36 0 00-.011.742c.285.066 1.369.071 1.736.017.044-.093.022-.202.027-.306.005-.109 0-.213-.005-.322-.006-.103.01-.218-.083-.327a12.47 12.47 0 01-.35-.044c-.077-.01-.082-.032-.071-.158.016-.005.033-.022.05-.022.574 0 1.149-.005 1.724-.005.027 0 .05.01.088.016.005.033.022.071.01.098a.112.112 0 01-.076.066c-.12.022-.246.032-.356.043-.071.082-.071.164-.071.246v1.877c.01.164.049.207.208.224.088.01.175.01.28.021.005.05.016.088.021.12-.027.017-.044.033-.055.033-.58 0-1.166.006-1.747.006-.027 0-.049-.017-.07-.028-.028-.076-.012-.13.07-.136.088-.01.181-.01.269-.022.07-.005.115-.049.131-.114.011-.044.022-.088.022-.131v-.84c-.186-.06-.383-.017-.58-.028a9.641 9.641 0 00-.564 0c-.203.006-.4-.005-.608.022zm-23.403-1.244c-.164-.022-.306-.044-.454-.06-.005-.05-.011-.093-.011-.131.022-.016.038-.033.055-.033h1.79c.016.027.033.038.033.055.005.027 0 .049-.006.087-.131.082-.3.027-.449.093-.093.3-.06.61-.065.932.306.06.602.043.892.043.285 0 .575.011.854-.021.027-.18.033-.687.011-.818-.022-.12-.055-.153-.17-.17l-.323-.032c-.005-.06-.01-.103-.01-.147.032-.011.06-.027.081-.027h1.785c.011.043.022.076.022.109-.005.054-.05.07-.093.076-.115.016-.23.027-.334.038-.093.093-.077.197-.077.29-.005.533-.005 1.073-.005 1.607 0 .087 0 .18.01.267.012.115.056.159.165.175.099.01.197.016.29.022.055.125.044.158-.06.163-.06.006-.126 0-.186 0h-1.32c-.07 0-.142 0-.213-.005a.099.099 0 01-.066-.066c-.01-.049.022-.087.072-.092.06-.006.125-.006.186-.011.06-.006.12-.022.175-.033.093-.229.115-.714.06-1.063-.224-.038-1.434-.038-1.708 0-.066.224-.05.747.033 1.036.098.082.23.054.356.065.076.011.115.044.093.136-.022.011-.055.033-.088.033h-1.697c-.027 0-.05-.016-.071-.022-.038-.076-.027-.13.06-.141.082-.011.159-.006.241-.017.115-.01.153-.054.17-.169a.69.69 0 00.005-.109c0-.627 0-1.248-.005-1.875 0-.055-.017-.109-.028-.185zm9.457 2.5c-.04-.076-.025-.125.05-.142.055-.01.115-.01.17-.016.12-.016.15-.055.165-.19.005-.028.005-.055.005-.082v-1.769c0-.098.005-.196-.075-.294-.075-.01-.165-.022-.25-.043-.07-.017-.075-.033-.07-.175.045-.005.095-.016.14-.016.615 0 1.23-.005 1.846 0 .196 0 .39.033.586.055a.558.558 0 01.325.174c.166.163.2.402.09.61a.648.648 0 01-.285.282c-.065.038-.13.071-.2.104a3.74 3.74 0 01-.225.081c.02.038.035.082.055.11.285.32.57.641.856.957.105.114.22.212.39.212.005.05.005.093.005.13a5.74 5.74 0 01-1.026.017c-.385-.446-.78-.898-1.176-1.355-.01-.01 0-.033-.005-.054.035-.066.1-.044.15-.044.185 0 .355-.06.515-.158.276-.174.296-.626-.015-.778-.06-.027-.12-.065-.185-.07-.2-.033-.405-.066-.605 0-.01.021-.02.032-.02.048-.015.534-.03 1.072-.04 1.606 0 .152.02.304.035.451.015.136.045.17.17.186.065.01.13.005.195.016.065.01.075.06.06.13-.025.011-.05.033-.08.033h-1.501c-.01.006-.03-.01-.05-.016z" fill="#000"/><path d="M43.594 75.167c-.26-.026-.526-.042-.786-.073a2.178 2.178 0 01-.785-.267 1.145 1.145 0 01-.094-1.984c.21-.141.437-.246.686-.303a4.756 4.756 0 012.152 0c.21.047.41.136.592.25.725.429.642 1.322.216 1.745a1.863 1.863 0 01-.675.423c-.316.12-.642.177-.98.188-.11.005-.215 0-.326 0v.02zm.11-.225c.211.016.443-.02.66-.11.303-.125.497-.328.58-.631a1.427 1.427 0 000-.763c-.122-.423-.41-.679-.863-.752a2.551 2.551 0 00-.89 0c-.455.084-.748.314-.847.731-.05.22-.056.444.005.663.1.392.343.669.764.794.182.047.37.068.592.068zm-22.164.225a12 12 0 01-.606-.073 1.514 1.514 0 01-.65-.277c-.627-.443-.64-1.482-.066-1.967.173-.146.363-.256.566-.313a3.063 3.063 0 011.68-.006c.185.053.353.147.513.267.534.412.499 1.174.243 1.607a1.295 1.295 0 01-.403.422 1.846 1.846 0 01-.932.308c-.115.01-.23 0-.35 0a.097.097 0 01.005.032zm.093-.204a1.22 1.22 0 00.552-.135.858.858 0 00.442-.595c.062-.267.067-.538.005-.81-.093-.411-.323-.657-.677-.735a1.584 1.584 0 00-.733 0c-.39.094-.61.35-.672.788a1.73 1.73 0 00.013.584c.088.428.3.71.668.825.128.042.265.052.402.078zm28.755-2.532c.023.129.018.15-.051.16-.075.017-.149.028-.218.044-.083.112-.083.235-.083.358-.01.326-.01.647-.019.973-.005.123-.01.246-.023.364a.79.79 0 01-.426.636c-.19.102-.384.166-.592.182a3.52 3.52 0 01-.977-.032 1.579 1.579 0 01-.454-.171c-.227-.118-.352-.326-.352-.62 0-.204.005-.402.005-.605 0-.246 0-.492-.005-.738 0-.07-.004-.139-.013-.208-.014-.102-.047-.129-.135-.15-.078-.016-.166.005-.245-.059v-.123c.028-.01.046-.021.07-.021h1.388c.023 0 .042.01.07.021v.14c-.098.015-.186.026-.274.042-.078.016-.106.053-.115.134-.005.032-.005.07-.01.107-.009.374-.023.754-.027 1.128 0 .107.009.208.023.315.023.193.12.31.273.39.213.108.44.134.666.118.181-.01.362-.021.533-.123a.518.518 0 00.273-.422c.014-.15.032-.294.032-.444.005-.289 0-.577 0-.866 0-.102.005-.214-.064-.316-.093-.016-.2-.026-.301-.048-.051-.01-.056-.026-.065-.155.185-.053.37-.005.555-.01.18-.006.361 0 .56 0zm-15.333.035c-.031.18-.056.365-.087.566l-.244.016c-.012-.049-.037-.081-.037-.114 0-.245-.094-.245-.293-.25l-1.104-.017c-.069 0-.137.016-.206.022a2.33 2.33 0 00-.037.904c.411.06.904.054 1.197-.022.025-.076.056-.158.087-.245.081-.049.169-.049.269.005.025.131 0 .273 0 .414 0 .142.03.283-.02.43-.043.006-.086.017-.124.017-.037 0-.08-.006-.125-.011a8.005 8.005 0 00-.093-.278c-.262-.06-.886-.065-1.185-.016-.056.261-.044.784.025.996.256.055.985.05 1.584-.01.087-.071.093-.17.131-.262.062-.136.056-.136.293-.13.05.223-.05.43-.056.653-.137.038-.256.032-.38.032-.543 0-1.086-.005-1.628-.01-.35 0-.692.005-1.042.005-.087 0-.18-.005-.262-.005-.043-.066-.012-.104.038-.12.28-.066.262-.153.274-.354.031-.572.044-1.144.013-1.715-.007-.06-.007-.126-.013-.186-.012-.108-.05-.136-.168-.152-.119-.016-.243-.005-.362-.054v-.142c.056-.005.106-.016.156-.016 1.091 0 2.189.005 3.28.01.044 0 .075.022.119.039zm19.133 2.69c.043-.126.13-.131.198-.153.087-.027.13-.082.136-.158.006-.039.006-.071.013-.11.03-.606.049-1.217.012-1.823 0-.038 0-.07-.006-.109-.019-.131-.044-.158-.18-.175-.093-.01-.18-.016-.272-.027-.093-.016-.1-.076-.08-.158.284-.055.575-.006.866-.011.297-.006.588-.006.885-.006.285 0 .57-.005.854-.005.291 0 .588-.017.891.016.037.208-.062.393-.062.595h-.235c-.018-.027-.03-.038-.03-.054-.007-.044-.007-.088-.02-.131-.018-.115-.043-.142-.166-.153-.446-.033-.892-.06-1.337-.017-.031.006-.056.017-.1.033-.036.29-.043.579-.03.868.31.077.842.082 1.2.006.031-.082.069-.17.106-.279.068-.005.148-.005.229-.01.068.152.024.294.03.43.007.143 0 .284 0 .437-.043.011-.08.022-.117.027-.037.006-.08-.005-.124-.005-.018-.022-.037-.044-.043-.065-.025-.077-.043-.153-.062-.224-.266-.05-.81-.06-1.182-.022-.068.158-.031.328-.031.497-.006.169 0 .338.025.502.043.022.068.044.093.044.297.027 1.175 0 1.522-.044.074-.071.087-.175.124-.268.056-.136.056-.136.297-.114.037.213-.068.42-.05.639-.08.01-.148.027-.216.032-.192.006-.384.006-.576.006-.761 0-1.522 0-2.284-.006-.099.011-.173 0-.278-.005zm-.413-2.542l-.09.526c-.069.053-.138.048-.217 0-.005-.037-.02-.079-.015-.116.01-.157-.075-.242-.204-.284a1.542 1.542 0 00-.937-.037.562.562 0 00-.208.121c-.194.174-.154.453.079.564a.713.713 0 00.213.057c.258.037.516.08.774.106.154.016.303.052.446.115.472.19.457.722.234 1a1.117 1.117 0 01-.412.316 1.61 1.61 0 01-.635.169c-.347.02-.7.031-1.047-.037-.153-.026-.297-.084-.456-.137.025-.216.05-.426.074-.647.07-.006.13-.005.184-.01.02.026.03.036.035.052.005.016.01.031.005.052-.025.237.114.343.292.416.273.11.55.137.838.105a.949.949 0 00.368-.136.467.467 0 00.129-.116c.153-.19.094-.468-.124-.558a2.38 2.38 0 00-.472-.116c-.178-.031-.357-.031-.53-.063a1.726 1.726 0 01-.397-.116c-.402-.174-.506-.647-.223-.995a.901.901 0 01.441-.305 2.39 2.39 0 01.67-.12c.352-.011.7.01 1.036.104a.52.52 0 01.114.048c.015.01.02.031.035.042zm-22.497-.017c-.035.19-.065.364-.094.538-.08.037-.144.043-.219-.01-.005-.032-.015-.063-.015-.1.01-.18-.09-.264-.238-.312a1.786 1.786 0 00-.551-.08c-.09 0-.18.017-.269.032a.562.562 0 00-.302.154c-.18.174-.145.443.079.554a.743.743 0 00.233.069c.259.042.517.068.775.11.144.027.288.053.427.106.477.18.472.708.253.993a1.12 1.12 0 01-.407.322 1.717 1.717 0 01-.66.18c-.358.02-.715.026-1.068-.043a2.184 2.184 0 01-.422-.137c.025-.211.05-.417.07-.623.064-.047.134-.037.198-.01.01.02.025.036.025.047-.02.264.12.385.333.465.258.095.521.116.794.095a.868.868 0 00.388-.143.508.508 0 00.109-.1c.164-.2.104-.486-.13-.57-.153-.059-.312-.085-.471-.111-.179-.032-.358-.032-.531-.064a2.036 2.036 0 01-.398-.116c-.392-.174-.491-.634-.223-.982a.92.92 0 01.487-.328 3.087 3.087 0 011.52-.042c.088.021.173.048.257.074.015-.005.025.01.05.032zM41.84 30.566c.027 0 .055-.014.076-.007.216.05.44.057.656.021.474-.071.858-.285 1.08-.742a.925.925 0 00.008-.813 1.46 1.46 0 00-.475-.578c-.041-.036-.097-.057-.146-.078-.028-.015-.07.028-.07.057v.042c.119.364.042.7-.174 1.006a.81.81 0 01-.865.322 1.001 1.001 0 01-.551-.35.914.914 0 01-.14-.863c.098-.307.251-.585.412-.857.216-.356.328-.749.376-1.163.05-.406 0-.813-.055-1.213-.028-.185-.084-.364-.119-.549a.28.28 0 01-.007-.107c.007-.029.035-.05.063-.036.028.007.049.029.07.043.125.107.25.214.376.314.272.214.377.5.384.835 0 .15-.014.307-.07.45-.063.178-.132.349-.202.527-.007.029-.028.05-.028.079a.11.11 0 00.028.057c.007.007.028.007.042 0a.608.608 0 00.07-.043c.216-.185.446-.357.655-.556.16-.15.307-.329.363-.55a.95.95 0 00.035-.278 1.949 1.949 0 00-.453-1.17c-.091-.107-.182-.221-.287-.321-.244-.243-.397-.543-.509-.87-.02-.065-.042-.122-.056-.186-.076-.293-.104-.578 0-.878.147-.414.175-.849.154-1.284-.042-.7-.3-1.306-.782-1.805-.097-.1-.216-.186-.327-.272a784.43 784.43 0 01-.46-.342.444.444 0 01-.063-.057c-.035-.05-.007-.129.048-.136a.508.508 0 01.147.007c.16.043.307.115.432.222.105.085.203.178.307.27a.25.25 0 00.07.05c.028.015.077-.014.077-.05 0-.013.007-.028 0-.042-.105-.307-.175-.62-.328-.913-.28-.55-.684-.95-1.242-1.192a3.68 3.68 0 00-.816-.235c-.195-.036-.398-.015-.593-.022-.049 0-.098.015-.133-.043 0-.064.056-.1.098-.128.195-.157.265-.364.265-.614 0-.185-.042-.356-.09-.535-.008-.014-.028-.028-.05-.057-.02.029-.041.043-.048.064a.414.414 0 00-.021.129c0 .178-.098.3-.223.4-.084.07-.175.1-.28.064-.125-.043-.258-.079-.376-.136a3.825 3.825 0 01-.69-.42c-.405-.3-.81-.607-1.221-.9-.287-.2-.614-.3-.956-.307h-.189c-.293-.021-.579.043-.865.093-.14.021-.279.05-.418.086a.417.417 0 01-.307-.043c-.154-.086-.314-.164-.475-.25a3.502 3.502 0 01-.272-.164 1.64 1.64 0 01-.613-.913 2.585 2.585 0 00-.07-.25.625.625 0 00-.049-.121c-.063-.1-.154-.107-.23-.022a.613.613 0 00-.09.143 2.006 2.006 0 00-.085.293c-.055.27-.118.535-.153.813-.042.357-.077.72-.021 1.084.042.307.21.507.502.607.16.057.314.071.482.078.055 0 .111 0 .167.015.042.007.077.028.084.078.007.036-.028.072-.084.079a3.098 3.098 0 01-.51-.007c-.139-.015-.23.042-.292.17-.028.065-.07.122-.105.193-.125.264-.328.45-.551.621-.09.072-.188.136-.279.2a2.61 2.61 0 00-.46.42c-.14.158-.224.358-.293.55-.05.122-.05.264-.05.393a.442.442 0 01-.132.306c-.335.372-.67.75-1.011 1.114-.272.292-.551.585-.83.87-.16.164-.35.3-.545.421a1.09 1.09 0 00-.313.285.362.362 0 00-.07.222c.007.178.014.364.014.542 0 .121.007.25 0 .37-.007.208-.007.422-.021.629-.007.15.056.242.181.314.175.1.342.2.516.3.237.142.46.306.65.52.027.036.062.057.09.093.146.186.342.221.558.164.119-.028.237-.05.349-.085.16-.05.32-.029.481-.008.098.015.195.029.293.029.265.014.467-.107.607-.335.063-.1.119-.215.16-.329.077-.22.16-.435.154-.67 0-.1.056-.179.125-.243.05-.043.105-.078.154-.114.181-.114.363-.228.537-.343a.293.293 0 01.265-.042c.154.042.314.078.474.114a.514.514 0 00.147.014c.237 0 .467.007.698-.007.272-.014.53-.079.78-.178.064-.029.127-.057.196-.029-.007.079-.063.1-.104.136a.324.324 0 00-.119.306c.021.15.028.3.056.45.056.292.007.564-.14.813-.104.179-.202.364-.328.528-.146.186-.32.321-.502.464-.809.656-1.653 1.27-2.49 1.89-.342.258-.684.522-1.019.779-.614.478-1.06 1.098-1.416 1.798a11.03 11.03 0 00-.614 1.526 22.311 22.311 0 00-.495 1.777c-.181.728-.314 1.47-.453 2.212l-.084.45c-.007.028.007.078.028.092.02.015.07.015.097 0 .05-.028.091-.064.14-.1.44-.3.893-.592 1.346-.87.482-.293.963-.578 1.465-.842a18.09 18.09 0 011.724-.835 7.88 7.88 0 01.627-.257c.223-.078.453-.164.684-.228.23-.071.467-.121.697-.171.447-.093.893-.157 1.347-.136.188.007.383 0 .572.007.362.015.718.079 1.067.179.335.093.663.2 1.005.27.37.08.74.13 1.116.108a3.524 3.524 0 001.179-.25c.118-.05.23-.114.335-.185a.352.352 0 01.279-.058c.209.05.418.079.628.115.39.071.795.071 1.185.028.447-.043.865-.2 1.228-.5.244-.206.398-.47.495-.77.056-.157.063-.328.07-.492 0-.029 0-.057-.014-.086-.007-.014-.028-.035-.048-.035-.015 0-.05.007-.056.021a.85.85 0 00-.056.114 2.33 2.33 0 01-.405.657c-.16.185-.349.292-.6.242-.404.036-.725-.164-1.04-.37-.027.006-.027 0-.055-.108z" fill="#000"/><path d="M34.94 3.667l-18.082 9.61s-2.393 24.283 18.075 33.08C55.4 37.559 53.015 13.278 53.015 13.278L34.94 3.667zm15.703 22.64c-2.484 9.004-7.764 15.368-15.71 18.915-7.946-3.547-13.227-9.911-15.71-18.916-1.57-5.686-1.472-10.73-1.388-12.365l17.09-9.09 17.092 9.09c.098 1.634.195 6.679-1.374 12.365z" fill="#000"/><path d="M34.94 6.228l-15.933 8.47c-.063 1.726-.07 6.321 1.332 11.402 2.323 8.419 7.227 14.398 14.594 17.766C42.3 40.498 47.21 34.519 49.527 26.1c1.402-5.08 1.395-9.676 1.332-11.402l-15.92-8.47zm14.21 19.757c-2.267 8.241-7.053 14.106-14.21 17.431-7.164-3.325-11.95-9.19-14.217-17.43-1.326-4.81-1.381-9.17-1.326-11.039L34.94 6.685l15.543 8.262c.048 1.87-.008 6.236-1.333 11.038zM37.856 50.566a.103.103 0 01-.105.05c-6.969-.842-12.047-4.417-15.082-7.271-3.293-3.09-4.953-6.03-4.974-6.058-.028-.05-.014-.121.042-.15.056-.028.119-.014.147.043.013.029 1.667 2.94 4.939 6.008 3.013 2.833 8.05 6.379 14.956 7.206a.11.11 0 01.098.122c-.007.021-.014.035-.021.05z" fill="#000"/><path d="M18.343 36.374c.433.949.342 2.04.252 2.084-.091.042-.963-.593-1.396-1.542-.432-.949-.341-2.04-.25-2.083.09-.043.962.592 1.394 1.541zm1.005 3.796c1.158.45 1.982 1.477 1.94 1.591-.042.121-1.326.321-2.484-.128-1.158-.45-1.98-1.477-1.94-1.592.05-.114 1.326-.32 2.484.129zm4.144.949c.58 1.42.39 3.01.251 3.075-.14.057-1.381-.92-1.967-2.34-.579-1.42-.39-3.011-.251-3.075.14-.058 1.388.92 1.967 2.34zm5.81 6.795c.528-.258.326-1.816-.45-3.48-.778-1.664-1.837-2.804-2.365-2.546-.529.259-.327 1.817.45 3.48.778 1.665 1.836 2.805 2.365 2.546zm-6.263-3.449c1.709.229 3.146 1.334 3.125 1.513-.02.178-1.688.877-3.397.65-1.71-.23-3.146-1.335-3.125-1.514.02-.178 1.68-.877 3.397-.649zm5.033 6.198c2.048-.241 3.646-.986 3.57-1.663-.077-.677-1.798-1.03-3.846-.79-2.047.241-3.646.985-3.57 1.663.077.677 1.798 1.03 3.846.79zm4.036-.097c.02.035.062.057.104.05 6.97-.842 12.048-4.417 15.082-7.271 3.293-3.09 4.953-6.03 4.974-6.058.028-.05.014-.121-.042-.15-.055-.028-.118-.014-.146.043-.014.029-1.667 2.94-4.94 6.008-3.013 2.833-8.05 6.379-14.956 7.206a.11.11 0 00-.097.122c.006.021.013.035.02.05z" fill="#000"/><path d="M51.62 36.374c-.433.949-.342 2.04-.252 2.084.091.042.963-.593 1.396-1.542.432-.949.341-2.04.25-2.083-.09-.043-.962.592-1.395 1.541zm-1.005 3.796c-1.158.45-1.981 1.477-1.94 1.591.043.121 1.326.321 2.484-.128 1.158-.45 1.981-1.477 1.94-1.592-.05-.114-1.326-.32-2.484.129zm-4.144.949c-.579 1.42-.39 3.01-.251 3.075.14.057 1.381-.92 1.967-2.34.58-1.42.39-3.011.251-3.075-.14-.058-1.388.92-1.967 2.34zm-3.446 4.248c.778-1.664.98-3.223.451-3.481-.528-.258-1.587.881-2.364 2.545-.777 1.664-.98 3.223-.45 3.48.528.26 1.586-.88 2.363-2.544zm3.907-.902c-1.71.229-3.147 1.334-3.126 1.513.021.178 1.689.877 3.398.65 1.709-.23 3.146-1.335 3.125-1.514-.021-.178-1.688-.877-3.397-.649zm-1.195 5.413c.076-.677-1.522-1.421-3.57-1.662-2.047-.241-3.769.113-3.845.79-.076.677 1.522 1.421 3.57 1.662 2.047.241 3.77-.112 3.845-.79z" fill="#000"/></svg>