<svg width="28" height="28" viewBox="0 0 28 28" fill="none" xmlns="http://www.w3.org/2000/svg">
<g clip-path="url(#clip0)">
<path d="M27.8291 14.4125L19.0791 23.1625C18.8512 23.3903 18.4821 23.3903 18.2542 23.1625C18.0264 22.9346 18.0264 22.5654 18.2542 22.3376L26.0085 14.5834L0.583352 14.5834C0.260914 14.5834 0 14.3224 0 14C0 13.6776 0.260914 13.4167 0.583352 13.4167L26.0085 13.4167L18.2542 5.66246C18.0264 5.43458 18.0264 5.06544 18.2542 4.83761C18.3682 4.7237 18.5175 4.66671 18.6667 4.66671C18.8159 4.66671 18.9652 4.7237 19.0792 4.83761L27.8292 13.5876C28.057 13.8154 28.057 14.1846 27.8291 14.4125Z" fill="#D3888A"/>
</g>
<defs>
<clipPath id="clip0">
<rect width="28" height="28" fill="white" transform="matrix(1 0 0 -1 0 28)"/>
</clipPath>
</defs>
</svg>
