<svg width="28" height="28" viewBox="0 0 28 28" fill="none" xmlns="http://www.w3.org/2000/svg">
<g clip-path="url(#clip0)">
<path d="M0.170898 13.5875L8.9209 4.83754C9.14878 4.60966 9.51792 4.60966 9.74575 4.83754C9.97363 5.06542 9.97363 5.43456 9.74575 5.66239L1.9915 13.4166H27.4166C27.7391 13.4166 28 13.6776 28 14C28 14.3224 27.7391 14.5833 27.4166 14.5833H1.9915L9.74575 22.3375C9.97363 22.5654 9.97363 22.9346 9.74575 23.1624C9.63184 23.2763 9.48254 23.3333 9.3333 23.3333C9.18405 23.3333 9.03481 23.2763 8.92084 23.1624L0.170843 14.4124C-0.0569839 14.1846 -0.0569839 13.8154 0.170898 13.5875Z" fill="#D3888A"/>
</g>
<defs>
<clipPath id="clip0">
<rect width="28" height="28" fill="white" transform="matrix(-1 0 0 1 28 0)"/>
</clipPath>
</defs>
</svg>
