<svg width="28" height="20" viewBox="0 0 28 20" fill="none" xmlns="http://www.w3.org/2000/svg">
<path d="M27.8291 9.58742L19.0791 0.837416C18.8512 0.609533 18.4821 0.609533 18.2542 0.837416C18.0264 1.0653 18.0264 1.43444 18.2542 1.66227L26.0085 9.41652H0.583352C0.260914 9.41652 0 9.67743 0 9.99987C0 10.3223 0.260914 10.5832 0.583352 10.5832H26.0085L18.2542 18.3374C18.0264 18.5653 18.0264 18.9344 18.2542 19.1623C18.3682 19.2762 18.5175 19.3332 18.6667 19.3332C18.8159 19.3332 18.9652 19.2762 19.0792 19.1623L27.8292 10.4123C28.057 10.1844 28.057 9.8153 27.8291 9.58742Z" fill="#B41517"/>
</svg>
