<svg width="28" height="28" viewBox="0 0 28 28" fill="none" xmlns="http://www.w3.org/2000/svg">
<g clip-path="url(#clip0)">
<path d="M0.170898 13.5874L8.9209 4.83742C9.14878 4.60953 9.51792 4.60953 9.74575 4.83742C9.97363 5.0653 9.97363 5.43444 9.74575 5.66227L1.9915 13.4165H27.4166C27.7391 13.4165 28 13.6774 28 13.9999C28 14.3223 27.7391 14.5832 27.4166 14.5832H1.9915L9.74575 22.3374C9.97363 22.5653 9.97363 22.9344 9.74575 23.1623C9.63184 23.2762 9.48254 23.3332 9.3333 23.3332C9.18405 23.3332 9.03481 23.2762 8.92084 23.1623L0.170843 14.4123C-0.0569839 14.1844 -0.0569839 13.8153 0.170898 13.5874Z" fill="#D3888A"/>
</g>
<defs>
<clipPath id="clip0">
<rect width="28" height="28" fill="white" transform="matrix(-1 0 0 1 28 0)"/>
</clipPath>
</defs>
</svg>
