<svg width="16" height="16" viewBox="0 0 16 16" fill="none" xmlns="http://www.w3.org/2000/svg">
<path d="M10.3048 0.5H5.70275C1.49975 0.5 0.5 1.49975 0.5 5.69525V10.2973C0.5 14.4995 1.49225 15.5 5.69525 15.5H10.2973C14.4995 15.5 15.5 14.5078 15.5 10.3048V5.70275C15.5 1.49975 14.5078 0.5 10.3048 0.5ZM12.6095 11.2025H11.5153C11.1013 11.2025 10.9768 10.8673 10.2343 10.1248C9.58625 9.5 9.3125 9.422 9.14825 9.422C8.92175 9.422 8.8595 9.48425 8.8595 9.797V10.781C8.8595 11.0473 8.77325 11.2033 8.078 11.2033C7.40326 11.1579 6.74894 10.9529 6.16895 10.6051C5.58895 10.2574 5.09988 9.77681 4.742 9.203C3.89238 8.1455 3.30121 6.90435 3.0155 5.57825C3.0155 5.414 3.07775 5.2655 3.3905 5.2655H4.484C4.76525 5.2655 4.8665 5.39075 4.97675 5.6795C5.50775 7.2425 6.41375 8.6015 6.78125 8.6015C6.92225 8.6015 6.98375 8.53925 6.98375 8.1875V6.578C6.93725 5.84375 6.54725 5.7815 6.54725 5.516C6.55226 5.44597 6.58435 5.38065 6.63672 5.33388C6.68908 5.28712 6.7576 5.26259 6.82775 5.2655H8.54675C8.7815 5.2655 8.8595 5.3825 8.8595 5.66375V7.83575C8.8595 8.0705 8.96075 8.1485 9.03125 8.1485C9.17225 8.1485 9.281 8.0705 9.539 7.8125C10.0931 7.13671 10.5459 6.38381 10.883 5.5775C10.9175 5.48065 10.9827 5.39773 11.0686 5.34139C11.1546 5.28506 11.2567 5.25841 11.3593 5.2655H12.4535C12.7813 5.2655 12.851 5.42975 12.7813 5.66375C12.3834 6.55507 11.8911 7.40116 11.3128 8.1875C11.195 8.3675 11.1478 8.46125 11.3128 8.672C11.4215 8.83625 11.8048 9.1565 12.0628 9.461C12.4377 9.83498 12.749 10.2677 12.9845 10.742C13.0783 11.0465 12.9215 11.2033 12.6095 11.2033V11.2025Z" fill="#727272"/>
</svg>
