<svg width="30" height="30" viewBox="0 0 30 30" fill="none" xmlns="http://www.w3.org/2000/svg">
    <path d="M18.695 8.25524C18.6949 7.52461 18.4782 6.81042 18.0722 6.20297C17.6662 5.59552 17.0892 5.12209 16.4141 4.84256C15.7391 4.56303 14.9963 4.48994 14.2797 4.63254C13.5632 4.77514 12.905 5.12702 12.3884 5.64369C11.8718 6.16036 11.52 6.81861 11.3775 7.53522C11.235 8.25182 11.3082 8.99458 11.5878 9.66959C11.8674 10.3446 12.3409 10.9215 12.9484 11.3274C13.5559 11.7333 14.2701 11.95 15.0008 11.95C15.9803 11.9488 16.9193 11.5591 17.6119 10.8665C18.3044 10.1738 18.694 9.23474 18.695 8.25524ZM12.1815 8.25524C12.1816 7.69767 12.347 7.15265 12.6569 6.68909C12.9667 6.22553 13.4071 5.86426 13.9222 5.65095C14.4374 5.43765 15.0042 5.38189 15.5511 5.49073C16.0979 5.59956 16.6002 5.86811 16.9945 6.26241C17.3887 6.65671 17.6571 7.15905 17.7659 7.70592C17.8746 8.25279 17.8188 8.81962 17.6054 9.33474C17.392 9.84986 17.0306 10.2901 16.567 10.5999C16.1034 10.9097 15.5583 11.075 15.0008 11.075C14.2532 11.0741 13.5366 10.7768 13.008 10.2481C12.4795 9.71949 12.1822 9.00278 12.1815 8.25524Z" fill="white"/>
    <path d="M29.8328 29.2672L26.2663 19.9172C26.2347 19.8345 26.1786 19.7632 26.1057 19.713C26.0327 19.6627 25.9462 19.6358 25.8575 19.6357H19.1075C19.1488 19.5685 19.1898 19.5032 19.231 19.4357C21.8283 15.1357 23.1353 11.3742 23.1165 8.25723C23.1169 6.10474 22.2622 4.04026 20.7404 2.51796C19.2186 0.995652 17.1544 0.140227 15.0019 0.139862C12.8494 0.139498 10.7849 0.994223 9.26263 2.51601C7.74033 4.0378 6.8849 6.10199 6.88454 8.25449C6.86579 11.3742 8.17279 15.1362 10.77 19.4357C10.8113 19.504 10.8523 19.5692 10.8935 19.6357H4.14354C4.05492 19.6358 3.9684 19.6627 3.89541 19.713C3.82243 19.7632 3.76642 19.8345 3.73479 19.9172L0.168786 29.2672C0.143377 29.3335 0.134479 29.4049 0.142862 29.4754C0.151245 29.5458 0.176655 29.6132 0.216898 29.6716C0.257142 29.73 0.311007 29.7778 0.373841 29.8107C0.436674 29.8437 0.506586 29.8609 0.577536 29.8607H29.424C29.495 29.8609 29.5649 29.8437 29.6277 29.8107C29.6906 29.7778 29.7444 29.73 29.7847 29.6716C29.8249 29.6132 29.8503 29.5458 29.8587 29.4754C29.8671 29.4049 29.8582 29.3335 29.8328 29.2672ZM7.75979 8.25523C7.75995 7.30433 7.94741 6.36278 8.31145 5.48432C8.6755 4.60587 9.209 3.80771 9.88151 3.13544C10.554 2.46317 11.3523 1.92994 12.2309 1.5662C13.1095 1.20245 14.0511 1.01532 15.002 1.01549C15.9529 1.01565 16.8945 1.20311 17.773 1.56715C18.6514 1.9312 19.4496 2.46471 20.1218 3.13721C20.7941 3.80972 21.3273 4.60805 21.6911 5.48663C22.0548 6.36521 22.2419 7.30683 22.2418 8.25773C22.2793 14.4722 16.4693 22.137 15.0008 23.975C13.5323 22.1377 7.72204 14.475 7.75979 8.25523ZM14.6675 24.95C14.7086 24.9983 14.7597 25.0371 14.8172 25.0636C14.8748 25.0902 14.9374 25.104 15.0008 25.104C15.0642 25.104 15.1268 25.0902 15.1844 25.0636C15.2419 25.0371 15.293 24.9983 15.334 24.95C16.4956 23.5349 17.5725 22.0524 18.559 20.5102H25.5558L26.1158 21.979L12.443 26.8417L7.56954 20.5095H11.442C12.4287 22.052 13.5057 23.5347 14.6675 24.95ZM12.4278 27.775H12.4303L20.587 24.875L23.7508 28.9857H9.02579L12.4278 27.775ZM4.44529 20.5095H6.46529L11.5758 27.15L6.41504 28.9855H1.21254L4.44529 20.5095ZM24.856 28.9857L21.4538 24.5652L26.4288 22.796L28.7895 28.9857H24.856Z" fill="white"/>
</svg>
