<svg width="15" height="18" viewBox="0 0 15 18" fill="none" xmlns="http://www.w3.org/2000/svg">
<path d="M11.9877 12.5041H11.0656V11.9508C11.0656 11.6557 11.2131 11.5082 11.5082 11.5082H11.5451C11.8402 11.5082 11.9877 11.6557 11.9877 11.9508V12.5041ZM8.48361 11.3237C8.18853 11.3237 8.04098 11.4467 8.04098 11.6926V14.3115C8.04098 14.5574 8.18853 14.6803 8.48361 14.6803C8.77869 14.6803 8.92623 14.5574 8.92623 14.3115V11.6926C8.92623 11.4467 8.77869 11.3237 8.48361 11.3237ZM14.1639 9.84834V14.8647C14.1639 15.4795 13.9365 15.9959 13.4816 16.4139C13.0266 16.8319 12.4795 17.041 11.8402 17.041H2.32377C1.68443 17.041 1.1373 16.8319 0.682377 16.4139C0.227459 15.9959 0 15.4795 0 14.8647V9.84834C0 9.25817 0.227459 8.74793 0.682377 8.3176C1.1373 7.88727 1.68443 7.67211 2.32377 7.67211H11.8402C12.4795 7.67211 13.0266 7.88727 13.4816 8.3176C13.9365 8.74793 14.1639 9.25817 14.1639 9.84834ZM2.95082 15.418V10.1434H4.13115V9.36883L0.995902 9.33194V10.1065H1.95492V15.418H2.95082ZM6.4918 10.918H5.4959V14.4221C5.44672 14.5451 5.36066 14.625 5.23771 14.6619C5.11475 14.6987 5.01639 14.6311 4.94262 14.459V13.7582L4.90574 10.918H3.94672V14.6065C3.9959 15.0246 4.08197 15.2705 4.20492 15.3442C4.42623 15.4918 4.70287 15.4979 5.03484 15.3627C5.3668 15.2274 5.59426 15.0492 5.71721 14.8278V15.418H6.4918V10.918ZM9.62705 14.1639V11.8033C9.62705 11.336 9.47951 11.0164 9.18443 10.8442C8.88934 10.6721 8.52049 10.7582 8.07787 11.1024V9.36883H7.08197V15.3811H7.89344L7.96721 14.9754C8.48361 15.418 8.89549 15.541 9.20287 15.3442C9.51025 15.1475 9.65164 14.7541 9.62705 14.1639ZM12.7254 13.8319H11.9877V14.3483C11.9877 14.6188 11.8525 14.7541 11.582 14.7541H11.4344C11.1639 14.7541 11.0287 14.6188 11.0287 14.3483V13.2787H12.7254V12.6516C12.7254 12.0123 12.7131 11.6065 12.6885 11.4344C12.6148 11.041 12.3504 10.7951 11.8955 10.6967C11.4406 10.5983 11.0656 10.6598 10.7705 10.8811C10.5738 11.0533 10.4385 11.2377 10.3648 11.4344C10.291 11.6803 10.2541 12.0123 10.2541 12.4303V13.8319C10.2541 14.7418 10.5984 15.2705 11.2869 15.418C11.877 15.541 12.3074 15.3442 12.5779 14.8278C12.75 14.5574 12.7992 14.2254 12.7254 13.8319ZM8.92623 6.23358C8.97541 6.35653 9.06148 6.45489 9.18443 6.52866C9.28279 6.60243 9.41803 6.63932 9.59016 6.63932C9.73771 6.63932 9.86066 6.60243 9.95902 6.52866C10.0574 6.45489 10.1434 6.34424 10.2172 6.1967V6.56555H11.3238V1.88112H10.4385V5.53276C10.4385 5.77866 10.3156 5.90161 10.0697 5.90161C9.84836 5.90161 9.73771 5.77866 9.73771 5.53276V1.88112H8.81557V5.05325C8.81557 5.49588 8.82787 5.76637 8.85246 5.86473C8.85246 5.96309 8.87705 6.08604 8.92623 6.23358ZM5.60656 3.61473C5.60656 3.17211 5.64344 2.81555 5.71721 2.54506C5.79098 2.32375 5.92623 2.12702 6.12295 1.95489C6.31967 1.80735 6.56557 1.73358 6.86066 1.73358C7.13115 1.73358 7.35246 1.78276 7.52459 1.88112C7.69672 1.95489 7.83197 2.07784 7.93033 2.24998C8.02869 2.37293 8.10246 2.53276 8.15164 2.72948C8.17623 2.85243 8.18853 3.11063 8.18853 3.50407V4.6844C8.18853 5.1762 8.17623 5.49588 8.15164 5.64342C8.12705 5.81555 8.05328 5.99998 7.93033 6.1967C7.85656 6.31965 7.72131 6.45489 7.52459 6.60243C7.32787 6.6762 7.13115 6.71309 6.93443 6.71309C6.68852 6.71309 6.46721 6.6762 6.27049 6.60243C6.09836 6.52866 5.96311 6.41801 5.86475 6.27047C5.76639 6.07375 5.70492 5.90161 5.68033 5.75407C5.63115 5.50817 5.60656 5.2008 5.60656 4.83194V3.61473ZM6.45492 5.45899C6.45492 5.58194 6.49795 5.6926 6.58402 5.79096C6.67008 5.88932 6.77459 5.9385 6.89754 5.9385C7.19262 5.9385 7.34016 5.77866 7.34016 5.45899V2.98768C7.34016 2.66801 7.19262 2.50817 6.89754 2.50817C6.60246 2.50817 6.45492 2.66801 6.45492 2.98768V5.45899ZM3.43033 6.71309H4.46311V3.13522L5.68033 0.0737457H4.57377L3.90984 2.36063L3.2459 0.0737457H2.13934L3.43033 3.13522V6.71309Z" fill="white"/>
</svg>
