<svg width="18" height="18" viewBox="0 0 18 18" fill="none" xmlns="http://www.w3.org/2000/svg">
<path d="M11.3048 1.50002H6.70275C2.49975 1.50002 1.5 2.49977 1.5 6.69527V11.2973C1.5 15.4995 2.49225 16.5 6.69525 16.5H11.2973C15.4995 16.5 16.5 15.5078 16.5 11.3048V6.70277C16.5 2.49977 15.5078 1.50002 11.3048 1.50002ZM13.6095 12.2025H12.5153C12.1013 12.2025 11.9768 11.8673 11.2343 11.1248C10.5863 10.5 10.3125 10.422 10.1483 10.422C9.92175 10.422 9.8595 10.4843 9.8595 10.797V11.781C9.8595 12.0473 9.77325 12.2033 9.078 12.2033C8.40326 12.1579 7.74894 11.9529 7.16895 11.6052C6.58895 11.2574 6.09988 10.7768 5.742 10.203C4.89238 9.14552 4.30121 7.90437 4.0155 6.57827C4.0155 6.41402 4.07775 6.26552 4.3905 6.26552H5.484C5.76525 6.26552 5.8665 6.39077 5.97675 6.67952C6.50775 8.24252 7.41375 9.60152 7.78125 9.60152C7.92225 9.60152 7.98375 9.53927 7.98375 9.18752V7.57802C7.93725 6.84377 7.54725 6.78152 7.54725 6.51602C7.55226 6.44599 7.58435 6.38067 7.63672 6.33391C7.68908 6.28714 7.7576 6.26261 7.82775 6.26552H9.54675C9.7815 6.26552 9.8595 6.38252 9.8595 6.66377V8.83577C9.8595 9.07052 9.96075 9.14852 10.0313 9.14852C10.1723 9.14852 10.281 9.07052 10.539 8.81252C11.0931 8.13673 11.5459 7.38383 11.883 6.57752C11.9175 6.48067 11.9827 6.39775 12.0686 6.34142C12.1546 6.28508 12.2567 6.25843 12.3593 6.26552H13.4535C13.7813 6.26552 13.851 6.42977 13.7813 6.66377C13.3834 7.5551 12.8911 8.40118 12.3128 9.18752C12.195 9.36752 12.1478 9.46127 12.3128 9.67202C12.4215 9.83627 12.8048 10.1565 13.0628 10.461C13.4377 10.835 13.749 11.2677 13.9845 11.742C14.0783 12.0465 13.9215 12.2033 13.6095 12.2033V12.2025Z" fill="white"/>
</svg>
