<svg width="29" height="19" viewBox="0 0 29 19" fill="none" xmlns="http://www.w3.org/2000/svg">
<path d="M28.1048 9.02086L19.3676 0.283699C19.1401 0.05615 18.7715 0.05615 18.544 0.283699C18.3165 0.511247 18.3165 0.879846 18.544 1.10734L26.2869 8.85022H0.899024C0.57706 8.85022 0.316528 9.11075 0.316528 9.43271C0.316528 9.75468 0.57706 10.0152 0.899024 10.0152H26.2869L18.544 17.758C18.3165 17.9856 18.3165 18.3542 18.544 18.5817C18.6578 18.6954 18.8068 18.7523 18.9559 18.7523C19.1049 18.7523 19.2539 18.6954 19.3677 18.5817L28.1049 9.84451C28.3324 9.61701 28.3324 9.24841 28.1048 9.02086Z" fill="#B41517"/>
</svg>
