<svg width="24" height="19" viewBox="0 0 24 19" fill="none" xmlns="http://www.w3.org/2000/svg">
<path d="M7.396 0.833128C8.26 1.60113 9.076 2.41713 9.844 3.28113C9.748 3.42513 9.484 3.71313 9.052 4.14513C8.62 4.52913 8.284 4.86513 8.044 5.15313C7.804 5.39313 7.516 5.72913 7.18 6.16113C6.892 6.54513 6.676 6.92913 6.532 7.31313C6.388 7.69713 6.316 8.05713 6.316 8.39313C6.316 8.92113 6.916 9.76113 8.116 10.9131C9.316 12.0171 9.916 13.2411 9.916 14.5851C9.916 15.7851 9.484 16.8171 8.62 17.6811C7.804 18.4971 6.772 18.9051 5.524 18.9051C3.844 18.9051 2.5 18.3051 1.492 17.1051C0.532003 15.9051 0.0520026 14.4651 0.0520026 12.7851C0.0520026 8.36913 2.5 4.38513 7.396 0.833128ZM21.436 0.833128C22.3 1.60113 23.116 2.41713 23.884 3.28113C23.788 3.42513 23.524 3.71313 23.092 4.14513C22.66 4.52913 22.324 4.86513 22.084 5.15313C21.844 5.39313 21.556 5.72913 21.22 6.16113C20.932 6.54513 20.716 6.92913 20.572 7.31313C20.428 7.69713 20.356 8.05713 20.356 8.39313C20.356 8.92113 20.956 9.76113 22.156 10.9131C23.356 12.0171 23.956 13.2411 23.956 14.5851C23.956 15.7851 23.524 16.8171 22.66 17.6811C21.844 18.4971 20.812 18.9051 19.564 18.9051C17.884 18.9051 16.54 18.3051 15.532 17.1051C14.572 15.9051 14.092 14.4651 14.092 12.7851C14.092 8.36913 16.54 4.38513 21.436 0.833128Z" fill="#B41517"/>
</svg>
