<svg width="72" height="77" viewBox="0 0 72 77" fill="none" xmlns="http://www.w3.org/2000/svg">
<path d="M22.2777 61.7335C22.294 61.7718 22.2995 61.7991 22.3159 61.821C23.8008 64.1124 25.2913 66.4039 26.7817 68.6953C26.7981 68.7172 26.8145 68.7391 26.8199 68.75C27.153 68.7391 27.4641 68.7281 27.7753 68.7227C28.627 68.7063 29.4787 68.6953 30.3249 68.6789C30.4123 68.6789 30.5051 68.7008 30.587 68.6297C30.6033 68.4 30.6088 68.1703 30.576 67.9297C30.4723 67.9187 30.3795 67.9023 30.2812 67.8969C29.981 67.8695 29.7407 67.7383 29.5387 67.5141C29.3477 67.3008 29.1675 67.0765 29.0092 66.8359C27.89 65.157 26.7762 63.4781 25.6571 61.7991C25.6025 61.7171 25.5315 61.646 25.5151 61.5311C25.7007 61.4436 25.8864 61.3616 26.072 61.2741C26.5142 61.0608 26.94 60.8093 27.3222 60.4921C28.4687 59.5514 28.7417 58.0475 28.3486 56.8608C28.1029 56.117 27.6115 55.5811 26.8745 55.2857C26.6288 55.1873 26.3777 55.1381 26.1211 55.0943C25.6625 55.0178 25.193 54.9959 24.729 55.0014C24.1175 55.0068 23.5115 55.0232 22.9 55.0287C21.6662 55.0396 20.4269 55.0561 19.1931 55.0561C18.5925 55.0561 17.992 55.0232 17.3914 55.0068C17.3041 55.0068 17.2113 54.9795 17.1348 55.0342C17.0966 55.3186 17.1021 55.6522 17.1512 55.8381C17.184 55.8436 17.2167 55.8545 17.2495 55.8545C17.5225 55.8928 17.8009 55.9201 18.0739 55.9694C18.4669 56.0459 18.5215 56.1334 18.5652 56.467C18.6144 56.7951 18.6471 57.1233 18.6635 57.4569C18.6908 57.9655 18.7072 58.4795 18.7072 58.9881C18.7181 60.3225 18.7345 61.6624 18.729 62.9968C18.7235 64.1781 18.6962 65.3648 18.6635 66.5461C18.658 66.8414 18.6144 67.1367 18.5761 67.4265C18.5543 67.618 18.4396 67.7328 18.2431 67.7547C18.0138 67.782 17.7845 67.8203 17.5552 67.8531C17.4133 67.875 17.2713 67.8859 17.1294 67.9023C17.0857 68.05 17.1021 68.1812 17.1075 68.318C17.1075 68.4602 17.0748 68.6023 17.1458 68.7391C17.386 68.7281 17.6153 68.7172 17.85 68.7117C18.0739 68.7063 18.2977 68.7008 18.5215 68.6953C18.7563 68.6898 18.9856 68.6789 19.2204 68.6734C19.4442 68.668 19.668 68.668 19.8919 68.668C20.1266 68.668 20.3559 68.668 20.5907 68.668C20.8145 68.668 21.0384 68.668 21.2622 68.6734C21.4969 68.6789 21.7262 68.6898 21.961 68.6953C22.1848 68.7008 22.4087 68.7117 22.6325 68.7063C22.8618 68.7008 23.0911 68.7555 23.3149 68.7227C23.3586 68.4328 23.3532 68.0937 23.304 67.9078C23.2549 67.9023 23.2003 67.8969 23.1457 67.8859C22.8454 67.8531 22.5397 67.8312 22.2394 67.782C21.8518 67.7164 21.7754 67.5633 21.7426 67.2515C21.7262 67.0984 21.7044 66.9508 21.6989 66.7976C21.6553 66.0211 21.6116 65.239 21.5843 64.457C21.5461 63.5273 21.5406 62.5921 21.5734 61.6569C21.6116 60.5358 21.6225 59.4147 21.6498 58.2936C21.6662 57.6756 21.6771 57.0576 21.6935 56.4397C21.6935 56.3522 21.6717 56.2592 21.7372 56.1772C21.8627 56.1608 21.9992 56.1279 22.1302 56.1225C22.4141 56.1061 22.7035 56.1061 22.9874 56.1006C23.3204 56.0897 23.648 56.1389 23.9701 56.2264C24.7781 56.4451 25.3186 56.9483 25.537 57.7631C25.668 58.2444 25.668 58.742 25.5806 59.2288C25.4605 59.896 25.122 60.421 24.5761 60.8202C24.0192 61.2249 23.4187 61.4601 22.7253 61.389C22.6871 61.3835 22.6544 61.3835 22.6161 61.3835C22.5452 61.3835 22.4742 61.3835 22.4032 61.3835C22.365 61.5312 22.3159 61.6351 22.2777 61.7335Z" fill="white"/>
<path d="M57.8828 58.2028C57.9749 58.2296 58.0074 58.3047 58.0507 58.3637C58.923 59.4847 59.8332 60.5789 60.7543 61.6623C62.4609 63.6683 64.1838 65.6582 65.9338 67.6213C66.1613 67.8788 66.3943 68.1362 66.6273 68.3883C66.6814 68.4473 66.7302 68.501 66.8223 68.5117C67.1366 68.56 67.4508 68.6136 67.7704 68.6672C67.9438 68.6941 68.1226 68.7262 68.296 68.7477C68.3989 68.7638 68.491 68.6941 68.5019 68.5921C68.5073 68.5224 68.5019 68.4527 68.5019 68.383C68.4585 67.0635 68.4369 65.7441 68.4477 64.4246C68.4694 62.1451 68.4802 59.8655 68.5019 57.5914C68.5073 57.2481 68.529 56.9048 68.5452 56.5615C68.5452 56.5079 68.5506 56.4543 68.5615 56.406C68.6211 56.1324 68.7619 55.993 69.0437 55.9501C69.2008 55.9233 69.3633 55.9125 69.5204 55.8911C69.7372 55.8643 69.9593 55.8535 70.1706 55.816C70.2139 55.5371 70.2085 55.1992 70.1597 55.0222C70.0568 55.0222 69.9484 55.0168 69.8455 55.0222C69.6938 55.0275 69.5421 55.0436 69.3958 55.049C68.1605 55.0651 66.9253 55.1026 65.69 55.0168C65.6304 55.0114 65.5708 55.0275 65.4949 55.0329C65.4949 55.1777 65.4895 55.3118 65.4949 55.4405C65.5003 55.5693 65.4624 55.7034 65.5329 55.8321C65.5816 55.8374 65.625 55.8428 65.6683 55.8482C66.015 55.8804 66.3564 55.9125 66.7031 55.9501C66.974 55.9823 67.0715 56.0573 67.1149 56.3148C67.1636 56.6098 67.1962 56.9048 67.2124 57.2052C67.2395 57.7844 67.2612 58.3637 67.2612 58.9483C67.272 60.8203 67.272 62.6975 67.272 64.5694C67.272 64.607 67.2883 64.6606 67.2287 64.6928C67.1528 64.6552 67.0986 64.5855 67.0444 64.5212C66.3347 63.722 65.6087 62.9335 64.9152 62.1236C62.9539 59.8387 61.0252 57.5216 59.156 55.1616C59.1126 55.108 59.0639 55.0544 59.0205 55.0007C58.8146 55.0168 58.625 55.0329 58.43 55.0383C57.9261 55.049 57.4168 55.0651 56.913 55.0597C56.3549 55.0544 55.7915 55.0275 55.2334 55.0114C55.1305 55.0061 55.0221 54.9793 54.93 55.0329C54.8867 55.3708 54.8975 55.6551 54.9571 55.8267C55.1576 55.8482 55.358 55.8696 55.5585 55.8964C55.786 55.9286 56.0136 55.9608 56.2411 56.0037C56.4633 56.0466 56.5662 56.1968 56.6041 56.406C56.6096 56.4382 56.615 56.4757 56.615 56.5133C56.6312 56.8404 56.6583 57.1623 56.6637 57.4894C56.6746 58.0419 56.6692 58.5997 56.6692 59.1522C56.6746 60.9114 56.6962 62.6707 56.6583 64.43C56.6421 65.0897 56.6258 65.7494 56.6041 66.4092C56.5933 66.6612 56.5608 66.9187 56.5175 67.1654C56.4795 67.4014 56.3332 67.5355 56.084 67.5623C55.8836 67.5838 55.6777 67.6052 55.4772 67.6267C55.3905 67.6374 55.2984 67.6428 55.2117 67.6535C55.1196 67.6642 55.0167 67.6482 54.9137 67.6911C54.9029 67.9539 54.8867 68.2113 54.9192 68.4634C54.9463 68.4795 54.9517 68.4849 54.9571 68.4849C55.5151 68.4634 56.0732 68.4473 56.6312 68.4259C57.5902 68.3937 58.5492 68.4473 59.5081 68.4849C59.519 68.4849 59.5244 68.4795 59.5352 68.4742C59.5406 68.4688 59.5461 68.4634 59.5569 68.4527C59.6002 68.1952 59.5948 67.8573 59.5406 67.6642C59.3889 67.6482 59.2318 67.6374 59.0693 67.616C58.8309 67.5838 58.5925 67.557 58.3595 67.5141C58.1103 67.4712 58.029 67.38 57.9965 67.1332C57.9749 66.9777 57.9532 66.8168 57.9478 66.6612C57.9261 66.1249 57.9044 65.5885 57.8936 65.0522C57.8503 62.8531 57.8503 60.654 57.8557 58.4549C57.8557 58.3959 57.8557 58.3315 57.8611 58.2725C57.8557 58.2511 57.8719 58.2296 57.8828 58.2028Z" fill="white"/>
<path d="M37.7624 55.0219C37.6605 54.9891 37.5533 55.0109 37.4515 55.0109C37.1942 55.0219 36.9422 55.0383 36.6903 55.0438C35.7523 55.0492 34.8089 55.0602 33.8708 55.0547C33.1955 55.0492 32.5201 55.0219 31.8393 55.0055C31.7375 55.0055 31.6303 54.9836 31.5016 55.0273C31.5123 55.2953 31.4802 55.5579 31.5231 55.8259C31.5928 55.8368 31.641 55.8423 31.6946 55.8478C32.0376 55.886 32.3753 55.9134 32.7184 55.9571C33.0561 56.0009 33.174 56.1322 33.1901 56.4822C33.2115 56.8869 33.2276 57.2862 33.2383 57.6909C33.2491 58.1996 33.2437 58.7137 33.2544 59.2224C33.3027 61.6617 33.2919 64.101 33.233 66.5404C33.2276 66.7537 33.2062 66.9725 33.1847 67.1858C33.174 67.2897 33.1472 67.3991 33.1097 67.4975C33.0668 67.6343 32.9757 67.7272 32.831 67.7491C32.5898 67.7874 32.3485 67.8257 32.102 67.8585C31.9144 67.8804 31.7214 67.8858 31.5177 67.9241C31.4963 68.1976 31.4909 68.4601 31.5231 68.7117C31.5499 68.7281 31.5552 68.7391 31.5606 68.7391C33.6135 68.6898 35.6719 68.6297 37.7248 68.75C37.7302 68.75 37.7409 68.7445 37.7463 68.7391C37.7516 68.7336 37.7624 68.7281 37.7677 68.7227C37.8106 68.5148 37.8106 68.1484 37.7677 67.9077C37.6015 67.8913 37.4247 67.8804 37.2531 67.8585C37.0173 67.8312 36.7814 67.8038 36.5509 67.7655C36.3473 67.7327 36.2133 67.6124 36.1865 67.3991C36.1489 67.1311 36.1007 66.8685 36.0953 66.6005C36.0685 65.8458 36.0471 65.0965 36.0471 64.3417C36.0364 62.6188 36.0364 60.896 36.0417 59.1786C36.0471 58.4457 36.0739 57.7073 36.1007 56.9744C36.106 56.7721 36.1436 56.5642 36.1757 56.3619C36.2186 56.1212 36.3633 55.99 36.6045 55.9626C36.7814 55.9462 36.953 55.9243 37.1298 55.9024C37.3443 55.8806 37.564 55.8532 37.7731 55.8313C37.8106 55.6071 37.8106 55.2352 37.7624 55.0219Z" fill="white"/>
<path d="M38.2732 73.8899C38.4813 73.8626 38.6785 73.8735 38.8756 73.8681C39.0618 73.8626 39.2534 73.8626 39.4396 73.8681C39.6313 73.8735 39.8284 73.8353 40.0201 73.8953C40.0201 74.1845 40.0201 74.4628 40.0201 74.7356C40.0201 74.7793 40.0091 74.8229 39.9982 74.8666C39.9817 74.9375 39.9379 74.9757 39.8668 74.9812C39.7791 74.9921 39.686 74.9921 39.5984 75.003C39.5163 75.0139 39.4999 75.063 39.5272 75.1394C39.5491 75.1503 39.5765 75.1667 39.5984 75.1667C40.1789 75.1667 40.7648 75.1667 41.3453 75.1612C41.3617 75.1612 41.3726 75.1448 41.4 75.1285C41.3945 75.0957 41.3891 75.0521 41.3781 75.0084C41.2796 75.003 41.1865 74.9975 41.0988 74.9866C40.94 74.9702 40.9072 74.9321 40.8908 74.7629C40.8908 74.752 40.8908 74.7465 40.8908 74.7356C40.8908 74.1191 40.8908 73.5025 40.8908 72.8859C40.8908 72.8041 40.8908 72.7222 40.9619 72.6404C41.0715 72.6295 41.1919 72.6186 41.3179 72.5967C41.3453 72.5913 41.3836 72.5586 41.3945 72.5313C41.4055 72.504 41.3891 72.4658 41.3836 72.4331C41.3453 72.4276 41.3179 72.4167 41.296 72.4167C40.721 72.4167 40.146 72.4167 39.5711 72.4221C39.5546 72.4221 39.5382 72.4331 39.5218 72.444C39.5108 72.5695 39.5163 72.5913 39.593 72.6022C39.7134 72.6186 39.8394 72.6349 39.9434 72.6459C40.031 72.755 40.0201 72.8696 40.0256 72.9732C40.031 73.0824 40.031 73.186 40.031 73.2952C40.0256 73.3988 40.0529 73.5079 40.0037 73.6007C39.6368 73.6607 38.5525 73.6498 38.2678 73.5843C38.2404 73.3388 38.2513 73.0878 38.2787 72.8423C38.2842 72.7768 38.3116 72.7113 38.3335 72.6459C38.4649 72.6295 38.5854 72.6186 38.6949 72.6022C38.7223 72.5967 38.7606 72.5695 38.7716 72.5422C38.7825 72.5149 38.7716 72.4767 38.7716 72.444C38.7332 72.4331 38.7113 72.4221 38.6839 72.4221C38.109 72.4221 37.534 72.4221 36.959 72.4221C36.9426 72.4221 36.9262 72.4331 36.9043 72.444C36.9043 72.4822 36.9043 72.5258 36.9043 72.5804C37.0576 72.6022 37.2054 72.624 37.3588 72.6513C37.3697 72.7059 37.3861 72.7495 37.3861 72.7932C37.3861 73.4479 37.3916 74.0972 37.3916 74.752C37.3916 74.7847 37.3861 74.8229 37.3807 74.8557C37.3642 74.9211 37.3204 74.9702 37.2547 74.9757C37.1671 74.9866 37.074 74.9866 36.9864 74.9975C36.8988 75.0084 36.8878 75.063 36.9097 75.1394C36.9316 75.1503 36.9535 75.1667 36.9809 75.1667C37.5614 75.1667 38.1473 75.1612 38.7278 75.1612C38.7442 75.1612 38.7551 75.1448 38.7716 75.1339C38.788 75.063 38.7716 75.0139 38.6894 75.003C38.569 74.9866 38.4375 75.0139 38.328 74.9375C38.2513 74.6865 38.2349 74.3537 38.2732 73.8899Z" fill="white"/>
<path d="M14.8652 72.6511C14.8762 72.7274 14.8926 72.7765 14.8926 72.831C14.8926 73.4579 14.8981 74.0794 14.8981 74.7063C14.8981 74.7445 14.8981 74.7772 14.8926 74.8154C14.8762 74.9298 14.8379 74.9734 14.7229 74.9843C14.6408 74.9953 14.5587 74.9898 14.4821 75.0007C14.4 75.0116 14.3891 75.0661 14.4219 75.1424C14.4438 75.1479 14.4657 75.1642 14.4931 75.1642C15.0568 75.1642 15.6205 75.1642 16.1897 75.1642C16.2226 75.1642 16.2499 75.1424 16.2773 75.1315C16.2992 75.0389 16.2609 75.0007 16.1843 74.9953C16.0639 74.9844 15.9325 75.0062 15.8285 74.9298C15.7464 74.6409 15.73 74.1176 15.7957 73.894C16.0748 73.8559 17.2789 73.8559 17.5033 73.894C17.558 74.2429 17.5361 74.7281 17.4431 74.9571C17.3884 74.968 17.3281 74.9843 17.2679 74.9898C17.2077 74.9953 17.1421 74.9953 17.0819 75.0007C17.0271 75.0062 16.9998 75.0443 17.0107 75.0934C17.0162 75.1206 17.049 75.1533 17.0764 75.1588C17.1475 75.1697 17.2187 75.1642 17.2898 75.1642C17.7277 75.1642 18.171 75.1642 18.6089 75.1642C18.6691 75.1642 18.7347 75.1697 18.7949 75.1642C18.8989 75.1588 18.9099 75.1261 18.8552 75.0007C18.7621 74.9953 18.6581 74.9898 18.5651 74.9789C18.4501 74.9625 18.4064 74.9189 18.4009 74.8045C18.3899 74.7172 18.3899 74.6245 18.3899 74.5373C18.3899 74.0031 18.3899 73.4634 18.3954 72.9291C18.3954 72.831 18.3845 72.7329 18.472 72.6402C18.576 72.6293 18.691 72.6184 18.8059 72.602C18.8552 72.5966 18.8935 72.5748 18.8989 72.5257C18.9044 72.493 18.888 72.4603 18.877 72.4167C18.275 72.4167 17.6839 72.4167 17.0928 72.4167C17.0654 72.4167 17.0435 72.433 17.0107 72.4439C17.0162 72.4876 17.0162 72.5312 17.0217 72.5911C17.1366 72.602 17.2406 72.6129 17.3446 72.6238C17.4595 72.6402 17.4978 72.6729 17.5142 72.7928C17.5361 72.9237 17.5307 73.4307 17.5033 73.6106C17.2242 73.6433 16.9341 73.6324 16.6495 73.6324C16.3594 73.6269 16.0639 73.6487 15.7574 73.5888C15.7628 73.2671 15.73 72.9618 15.823 72.6566C15.9763 72.5911 16.1405 72.6457 16.2718 72.5639C16.2718 72.5257 16.2773 72.4985 16.2773 72.4767C16.2773 72.4603 16.2609 72.4494 16.2445 72.4221C15.6534 72.4221 15.0513 72.4221 14.4548 72.4221C14.4383 72.4221 14.4274 72.4385 14.4 72.4548C14.4055 72.493 14.4055 72.5312 14.411 72.5857C14.5587 72.6075 14.701 72.6293 14.8652 72.6511Z" fill="white"/>
<path d="M24.3209 75.1404C24.3408 75.1458 24.3607 75.1621 24.3857 75.1621C24.8842 75.1621 25.3826 75.1621 25.8811 75.1621C25.911 75.1621 25.936 75.1404 25.9609 75.1295C25.9708 75.0587 25.9609 75.0043 25.9011 74.9989C25.8363 74.988 25.7715 74.9934 25.7067 74.9825C25.582 74.9662 25.5521 74.9336 25.5372 74.7975C25.5222 74.6451 25.4973 74.4927 25.5023 74.3458C25.5122 73.8124 25.5272 73.2736 25.5422 72.7402C25.5422 72.7239 25.5571 72.7076 25.5621 72.6912C25.7615 72.6259 25.9659 72.6586 26.1653 72.6912C26.2301 72.7021 26.2899 72.7348 26.3497 72.762C26.6588 72.9144 26.6388 73.3661 26.3647 73.5403C26.2051 73.6382 26.0406 73.7035 25.8512 73.6981C25.7964 73.6981 25.7366 73.6763 25.7017 73.7416C25.7017 73.7634 25.6967 73.7852 25.7067 73.7961C26.0955 74.2532 26.4893 74.705 26.8781 75.1512C27.1323 75.1785 27.7155 75.1676 27.9 75.1349C27.9 75.0968 27.895 75.0533 27.895 75.0043C27.7255 75.0043 27.6059 74.9118 27.5062 74.792C27.222 74.4709 26.9379 74.1553 26.6538 73.8342C26.6288 73.8069 26.6189 73.7689 26.5989 73.7253C26.6837 73.6927 26.7585 73.6709 26.8233 73.6437C26.893 73.6165 26.9578 73.5784 27.0227 73.5403C27.1423 73.475 27.242 73.3824 27.3068 73.2573C27.4165 73.0504 27.3816 72.811 27.2171 72.6477C27.1273 72.5552 27.0177 72.4899 26.893 72.4735C26.6986 72.4518 26.5042 72.4191 26.3098 72.4191C25.6967 72.4137 25.0835 72.4191 24.4704 72.4191C24.4255 72.4191 24.3757 72.43 24.3308 72.4354C24.3209 72.5769 24.3258 72.5933 24.4006 72.6096C24.4903 72.6259 24.5751 72.6368 24.6499 72.6531C24.7246 72.7511 24.7246 72.8491 24.7246 72.947C24.7246 73.5348 24.7246 74.1226 24.7246 74.7158C24.7246 74.7431 24.7246 74.7703 24.7197 74.7975C24.7047 74.9336 24.6748 74.9716 24.5552 74.988C24.5003 74.9989 24.4405 74.9934 24.3857 75.0043C24.2959 75.0097 24.281 75.0642 24.3209 75.1404Z" fill="white"/>
<path d="M50.3875 72.4315C50.1884 72.4315 50.0079 72.4261 49.8274 72.4315C49.6422 72.4368 49.4524 72.3887 49.2719 72.4422C49.2811 72.5705 49.2858 72.5865 49.3367 72.5972C49.4385 72.6186 49.545 72.6293 49.6376 72.6454C49.707 72.7523 49.7024 72.8593 49.7024 72.9609C49.7024 73.2496 49.707 73.5384 49.7024 73.8271C49.6977 73.9768 49.6839 74.1265 49.67 74.2709C49.6515 74.4741 49.5542 74.6025 49.3969 74.6934C49.2256 74.795 49.0451 74.8056 48.8645 74.8163C48.6377 74.8324 48.4109 74.8056 48.1979 74.6987C48.0452 74.6238 47.948 74.5009 47.9248 74.3084C47.911 74.2068 47.9017 74.0998 47.9017 73.9929C47.9063 73.6186 47.9202 73.2389 47.9295 72.8646C47.9295 72.8272 47.9341 72.7951 47.9387 72.7577C47.9526 72.6721 47.9804 72.64 48.0544 72.624C48.1424 72.6079 48.2304 72.5972 48.3276 72.5812C48.3276 72.5224 48.3276 72.485 48.3276 72.4422C48.2998 72.4315 48.2813 72.4208 48.2581 72.4208C47.7952 72.4208 47.3323 72.4208 46.8694 72.4208C46.8463 72.4208 46.8278 72.4315 46.8 72.4422C46.8 72.485 46.8 72.5277 46.8 72.5652C46.8787 72.6293 46.9666 72.6133 47.0453 72.624C47.1333 72.64 47.1657 72.6668 47.1796 72.7737C47.1888 72.8432 47.1935 72.9127 47.1935 72.9822C47.1981 73.2282 47.1981 73.4742 47.1981 73.7202C47.1981 73.9234 47.1935 74.1212 47.1935 74.3244C47.1935 74.6185 47.3184 74.827 47.5453 74.9447C47.6888 75.0195 47.8369 75.0837 47.9989 75.1158C48.3229 75.18 48.6516 75.1746 48.9756 75.1479C49.1793 75.1318 49.3783 75.0677 49.5681 74.9661C49.8042 74.8377 49.957 74.6345 49.994 74.3297C50.0079 74.2068 50.0171 74.0838 50.0171 73.9661C50.0264 73.64 50.0264 73.3191 50.0357 72.9929C50.0403 72.87 50.0403 72.747 50.119 72.6347C50.1884 72.624 50.2625 72.6079 50.3366 72.5919C50.406 72.5812 50.4106 72.5598 50.3875 72.4315Z" fill="white"/>
<path d="M35.0424 72.4602C34.9925 72.4439 34.9676 72.4276 34.9364 72.4276C33.845 72.4221 32.7473 72.4167 31.6559 72.4167C31.606 72.4167 31.5561 72.4276 31.5 72.433C31.5 72.482 31.5 72.5256 31.5 72.5746C31.6185 72.6236 31.7432 72.6182 31.8617 72.629C31.9865 72.6454 32.0176 72.6726 32.0301 72.7815C32.0364 72.8414 32.0364 72.9067 32.0426 72.9666C32.0738 73.5384 32.0551 74.1101 32.0301 74.6818C32.0176 74.8833 32.0364 74.9758 31.7557 75.0357C31.6996 75.0466 31.6746 75.0847 31.7183 75.1555C31.7994 75.1555 31.8867 75.161 31.9802 75.161C32.3295 75.161 32.6725 75.1555 33.0217 75.1555C33.5643 75.1555 34.1069 75.161 34.6495 75.1664C34.768 75.1664 34.8927 75.1718 35.03 75.1337C35.0362 74.9105 35.136 74.7036 35.0861 74.4803C34.8553 74.4694 34.8553 74.4694 34.793 74.611C34.7555 74.7036 34.7493 74.8016 34.662 74.8724C34.0633 74.9323 33.3336 74.9377 33.0779 74.8833C33.0093 74.6655 32.9968 74.1482 33.0529 73.8868C33.3523 73.8324 33.976 73.8433 34.2379 73.9032C34.2691 73.9903 34.3003 74.0828 34.3314 74.1809C34.3751 74.1863 34.4188 74.1918 34.4562 74.1918C34.4936 74.1918 34.5373 74.1809 34.5809 74.1754C34.6246 74.0284 34.5934 73.8868 34.5996 73.7453C34.5996 73.6037 34.6183 73.4621 34.5996 73.3314C34.4936 73.277 34.4125 73.277 34.3314 73.326C34.3003 73.4131 34.2691 73.4948 34.2441 73.571C33.951 73.6473 33.4583 73.6527 33.0467 73.5928C32.9968 73.3641 33.0155 72.9176 33.0841 72.6889C33.1465 72.6835 33.2213 72.6672 33.2899 72.6672C33.6579 72.6726 34.0258 72.6726 34.3938 72.6835C34.5871 72.6889 34.6869 72.6889 34.6869 72.934C34.6869 72.9666 34.7056 72.9993 34.7244 73.0483C34.8117 73.0429 34.8865 73.0374 34.9676 73.032C34.9863 72.8251 35.0175 72.6399 35.0424 72.4602Z" fill="white"/>
<path d="M54.2065 75.1449C54.3117 75.1503 54.386 75.1612 54.4664 75.1612C55.2277 75.1612 55.989 75.1667 56.7503 75.1667C56.9421 75.1667 57.134 75.1667 57.3259 75.1612C57.3939 75.1612 57.462 75.1449 57.5425 75.1285C57.5239 74.9048 57.6291 74.703 57.592 74.4903C57.3506 74.4685 57.3568 74.4685 57.2949 74.6048C57.2578 74.6976 57.2454 74.7957 57.1711 74.8721C56.8245 74.9157 55.9456 74.943 55.6486 74.9157C55.6238 74.9157 55.5991 74.8939 55.5557 74.8721C55.5248 74.7085 55.5248 74.5394 55.531 74.3703C55.5372 74.2066 55.4938 74.0321 55.5619 73.8739C55.9333 73.8357 56.4717 73.8466 56.7441 73.8957C56.7626 73.9666 56.7812 74.043 56.806 74.1193C56.8121 74.1412 56.8369 74.163 56.8493 74.1848C56.8926 74.1848 56.9359 74.1903 56.9731 74.1903C57.0102 74.1848 57.0473 74.1739 57.0907 74.163C57.0907 74.0102 57.0969 73.8684 57.0907 73.7266C57.0845 73.5848 57.134 73.4429 57.0597 73.2957C56.9793 73.3011 56.8988 73.3011 56.8307 73.3066C56.7874 73.4157 56.7564 73.5029 56.7255 73.5848C56.3665 73.6557 55.8281 73.6557 55.5248 73.5793C55.5124 73.2902 55.5186 72.9957 55.5557 72.712C55.6052 72.6956 55.63 72.6793 55.6548 72.6793C56.1004 72.6356 56.546 72.6629 56.9916 72.6956C57.1154 72.7065 57.1402 72.7338 57.1587 72.8484C57.1649 72.892 57.1649 72.9356 57.1773 72.9793C57.1773 72.9957 57.1959 73.012 57.2083 73.0338C57.2763 73.0338 57.3506 73.0338 57.4434 73.0338C57.4434 72.8265 57.5425 72.6465 57.5053 72.4393C57.2021 72.4011 56.905 72.4229 56.6141 72.4229C56.3294 72.4229 56.0447 72.4283 55.76 72.4283C55.4629 72.4283 55.172 72.4283 54.8749 72.4338C54.584 72.4393 54.2931 72.3902 54.0084 72.4447C53.9898 72.532 53.996 72.592 54.0889 72.6029C54.1755 72.6193 54.2684 72.6193 54.3612 72.6302C54.5036 72.6465 54.5283 72.6738 54.5407 72.8047C54.5469 72.8429 54.5469 72.8756 54.5469 72.9138C54.584 73.5193 54.5654 74.1303 54.5345 74.7357C54.5345 74.7739 54.5283 74.8067 54.5221 74.8448C54.5159 74.9212 54.4726 74.9758 54.386 75.003C54.3364 75.0139 54.2498 75.0194 54.2065 75.1449Z" fill="white"/>
<path d="M53.7752 72.6087C53.7603 72.5929 53.7504 72.5771 53.7404 72.5719C53.7057 72.5561 53.666 72.5403 53.6264 72.5245C53.2841 72.4297 52.9369 72.4086 52.5897 72.4192C52.3615 72.4244 52.1383 72.4718 51.92 72.5403C51.7464 72.5982 51.5976 72.6983 51.4786 72.8457C51.1958 73.1986 51.3 73.6725 51.7018 73.841C51.8307 73.8937 51.9647 73.9306 52.0986 73.9569C52.2722 73.9885 52.4557 73.9938 52.6293 74.0201C52.7881 74.0464 52.9518 74.078 53.1006 74.136C53.3188 74.2202 53.3783 74.4993 53.2246 74.6942C53.1899 74.7416 53.1452 74.7784 53.0956 74.81C52.9815 74.8785 52.8625 74.9312 52.7285 74.947C52.4409 74.9786 52.1631 74.9522 51.8903 74.8416C51.7117 74.7679 51.5728 74.6626 51.5976 74.4256C51.5976 74.4098 51.5976 74.3887 51.5926 74.3729C51.5877 74.3571 51.5728 74.3466 51.5579 74.3203C51.5034 74.3255 51.4438 74.3255 51.3744 74.3308C51.3496 74.552 51.3248 74.7626 51.3 74.9786C51.4587 75.0312 51.6026 75.0839 51.7563 75.1155C52.1036 75.1787 52.4508 75.1734 52.8029 75.1523C53.0212 75.1365 53.2345 75.0786 53.4379 74.9838C53.5966 74.9101 53.7355 74.81 53.8496 74.6679C54.0728 74.3887 54.0877 73.8621 53.6164 73.6673C53.4726 73.6093 53.3238 73.5725 53.17 73.5514C52.9121 73.5251 52.6541 73.4829 52.3962 73.4461C52.3268 73.4355 52.2524 73.4145 52.1829 73.3881C51.9498 73.2776 51.9101 72.9984 52.1036 72.8247C52.1631 72.772 52.2375 72.7246 52.3119 72.7035C52.6244 72.614 52.9418 72.6298 53.2494 72.7404C53.3734 72.7825 53.4577 72.8668 53.4527 73.0248C53.4527 73.0669 53.4627 73.109 53.4676 73.1406C53.547 73.1828 53.6164 73.188 53.6859 73.1406C53.7156 72.9616 53.7454 72.7878 53.7752 72.6087Z" fill="white"/>
<path d="M31.2779 72.6111C31.2531 72.59 31.2432 72.5742 31.2283 72.5689C31.1439 72.5426 31.0594 72.5162 30.9701 72.4951C30.4586 72.3844 29.9521 72.3844 29.4505 72.5373C29.2568 72.5953 29.093 72.7007 28.9639 72.8642C28.6907 73.2122 28.795 73.671 29.1873 73.845C29.3115 73.903 29.4505 73.9399 29.5846 73.961C29.7584 73.9926 29.9421 73.9979 30.1159 74.0242C30.2748 74.0506 30.4387 74.077 30.5877 74.135C30.8211 74.2246 30.8807 74.5094 30.7168 74.7045C30.687 74.7414 30.6473 74.7783 30.6076 74.8046C30.4884 74.8785 30.3593 74.9365 30.2202 74.947C29.9521 74.9734 29.6889 74.947 29.4257 74.8521C29.2072 74.773 29.0731 74.6465 29.093 74.3881C29.093 74.3723 29.0781 74.3617 29.0681 74.3406C29.0036 74.3143 28.9341 74.3037 28.8695 74.3512C28.8447 74.5621 28.8199 74.7625 28.8 74.9734C28.944 75.0314 29.0781 75.0788 29.2221 75.1105C29.5796 75.179 29.9372 75.1737 30.2897 75.1527C30.5182 75.1368 30.7367 75.0788 30.9502 74.9734C31.1091 74.8943 31.2481 74.7941 31.3574 74.6517C31.5759 74.367 31.5809 73.8397 31.1041 73.6604C30.9701 73.6077 30.8211 73.576 30.6771 73.555C30.4188 73.5128 30.1606 73.4864 29.9024 73.4442C29.8229 73.4337 29.7385 73.4126 29.669 73.3757C29.4455 73.2649 29.4108 73.0013 29.5896 72.822C29.674 72.7376 29.7783 72.6902 29.8925 72.6691C29.9819 72.6533 30.0712 72.6375 30.1606 72.6375C30.3493 72.6322 30.5331 72.6533 30.7118 72.7166C30.8558 72.764 30.9552 72.8484 30.9502 73.0277C30.9502 73.0593 30.9601 73.0962 30.9651 73.1278C31.0346 73.1806 31.1041 73.1806 31.1836 73.1384C31.2134 72.9749 31.2432 72.8009 31.2779 72.6111Z" fill="white"/>
<path d="M22.2662 61.7062C22.3045 61.6077 22.3536 61.5038 22.4028 61.3835C22.4738 61.3835 22.5448 61.3835 22.6158 61.3835C22.654 61.3835 22.6867 61.3835 22.725 61.389C23.424 61.4601 24.0247 61.2249 24.5763 60.8202C25.1224 60.421 25.461 59.8905 25.5812 59.2288C25.6685 58.7366 25.6685 58.2444 25.5375 57.7631C25.3136 56.9483 24.7729 56.4451 23.9701 56.2264C23.6479 56.1389 23.3202 56.0897 22.9871 56.1006C22.7031 56.1115 22.4137 56.1115 22.1297 56.1225C21.9986 56.1279 21.8621 56.1608 21.7365 56.1772C21.671 56.2592 21.6928 56.3576 21.6928 56.4397C21.6764 57.0576 21.66 57.6756 21.6491 58.2936C21.6218 59.4147 21.6109 60.5358 21.5727 61.6569C21.5399 62.5921 21.5454 63.5218 21.5836 64.457C21.6164 65.239 21.66 66.0156 21.6983 66.7976C21.7037 66.9508 21.7256 67.0984 21.742 67.2515C21.7747 67.5633 21.8512 67.7164 22.2389 67.782C22.5393 67.8312 22.8451 67.8531 23.1455 67.8859C23.2001 67.8914 23.2492 67.8969 23.3039 67.9078C23.353 68.0937 23.3585 68.4328 23.3148 68.7227C23.0909 68.7555 22.8615 68.7008 22.6321 68.7063C22.4082 68.7117 22.1843 68.7008 21.9604 68.6953C21.7256 68.6898 21.4962 68.6789 21.2614 68.6734C21.0375 68.668 20.8136 68.668 20.5897 68.668C20.3548 68.668 20.1255 68.668 19.8906 68.668C19.6667 68.668 19.4428 68.668 19.2189 68.6734C18.9841 68.6789 18.7547 68.6898 18.5199 68.6953C18.296 68.7008 18.0721 68.7063 17.8482 68.7117C17.6133 68.7172 17.384 68.7281 17.1437 68.7391C17.0727 68.6023 17.1109 68.4602 17.1054 68.318C17.1054 68.1867 17.0836 68.05 17.1273 67.9023C17.2693 67.8859 17.4113 67.8695 17.5533 67.8531C17.7826 67.8203 18.012 67.782 18.2414 67.7547C18.438 67.7273 18.5526 67.6125 18.5745 67.4265C18.6127 67.1312 18.6564 66.8414 18.6619 66.5461C18.6892 65.3648 18.7219 64.1781 18.7274 62.9968C18.7329 61.6624 18.7165 60.3225 18.7056 58.9881C18.7001 58.4795 18.6837 57.9655 18.6619 57.4569C18.6455 57.1287 18.6073 56.7951 18.5636 56.467C18.5144 56.1334 18.4653 56.0459 18.0721 55.9693C17.799 55.9201 17.5205 55.8928 17.2474 55.8545C17.2147 55.849 17.1764 55.8436 17.1491 55.8381C17.0945 55.6576 17.0891 55.324 17.1327 55.0342C17.2147 54.9795 17.302 55.0068 17.3894 55.0068C17.9901 55.0232 18.5909 55.0561 19.1916 55.0561C20.4258 55.0561 21.6655 55.0396 22.8997 55.0287C23.5114 55.0232 24.1176 55.0068 24.7292 55.0014C25.1934 54.9959 25.6631 55.0178 26.1218 55.0943C26.3785 55.1381 26.6297 55.1873 26.8755 55.2857C27.6127 55.5811 28.1042 56.117 28.35 56.8608C28.7432 58.0475 28.4701 59.5514 27.3233 60.4921C26.941 60.8093 26.5205 61.0554 26.0727 61.2741C25.887 61.3616 25.7013 61.4436 25.5156 61.5312C25.5266 61.646 25.603 61.7171 25.6576 61.7991C26.7717 63.4781 27.8912 65.157 29.0108 66.8359C29.1692 67.0765 29.3494 67.2953 29.5405 67.514C29.7426 67.7383 29.9829 67.8695 30.2832 67.8969C30.3815 67.9078 30.4744 67.9187 30.5781 67.9297C30.6109 68.1703 30.6 68.4 30.5891 68.6297C30.5071 68.7008 30.4143 68.6789 30.3269 68.6789C29.475 68.6953 28.623 68.7063 27.7766 68.7227C27.4653 68.7281 27.154 68.7391 26.8208 68.75C26.8099 68.7391 26.7935 68.7172 26.7826 68.6953C25.2917 66.4039 23.8063 64.1124 22.3154 61.821C22.2881 61.7718 22.2826 61.7444 22.2662 61.7062Z" fill="black"/>
<path d="M46.5027 55C47.1615 55.0319 47.8093 55.0478 48.446 55.1487C49.221 55.2708 49.9684 55.462 50.666 55.8125C52.338 56.6515 53.4065 57.9473 53.8162 59.7262C53.9933 60.4909 54.021 61.2609 53.9878 62.0363C53.9546 62.7532 53.8328 63.4541 53.6002 64.1392C52.9912 65.9075 51.812 67.2033 50.0626 68.0104C49.5864 68.2282 49.0882 68.3875 48.5733 68.5043C47.8536 68.6636 47.1283 68.7433 46.392 68.7486C45.6557 68.7592 44.9249 68.7114 44.1996 68.5839C43.1145 68.3981 42.1014 68.0423 41.21 67.405C40.0972 66.6032 39.3775 65.5411 39.0011 64.256C38.763 63.4435 38.6855 62.6151 38.7021 61.776C38.7132 61.0751 38.7962 60.3847 38.9955 59.7103C39.4883 58.0375 40.5125 56.7684 42.1014 55.9187C42.5775 55.6638 43.0868 55.4832 43.6128 55.3452C44.3159 55.1646 45.0356 55.069 45.7609 55.0372C46.0155 55.0319 46.2647 55.0106 46.5027 55ZM50.9428 61.9991C50.9539 61.2397 50.8875 60.4697 50.7103 59.705C50.5497 59.0093 50.2951 58.3562 49.8965 57.7508C49.6584 57.395 49.3816 57.0764 49.0273 56.8215C48.4017 56.3701 47.682 56.1523 46.9069 56.0886C46.4917 56.0515 46.0764 56.0515 45.6557 56.0833C45.2737 56.1099 44.8972 56.1842 44.5429 56.3117C43.6073 56.6409 42.9152 57.241 42.4557 58.0906C42.201 58.558 42.046 59.0571 41.9353 59.5669C41.808 60.1776 41.7581 60.7883 41.7526 61.4096C41.7415 62.3071 41.808 63.2045 42.046 64.0754C42.2619 64.8561 42.5941 65.5889 43.1035 66.2368C43.4578 66.6881 43.8896 67.0546 44.4266 67.2988C44.9526 67.5378 45.5117 67.644 46.082 67.6865C46.5359 67.7184 46.9899 67.7184 47.4384 67.6334C47.7318 67.5803 48.0197 67.5059 48.2965 67.3891C49.0439 67.0758 49.6197 66.5713 50.0459 65.9128C50.4224 65.334 50.6328 64.7021 50.7657 64.0383C50.9041 63.3745 50.9539 62.6947 50.9428 61.9991Z" fill="black"/>
<path d="M57.8892 58.2025C57.8784 58.2293 57.8622 58.2508 57.8622 58.2723C57.8567 58.3313 57.8567 58.3956 57.8567 58.4546C57.8513 60.654 57.8513 62.8534 57.8947 65.0528C57.9055 65.5892 57.9272 66.1257 57.9488 66.6621C57.9542 66.8177 57.9759 66.9786 57.9976 67.1342C58.0355 67.3809 58.1167 67.4721 58.3605 67.515C58.5934 67.558 58.8317 67.5848 59.07 67.617C59.2271 67.6384 59.3842 67.6491 59.5413 67.6652C59.5954 67.8584 59.6008 68.1963 59.5575 68.4538C59.5521 68.4592 59.5467 68.4699 59.5358 68.4753C59.5304 68.4806 59.5196 68.486 59.5088 68.486C58.55 68.4484 57.5913 68.3894 56.6326 68.427C56.0747 68.4484 55.5168 68.4645 54.9589 68.486C54.9535 68.486 54.9427 68.4806 54.921 68.4645C54.8885 68.2178 54.8993 67.9549 54.9156 67.6921C55.0185 67.6492 55.116 67.6652 55.2135 67.6545C55.3002 67.6438 55.3922 67.6384 55.4789 67.6277C55.6793 67.6062 55.8851 67.5848 56.0855 67.5633C56.3293 67.5365 56.481 67.4024 56.5189 67.1664C56.5622 66.9142 56.5947 66.6621 56.6055 66.41C56.6326 65.7502 56.6489 65.0904 56.6597 64.4305C56.6976 62.671 56.6759 60.9115 56.6705 59.152C56.6705 58.5995 56.6705 58.0416 56.6651 57.4891C56.6597 57.1618 56.6326 56.84 56.6164 56.5127C56.6164 56.4752 56.6109 56.443 56.6055 56.4055C56.573 56.1963 56.4647 56.0407 56.2426 56.0031C56.0151 55.9602 55.7876 55.928 55.5602 55.8958C55.3597 55.869 55.1539 55.8476 54.9589 55.8261C54.8993 55.6545 54.8939 55.3648 54.9318 55.0322C55.0293 54.9839 55.1322 55.0107 55.2352 55.0107C55.7931 55.0268 56.3564 55.0536 56.9143 55.059C57.418 55.0644 57.9272 55.0483 58.4309 55.0376C58.6259 55.0322 58.8209 55.0107 59.0213 55C59.07 55.0536 59.1134 55.1073 59.1567 55.1609C61.0254 57.5212 62.9482 59.8386 64.9144 62.1239C65.6131 62.9339 66.3335 63.7224 67.0431 64.5217C67.0972 64.5861 67.1514 64.6558 67.2272 64.6934C67.2868 64.6558 67.2706 64.6076 67.2706 64.57C67.2706 62.6978 67.2652 60.8203 67.2597 58.9482C67.2543 58.3688 67.2381 57.7895 67.211 57.2048C67.1947 56.9043 67.1622 56.6093 67.1135 56.3143C67.0702 56.0514 66.9781 55.9763 66.7018 55.9495C66.3552 55.9119 66.0139 55.8798 65.6673 55.8476C65.624 55.8422 65.5806 55.8368 65.5319 55.8315C65.4615 55.7027 65.4994 55.5686 65.494 55.4399C65.4885 55.3111 65.494 55.177 65.494 55.0322C65.5698 55.0268 65.6294 55.0107 65.689 55.0161C66.9239 55.1019 68.1589 55.0644 69.3938 55.0483C69.5455 55.0483 69.6971 55.0322 69.8434 55.0215C69.9463 55.0161 70.0546 55.0215 70.1575 55.0215C70.2063 55.1985 70.2171 55.5364 70.1684 55.8154C69.9571 55.8583 69.7351 55.869 69.5184 55.8905C69.3613 55.9066 69.1988 55.9227 69.0418 55.9495C68.7655 55.9924 68.6193 56.1372 68.5597 56.4055C68.5489 56.4591 68.5434 56.5074 68.5434 56.561C68.5272 56.9043 68.5001 57.2477 68.5001 57.591C68.4784 59.8708 68.4676 62.1507 68.4459 64.4252C68.4351 65.7448 68.4568 67.0644 68.5001 68.3841C68.5001 68.4538 68.5055 68.5235 68.5001 68.5933C68.4893 68.6952 68.3972 68.7596 68.2943 68.7488C68.121 68.7274 67.9422 68.6952 67.7689 68.6684C67.4547 68.6147 67.1406 68.5611 66.821 68.5128C66.7289 68.5021 66.6802 68.4431 66.626 68.3894C66.3931 68.1373 66.1656 67.8798 65.9327 67.6223C64.1778 65.659 62.4553 63.6688 60.7545 61.6625C59.8337 60.5789 58.9238 59.4846 58.0517 58.3634C58.0138 58.3098 57.9813 58.2293 57.8892 58.2025Z" fill="black"/>
<path d="M6.21064 67.894C6.23207 68.1884 6.23207 68.4447 6.21064 68.7118C6.10349 68.7555 5.99634 68.7336 5.89455 68.7282C4.8927 68.6628 3.89085 68.6791 2.88901 68.69C2.66935 68.69 2.44969 68.7118 2.23004 68.7227C2.10146 68.7282 1.96752 68.75 1.83894 68.7282C1.79072 68.5319 1.78537 68.183 1.83358 67.9158C1.97824 67.8777 2.1336 67.8668 2.28897 67.8504C2.41755 67.8341 2.55149 67.8123 2.68006 67.7959C2.84615 67.7686 2.97473 67.6814 3.05509 67.5342C3.18367 67.2998 3.3176 67.0653 3.42475 66.8254C3.79978 65.9695 4.18016 65.1135 4.52839 64.2466C5.72847 61.2698 6.91783 58.293 8.11254 55.3162C8.1554 55.2126 8.18219 55.0927 8.26791 55C8.70722 55 9.15725 55 9.59656 55C9.68228 55.0818 9.70907 55.1908 9.74657 55.289C10.5502 57.2299 11.3538 59.1763 12.1574 61.1172C12.8271 62.731 13.4914 64.3448 14.1665 65.9586C14.3433 66.3838 14.5469 66.8036 14.7397 67.2234C14.7719 67.2943 14.8201 67.3652 14.8522 67.4361C14.9487 67.6541 15.1255 67.7577 15.3398 67.7959C15.4791 67.8232 15.6184 67.8395 15.7577 67.8559C15.8862 67.8722 16.0202 67.8886 16.1434 67.9049C16.213 68.0958 16.2184 68.4883 16.1595 68.7227C16.1541 68.7282 16.1488 68.7391 16.138 68.7391C16.1113 68.7445 16.0845 68.75 16.0577 68.75C14.1022 68.6573 12.1414 68.6846 10.1859 68.7391C10.1805 68.7391 10.1698 68.7282 10.1484 68.7118C10.1216 68.461 10.127 68.1994 10.1484 67.9158C10.3734 67.8831 10.5931 67.8722 10.8127 67.8559C10.9788 67.845 11.1449 67.8286 11.311 67.8014C11.5628 67.7577 11.6538 67.6269 11.611 67.3652C11.5949 67.2616 11.5628 67.158 11.5253 67.0544C11.2306 66.2693 10.9359 65.4842 10.6413 64.7046C10.6252 64.6664 10.5984 64.6283 10.577 64.5956C10.1752 64.5356 5.93205 64.541 5.6106 64.601C5.59453 64.6337 5.56774 64.6719 5.55167 64.7101C5.26237 65.457 4.96771 66.2039 4.76948 66.9835C4.74269 67.0762 4.72126 67.1744 4.70519 67.2725C4.66769 67.5124 4.75876 67.6869 4.98914 67.7359C5.21951 67.785 5.45524 67.8123 5.69096 67.8395C5.85705 67.8613 6.02313 67.8722 6.21064 67.894ZM9.96087 63.4506C10.0091 63.4452 10.0573 63.4288 10.127 63.407C9.45191 61.7496 8.78223 60.1085 8.09647 58.4457C7.98932 58.5384 7.97325 58.6256 7.9411 58.7074C7.61966 59.4979 7.29821 60.2939 6.98212 61.0899C6.69817 61.7932 6.41422 62.4965 6.13028 63.1998C6.10349 63.2707 6.04992 63.3361 6.08206 63.4288C6.24278 63.467 6.39815 63.4779 6.55888 63.4779" fill="#B41517"/>
<path d="M37.7639 55.0185C37.812 55.2318 37.812 55.6036 37.7639 55.8333C37.5551 55.8552 37.3357 55.8771 37.1216 55.9044C36.945 55.9263 36.7737 55.9482 36.5971 55.9646C36.3562 55.9919 36.2063 56.1232 36.1689 56.3638C36.1368 56.5661 36.0993 56.7684 36.0939 56.9763C36.0672 57.709 36.0404 58.4473 36.0351 59.1801C36.0297 60.9027 36.0297 62.6252 36.0404 64.3424C36.0458 65.097 36.0618 65.8462 36.0886 66.6009C36.0993 66.8688 36.1475 67.1368 36.1796 67.3993C36.2117 67.6125 36.3401 67.7329 36.5435 67.7657C36.779 67.8039 37.0092 67.8313 37.2447 67.8586C37.416 67.8805 37.5926 67.8914 37.7585 67.9078C37.8013 68.1485 37.8013 68.5149 37.7585 68.7227C37.7532 68.7281 37.7478 68.7336 37.7371 68.7391C37.7318 68.7445 37.721 68.75 37.7157 68.75C35.6657 68.6297 33.6104 68.6898 31.5605 68.7391C31.5551 68.7391 31.5444 68.7281 31.523 68.7117C31.4909 68.4602 31.5016 68.1977 31.5177 67.9243C31.7157 67.886 31.9084 67.8805 32.1011 67.8586C32.3419 67.8313 32.5882 67.7875 32.829 67.7493C32.9735 67.7274 33.0645 67.6344 33.1073 67.4977C33.1394 67.3938 33.1662 67.2899 33.1823 67.186C33.2037 66.9727 33.2251 66.7595 33.2304 66.5407C33.2947 64.1018 33.3054 61.6628 33.2518 59.2238C33.2411 58.7152 33.2465 58.2012 33.2358 57.6926C33.2251 57.288 33.209 56.8888 33.1876 56.4841C33.1716 56.1286 33.0538 55.9974 32.7166 55.9591C32.3794 55.9154 32.0369 55.888 31.6943 55.8497C31.6408 55.8443 31.5926 55.8388 31.523 55.8279C31.4802 55.5599 31.5123 55.2919 31.5016 55.0295C31.6301 54.9857 31.7371 55.0021 31.8388 55.0076C32.5132 55.024 33.1876 55.0513 33.8674 55.0568C34.804 55.0623 35.746 55.0513 36.6827 55.0459C36.9396 55.0459 37.1912 55.024 37.4427 55.013C37.5605 55.0076 37.6622 54.9857 37.7639 55.0185Z" fill="black"/>
<path d="M38.2678 73.8899C38.2294 74.3537 38.2459 74.6865 38.328 74.9375C38.4321 75.0139 38.5635 74.9866 38.6894 75.003C38.7716 75.0139 38.7935 75.063 38.7716 75.1339C38.7551 75.1448 38.7442 75.1612 38.7278 75.1612C38.1473 75.1667 37.5614 75.1667 36.9809 75.1667C36.959 75.1667 36.9316 75.1503 36.9097 75.1394C36.8878 75.063 36.8988 75.0084 36.9864 74.9975C37.074 74.9866 37.1671 74.9866 37.2547 74.9757C37.3259 74.9648 37.3642 74.9211 37.3807 74.8557C37.3861 74.8229 37.3916 74.7847 37.3916 74.752C37.3916 74.0972 37.3916 73.4479 37.3861 72.7932C37.3861 72.7495 37.3697 72.7059 37.3588 72.6513C37.2054 72.6295 37.0576 72.6077 36.9043 72.5804C36.9043 72.5258 36.9043 72.4822 36.9043 72.444C36.9262 72.4331 36.9426 72.4221 36.959 72.4221C37.534 72.4221 38.109 72.4221 38.6839 72.4221C38.7113 72.4221 38.7332 72.4331 38.7716 72.444C38.7716 72.4767 38.788 72.5149 38.7716 72.5422C38.7606 72.5695 38.7223 72.5967 38.6949 72.6022C38.5799 72.624 38.4649 72.6295 38.3335 72.6459C38.3171 72.7113 38.2897 72.7768 38.2787 72.8423C38.2513 73.0878 38.2404 73.3388 38.2678 73.5843C38.5525 73.6498 39.6368 73.6553 40.0037 73.6007C40.0475 73.5079 40.0256 73.3988 40.031 73.2952C40.0365 73.186 40.031 73.0824 40.0256 72.9732C40.0201 72.8696 40.0365 72.755 39.9434 72.6459C39.8394 72.6349 39.7134 72.6186 39.593 72.6022C39.5163 72.5913 39.5108 72.5695 39.5218 72.444C39.5382 72.4385 39.5546 72.4221 39.5711 72.4221C40.146 72.4221 40.721 72.4167 41.296 72.4167C41.3234 72.4167 41.3453 72.4276 41.3836 72.4331C41.3891 72.4658 41.4055 72.504 41.3946 72.5313C41.3836 72.5586 41.3507 72.5913 41.3179 72.5967C41.1974 72.6186 41.0715 72.6295 40.9619 72.6404C40.8908 72.7222 40.8908 72.8041 40.8908 72.8859C40.8908 73.5025 40.8908 74.1191 40.8908 74.7356C40.8908 74.7465 40.8908 74.752 40.8908 74.7629C40.9017 74.9266 40.94 74.9702 41.0988 74.9866C41.1865 74.9975 41.2741 74.9975 41.3781 75.0084C41.3836 75.0575 41.3945 75.0957 41.4 75.1285C41.3726 75.1448 41.3562 75.1612 41.3453 75.1612C40.7648 75.1612 40.1789 75.1667 39.5984 75.1667C39.5711 75.1667 39.5491 75.1503 39.5272 75.1394C39.4999 75.063 39.5163 75.0084 39.5984 75.003C39.686 74.9921 39.7791 74.9921 39.8668 74.9812C39.9379 74.9757 39.9818 74.9321 39.9982 74.8666C40.0091 74.8229 40.0201 74.7793 40.0201 74.7356C40.0201 74.4573 40.0201 74.1845 40.0201 73.8953C39.8339 73.8353 39.6368 73.879 39.4396 73.8681C39.2534 73.8626 39.0618 73.8626 38.8756 73.8681C38.673 73.8735 38.4759 73.8626 38.2678 73.8899Z" fill="black"/>
<path d="M14.8654 72.6456C14.7011 72.6238 14.5588 72.602 14.411 72.5857C14.4055 72.5366 14.4 72.493 14.4 72.4548C14.4219 72.4385 14.4383 72.4221 14.4548 72.4221C15.057 72.4221 15.6537 72.4221 16.2449 72.4221C16.2613 72.4494 16.2778 72.4603 16.2778 72.4767C16.2832 72.5039 16.2778 72.5257 16.2723 72.5639C16.1409 72.6456 15.9712 72.5911 15.8234 72.6566C15.7303 72.9564 15.7632 73.2671 15.7577 73.5888C16.0643 73.6487 16.3599 73.6324 16.65 73.6324C16.9347 73.6324 17.2248 73.6433 17.504 73.6106C17.5314 73.4307 17.5369 72.9237 17.515 72.7928C17.4931 72.6729 17.4602 72.6402 17.3453 72.6238C17.2413 72.6129 17.1318 72.602 17.0223 72.5911C17.0168 72.5312 17.0113 72.4876 17.0113 72.4439C17.0442 72.433 17.0716 72.4167 17.0935 72.4167C17.6847 72.4167 18.2759 72.4167 18.8781 72.4167C18.8891 72.4603 18.9 72.493 18.9 72.5257C18.8946 72.5802 18.8508 72.5966 18.807 72.602C18.692 72.6184 18.577 72.6293 18.473 72.6402C18.38 72.7329 18.3964 72.8365 18.3964 72.9291C18.3909 73.4634 18.3909 74.0031 18.3909 74.5373C18.3909 74.6245 18.3909 74.7172 18.4019 74.8044C18.4128 74.9189 18.4566 74.9625 18.5661 74.9789C18.6646 74.9898 18.7632 74.9953 18.8562 75.0007C18.911 75.1261 18.9 75.1588 18.796 75.1642C18.7358 75.1697 18.6701 75.1642 18.6099 75.1642C18.1719 75.1642 17.7285 75.1642 17.2905 75.1642C17.2194 75.1642 17.1482 75.1642 17.077 75.1588C17.0497 75.1533 17.0168 75.1206 17.0113 75.0934C17.0004 75.0443 17.0332 75.0062 17.0825 75.0007C17.1427 74.9953 17.2084 74.9953 17.2686 74.9898C17.3289 74.9843 17.3891 74.968 17.4438 74.9571C17.5369 74.7281 17.5588 74.2429 17.504 73.894C17.2796 73.8559 16.0697 73.8559 15.796 73.894C15.7303 74.1176 15.7467 74.6409 15.8289 74.9298C15.9274 75.0116 16.0588 74.9844 16.1847 74.9953C16.2613 75.0062 16.2997 75.0389 16.2778 75.1315C16.2559 75.1424 16.223 75.1642 16.1902 75.1642C15.6263 75.1642 15.0624 75.1642 14.4931 75.1642C14.4657 75.1642 14.4438 75.1479 14.4219 75.1424C14.3836 75.0661 14.3945 75.0116 14.4821 75.0007C14.5643 74.9898 14.6409 74.9953 14.723 74.9843C14.838 74.9734 14.8763 74.9298 14.8927 74.8154C14.8982 74.7826 14.8982 74.7445 14.8982 74.7063C14.8982 74.0794 14.8982 73.4579 14.8927 72.831C14.8927 72.7765 14.8763 72.722 14.8654 72.6456Z" fill="black"/>
<path d="M24.3216 75.1458C24.2816 75.0696 24.2966 75.0206 24.3716 75.0043C24.4267 74.9934 24.4867 74.9934 24.5418 74.988C24.6619 74.9716 24.6919 74.9335 24.707 74.7975C24.712 74.7703 24.712 74.7431 24.712 74.7158C24.712 74.1281 24.712 73.5403 24.712 72.947C24.712 72.8491 24.717 72.7511 24.6369 72.6531C24.5618 72.6422 24.4717 72.6314 24.3867 72.6096C24.3166 72.5933 24.3116 72.5769 24.3166 72.4354C24.3616 72.43 24.4117 72.4191 24.4567 72.4191C25.0723 72.4191 25.6879 72.4137 26.3035 72.4191C26.4987 72.4191 26.6938 72.4518 26.889 72.4735C27.0141 72.4899 27.1242 72.5552 27.2143 72.6477C27.3795 72.811 27.4145 73.0504 27.3044 73.2573C27.2394 73.3879 27.1393 73.475 27.0192 73.5403C26.9541 73.5784 26.889 73.611 26.819 73.6437C26.7489 73.6709 26.6788 73.6981 26.5937 73.7253C26.6138 73.7634 26.6288 73.8069 26.6488 73.8342C26.9341 74.1553 27.2193 74.4764 27.5046 74.792C27.6097 74.9063 27.7248 75.0043 27.895 75.0043C27.9 75.0533 27.9 75.0968 27.9 75.1349C27.7148 75.1676 27.1293 75.1785 26.874 75.1512C26.4886 74.705 26.0933 74.2532 25.6979 73.7961C25.6879 73.7852 25.6979 73.7634 25.6929 73.7416C25.7279 73.6763 25.793 73.6981 25.843 73.6981C26.0282 73.6981 26.1984 73.6382 26.3585 73.5403C26.6338 73.3661 26.6538 72.9144 26.3435 72.762C26.2835 72.7348 26.2234 72.6967 26.1583 72.6912C25.9581 72.6586 25.7529 72.6259 25.5528 72.6912C25.5427 72.713 25.5327 72.7239 25.5327 72.7402C25.5177 73.2736 25.5027 73.8124 25.4927 74.3458C25.4927 74.4981 25.5127 74.6505 25.5277 74.7975C25.5428 74.9335 25.5728 74.9662 25.6979 74.9825C25.763 74.9934 25.828 74.988 25.8931 74.9989C25.9581 75.0097 25.9682 75.0587 25.9531 75.1295C25.9281 75.1404 25.9031 75.1621 25.8731 75.1621C25.3726 75.1621 24.8721 75.1621 24.3716 75.1621C24.3616 75.1676 24.3416 75.1512 24.3216 75.1458Z" fill="black"/>
<path d="M43.594 75.1667C43.334 75.1406 43.0684 75.1249 42.8083 75.0936C42.5261 75.057 42.2661 74.963 42.0226 74.8273C41.2203 74.3886 41.1982 73.3338 41.9286 72.8429C42.1388 72.7019 42.3657 72.5975 42.6147 72.5401C43.334 72.3782 44.0533 72.373 44.7671 72.5401C44.9773 72.5871 45.1765 72.6758 45.3591 72.7907C46.0839 73.2189 46.0009 74.1119 45.5749 74.5348C45.3812 74.7228 45.1599 74.8638 44.8999 74.9578C44.5845 75.0779 44.258 75.1353 43.9205 75.1458C43.8098 75.151 43.7047 75.1458 43.594 75.1458C43.594 75.151 43.594 75.1562 43.594 75.1667ZM43.7047 74.9421C43.915 74.9578 44.1474 74.9212 44.3631 74.8325C44.6675 74.7071 44.8611 74.5035 44.9441 74.2006C45.0105 73.9448 45.016 73.6941 44.9441 73.4382C44.8224 73.0153 44.5347 72.7594 44.081 72.6863C43.7877 72.6393 43.4834 72.6288 43.1901 72.6863C42.7364 72.7698 42.4432 72.9996 42.3436 73.4173C42.2938 73.6367 42.2882 73.8612 42.3491 74.0805C42.4487 74.4722 42.6921 74.7489 43.1127 74.8742C43.2953 74.9212 43.4834 74.9421 43.7047 74.9421Z" fill="black"/>
<path d="M21.5399 75.1667C21.3365 75.1458 21.1376 75.1249 20.9343 75.0936C20.7044 75.0571 20.4878 74.9632 20.2845 74.8171C19.6568 74.3735 19.6436 73.3351 20.2182 72.8498C20.3906 72.7037 20.5807 72.5941 20.784 72.5367C21.341 72.3802 21.9024 72.375 22.4637 72.5315C22.6494 72.5837 22.8174 72.6776 22.9765 72.7976C23.5114 73.2099 23.476 73.9717 23.2196 74.4048C23.1135 74.5822 22.9765 74.7231 22.8174 74.8275C22.53 75.0206 22.2162 75.1145 21.8847 75.1354C21.7697 75.1458 21.6548 75.1354 21.5355 75.1354C21.5399 75.151 21.5399 75.1615 21.5399 75.1667ZM21.6327 74.9632C21.8272 74.9579 22.0084 74.9214 22.1853 74.8275C22.4107 74.7075 22.561 74.5144 22.6273 74.2326C22.6892 73.9665 22.6936 73.6952 22.6317 73.4238C22.5389 73.0116 22.309 72.7663 21.9554 72.6881C21.7123 72.6359 21.4647 72.6254 21.2216 72.6881C20.8326 72.782 20.6116 73.0377 20.5497 73.476C20.5232 73.6691 20.5232 73.8674 20.563 74.0604C20.6514 74.4883 20.8636 74.7701 21.2305 74.8849C21.3586 74.9266 21.4957 74.9371 21.6327 74.9632Z" fill="black"/>
<path d="M50.3875 72.4315C50.4106 72.5598 50.406 72.5812 50.3366 72.5919C50.2625 72.6079 50.1884 72.6186 50.119 72.6347C50.0357 72.747 50.0357 72.87 50.0357 72.9929C50.0264 73.3191 50.0264 73.64 50.0171 73.9661C50.0125 74.0891 50.0079 74.2121 49.994 74.3297C49.957 74.6345 49.8042 74.8377 49.5681 74.9661C49.3783 75.0677 49.1839 75.1318 48.9756 75.1479C48.6516 75.1746 48.3229 75.18 47.9989 75.1158C47.8415 75.0837 47.6888 75.0249 47.5453 74.9447C47.3184 74.827 47.1935 74.6185 47.1935 74.3244C47.1935 74.1212 47.1981 73.9234 47.1981 73.7202C47.1981 73.4742 47.1981 73.2282 47.1935 72.9822C47.1935 72.9127 47.1888 72.8432 47.1796 72.7737C47.1657 72.6721 47.1333 72.6454 47.0453 72.624C46.9666 72.6079 46.8787 72.6293 46.8 72.5652C46.8 72.5277 46.8 72.485 46.8 72.4422C46.8278 72.4315 46.8463 72.4208 46.8694 72.4208C47.3323 72.4208 47.7952 72.4208 48.2581 72.4208C48.2813 72.4208 48.2998 72.4315 48.3276 72.4422C48.3276 72.485 48.3276 72.5277 48.3276 72.5812C48.2304 72.5972 48.1424 72.6079 48.0544 72.624C47.9758 72.64 47.948 72.6775 47.9387 72.7577C47.9341 72.7897 47.9341 72.8272 47.9295 72.8646C47.9202 73.2389 47.9063 73.6186 47.9017 73.9929C47.9017 74.0998 47.911 74.2014 47.9248 74.3084C47.948 74.5009 48.0452 74.6185 48.1979 74.6987C48.4109 74.8056 48.6377 74.8324 48.8645 74.8163C49.0451 74.8056 49.2256 74.795 49.3969 74.6934C49.5496 74.6025 49.6515 74.4741 49.67 74.2709C49.6839 74.1212 49.7024 73.9768 49.7024 73.8271C49.707 73.5384 49.7024 73.2496 49.7024 72.9609C49.7024 72.8593 49.707 72.747 49.6376 72.6454C49.545 72.6293 49.4385 72.6186 49.3367 72.5972C49.2858 72.5865 49.2811 72.5705 49.2719 72.4422C49.457 72.3887 49.6422 72.4368 49.8274 72.4315C50.0079 72.4261 50.1884 72.4315 50.3875 72.4315Z" fill="black"/>
<path d="M35.0549 72.4657C35.0237 72.6454 34.9988 72.8305 34.9676 73.032C34.8865 73.0374 34.8117 73.0429 34.7244 73.0483C34.7119 72.9993 34.6869 72.9666 34.6869 72.934C34.6869 72.6889 34.5934 72.6889 34.3938 72.6835C34.0258 72.678 33.6579 72.6726 33.2899 72.6672C33.2213 72.6672 33.1527 72.6835 33.0841 72.6889C33.0155 72.9176 32.9968 73.3696 33.0467 73.5928C33.4583 73.6527 33.951 73.6473 34.2441 73.571C34.2691 73.4948 34.3003 73.4131 34.3314 73.326C34.4125 73.277 34.4998 73.277 34.5996 73.3314C34.6246 73.4621 34.5996 73.6037 34.5996 73.7453C34.5996 73.8868 34.6308 74.0284 34.5809 74.1754C34.5373 74.1809 34.4936 74.1918 34.4562 74.1918C34.4188 74.1918 34.3751 74.1863 34.3314 74.1809C34.3003 74.0829 34.2691 73.9903 34.2379 73.9032C33.976 73.8433 33.3523 73.8378 33.0529 73.8868C32.9968 74.1482 33.0093 74.6709 33.0779 74.8833C33.3336 74.9377 34.0633 74.9323 34.662 74.8724C34.7493 74.8016 34.7555 74.7036 34.793 74.611C34.8553 74.4749 34.8491 74.4749 35.0861 74.4803C35.136 74.7036 35.0362 74.9105 35.03 75.1337C34.8927 75.1718 34.7743 75.1664 34.6495 75.1664C34.1069 75.1664 33.5643 75.161 33.0217 75.1555C32.6725 75.1555 32.3295 75.161 31.9802 75.161C31.8929 75.161 31.7994 75.1555 31.7183 75.1555C31.6746 75.0902 31.7058 75.0521 31.7557 75.0357C32.0364 74.9704 32.0176 74.8833 32.0301 74.6818C32.0613 74.1101 32.0738 73.5384 32.0426 72.9666C32.0364 72.9067 32.0364 72.8414 32.0301 72.7815C32.0176 72.6726 31.9802 72.6454 31.8617 72.629C31.7432 72.6127 31.6185 72.6236 31.5 72.5746C31.5 72.5256 31.5 72.482 31.5 72.433C31.5561 72.4276 31.606 72.4167 31.6559 72.4167C32.7473 72.4167 33.845 72.4221 34.9364 72.4276C34.9801 72.4276 35.0112 72.4494 35.0549 72.4657Z" fill="black"/>
<path d="M54.1879 75.1558C54.2312 75.0302 54.3179 75.0247 54.386 75.0029C54.4726 74.9756 54.5159 74.921 54.5221 74.8446C54.5283 74.8064 54.5283 74.7736 54.5345 74.7354C54.5654 74.1295 54.584 73.5181 54.5469 72.9122C54.5469 72.874 54.5469 72.8412 54.5407 72.803C54.5221 72.672 54.4974 72.6447 54.3612 72.6283C54.2684 72.6174 54.1817 72.6119 54.0889 72.601C53.996 72.5846 53.9898 72.5246 54.0084 72.4427C54.2931 72.3881 54.584 72.4372 54.8749 72.4318C55.172 72.4263 55.4629 72.4263 55.76 72.4263C56.0447 72.4263 56.3294 72.4209 56.6141 72.4209C56.905 72.4209 57.2021 72.4045 57.5053 72.4372C57.5425 72.6447 57.4434 72.8303 57.4434 73.0323C57.3506 73.0323 57.2763 73.0323 57.2083 73.0323C57.1897 73.005 57.1773 72.994 57.1773 72.9777C57.1711 72.934 57.1711 72.8903 57.1587 72.8467C57.1402 72.732 57.1154 72.7047 56.9916 72.6938C56.546 72.6611 56.1004 72.6338 55.6548 72.6774C55.6238 72.6829 55.5991 72.6938 55.5557 72.7102C55.5186 72.9995 55.5124 73.2888 55.5248 73.5781C55.8342 73.6546 56.3665 73.66 56.7255 73.5836C56.7564 73.5017 56.7936 73.4144 56.8307 73.3052C56.8988 73.2997 56.9793 73.2997 57.0597 73.2943C57.1278 73.4471 57.0845 73.5891 57.0907 73.7255C57.0968 73.8675 57.0907 74.0094 57.0907 74.1622C57.0473 74.1732 57.0102 74.1841 56.9731 74.1895C56.9359 74.195 56.8926 74.1841 56.8493 74.1841C56.8307 74.1622 56.8121 74.1404 56.806 74.1186C56.7812 74.0421 56.7626 73.9657 56.7441 73.8948C56.4779 73.8456 55.9333 73.8347 55.5619 73.8729C55.4938 74.0312 55.531 74.2005 55.531 74.3697C55.5248 74.5389 55.531 74.7081 55.5557 74.8719C55.5991 74.8937 55.6238 74.9156 55.6486 74.9156C55.9457 74.9429 56.8245 74.9156 57.1711 74.8719C57.2454 74.8009 57.2578 74.6972 57.2949 74.6044C57.3506 74.4679 57.3506 74.4679 57.592 74.4898C57.6291 74.7027 57.5239 74.9101 57.5425 75.1285C57.462 75.1394 57.3939 75.1558 57.3259 75.1612C57.134 75.1667 56.9421 75.1667 56.7503 75.1667C55.989 75.1667 55.2277 75.1667 54.4664 75.1612C54.3674 75.1721 54.2931 75.1612 54.1879 75.1558Z" fill="black"/>
<path d="M53.7752 72.6139C53.7454 72.7876 53.7156 72.9665 53.6859 73.1402C53.6164 73.1929 53.547 73.1876 53.4676 73.1402C53.4627 73.1034 53.4478 73.0613 53.4527 73.0244C53.4627 72.8665 53.3783 72.7823 53.2494 72.7402C52.9418 72.6297 52.6293 72.6192 52.3119 72.7034C52.2375 72.7244 52.1631 72.7718 52.1036 72.8244C51.9101 72.9981 51.9498 73.2771 52.1829 73.3876C52.2474 73.4192 52.3218 73.435 52.3962 73.4455C52.6541 73.4823 52.9121 73.5244 53.17 73.5508C53.3238 73.5665 53.4726 73.6034 53.6164 73.6665C54.0877 73.856 54.0728 74.3876 53.8496 74.6666C53.7355 74.8087 53.5966 74.9087 53.4379 74.9824C53.2345 75.0824 53.0212 75.1403 52.8029 75.1508C52.4557 75.1718 52.1036 75.1824 51.7563 75.1139C51.6026 75.0876 51.4587 75.0297 51.3 74.9771C51.3248 74.7613 51.3496 74.5508 51.3744 74.3297C51.4438 74.3244 51.5034 74.3245 51.5579 74.3192C51.5778 74.3455 51.5877 74.356 51.5926 74.3718C51.5976 74.3876 51.6026 74.4034 51.5976 74.4245C51.5728 74.6613 51.7117 74.7666 51.8903 74.8403C52.1631 74.9508 52.4409 74.9771 52.7285 74.9455C52.8575 74.9297 52.9815 74.8771 53.0956 74.8087C53.1452 74.7771 53.1899 74.7402 53.2246 74.6929C53.3783 74.5034 53.3188 74.2245 53.1006 74.135C52.9518 74.0771 52.7881 74.0455 52.6293 74.0192C52.4508 73.9876 52.2722 73.9876 52.0986 73.956C51.9647 73.9297 51.8258 73.8981 51.7018 73.8402C51.3 73.6665 51.1958 73.1928 51.4786 72.8455C51.5976 72.6981 51.7464 72.5928 51.92 72.5402C52.1383 72.4718 52.3615 72.4244 52.5897 72.4192C52.9418 72.4086 53.2891 72.4297 53.6264 72.5244C53.666 72.5349 53.7008 72.5507 53.7404 72.5718C53.7553 72.5823 53.7603 72.6034 53.7752 72.6139Z" fill="black"/>
<path d="M31.2779 72.5969C31.2432 72.787 31.2134 72.9612 31.1836 73.1355C31.1041 73.1725 31.0396 73.1777 30.9651 73.1249C30.9601 73.0933 30.9502 73.0616 30.9502 73.0246C30.9601 72.8451 30.8608 72.7606 30.7118 72.7131C30.5331 72.655 30.3444 72.6339 30.1606 72.6339C30.0712 72.6339 29.9819 72.6497 29.8925 72.6655C29.7783 72.6867 29.674 72.7342 29.5896 72.8187C29.4108 72.9929 29.4455 73.2622 29.669 73.3731C29.7435 73.4101 29.8229 73.4312 29.9024 73.4418C30.1606 73.484 30.4188 73.5104 30.6771 73.5527C30.8211 73.5791 30.9651 73.6055 31.1041 73.6583C31.5809 73.8378 31.5759 74.3658 31.3574 74.651C31.2481 74.7936 31.1091 74.8939 30.9502 74.9731C30.7416 75.0787 30.5182 75.1368 30.2897 75.1526C29.9322 75.1738 29.5747 75.179 29.2221 75.1104C29.0781 75.084 28.944 75.0312 28.8 74.9731C28.8248 74.7619 28.8496 74.5559 28.8695 74.35C28.9341 74.3025 29.0036 74.313 29.0681 74.3394C29.0781 74.3606 29.093 74.3764 29.093 74.387C29.0731 74.651 29.2122 74.7724 29.4257 74.8516C29.6839 74.9467 29.9471 74.9678 30.2202 74.9467C30.3593 74.9361 30.4884 74.8781 30.6076 74.8041C30.6473 74.7777 30.687 74.7408 30.7168 74.7038C30.8807 74.5031 30.8211 74.218 30.5877 74.1335C30.4337 74.0754 30.2748 74.049 30.1159 74.0226C29.9372 73.9909 29.7584 73.9909 29.5846 73.9592C29.4505 73.9328 29.3115 73.8959 29.1873 73.8431C28.795 73.6688 28.6957 73.2094 28.9639 72.8609C29.093 72.6972 29.2568 72.5863 29.4505 72.5335C29.9521 72.3857 30.4635 72.3857 30.9701 72.4913C31.0594 72.5124 31.1439 72.5388 31.2283 72.5652C31.2432 72.5599 31.2531 72.5758 31.2779 72.5969Z" fill="black"/>
<path d="M41.8391 30.5661C41.867 30.5661 41.8949 30.5518 41.9158 30.559C42.1321 30.6089 42.3553 30.6161 42.5715 30.5804C43.0459 30.509 43.4296 30.295 43.6528 29.8383C43.7854 29.5743 43.7784 29.2961 43.6598 29.0249C43.5552 28.7823 43.3877 28.604 43.1854 28.447C43.1436 28.4113 43.0878 28.3899 43.0389 28.3685C43.011 28.3542 42.9692 28.3971 42.9692 28.4256C42.9692 28.4399 42.9692 28.4541 42.9692 28.4684C43.0878 28.8323 43.011 29.1676 42.7948 29.4744C42.5994 29.7527 42.2506 29.8811 41.9298 29.7955C41.7135 29.7384 41.5251 29.6314 41.3786 29.4459C41.1833 29.1819 41.1415 28.8965 41.2391 28.5826C41.3368 28.2758 41.4903 27.9975 41.6507 27.7264C41.867 27.3696 41.9786 26.9772 42.0274 26.5633C42.0762 26.1566 42.0274 25.7499 41.9716 25.3504C41.9437 25.1649 41.8879 24.9865 41.853 24.801C41.846 24.7653 41.8391 24.7296 41.846 24.6939C41.853 24.6654 41.8809 24.644 41.9088 24.6583C41.9367 24.6654 41.9577 24.6868 41.9786 24.7011C42.1042 24.8081 42.2297 24.9151 42.3553 25.015C42.6274 25.2291 42.732 25.5145 42.739 25.8498C42.739 25.9997 42.725 26.1566 42.6692 26.2993C42.6064 26.4777 42.5367 26.649 42.4669 26.8273C42.4599 26.8559 42.439 26.8773 42.439 26.9058C42.439 26.9201 42.453 26.9486 42.4669 26.9629C42.4739 26.97 42.4948 26.97 42.5088 26.9629C42.5367 26.9486 42.5576 26.9344 42.5785 26.9201C42.7948 26.7346 43.025 26.5633 43.2343 26.3636C43.3947 26.2137 43.5412 26.0353 43.597 25.8142C43.618 25.7214 43.6389 25.6286 43.6319 25.5359C43.604 25.1006 43.4645 24.7011 43.1785 24.3657C43.0878 24.2587 42.9971 24.1445 42.8924 24.0447C42.6483 23.8021 42.4948 23.5024 42.3832 23.1742C42.3623 23.11 42.3413 23.0529 42.3274 22.9887C42.2506 22.6961 42.2227 22.4107 42.3274 22.111C42.4739 21.6972 42.5018 21.262 42.4809 20.8267C42.439 20.1275 42.1809 19.521 41.6995 19.0216C41.6019 18.9217 41.4833 18.836 41.3717 18.7504C41.2182 18.6363 41.0647 18.5221 40.9113 18.4079C40.8903 18.3937 40.8694 18.3723 40.8485 18.3509C40.8136 18.3009 40.8415 18.2224 40.8973 18.2153C40.9461 18.2082 40.995 18.2153 41.0438 18.2224C41.2042 18.2652 41.3507 18.3366 41.4763 18.4436C41.5809 18.5292 41.6786 18.622 41.7833 18.7148C41.8042 18.7362 41.8251 18.7504 41.853 18.7647C41.8809 18.779 41.9298 18.7504 41.9298 18.7148C41.9298 18.7005 41.9367 18.6862 41.9298 18.6719C41.8251 18.3651 41.7554 18.0512 41.6019 17.7587C41.3228 17.2092 40.9182 16.8097 40.3601 16.5671C40.0951 16.4529 39.823 16.3816 39.544 16.3316C39.3486 16.296 39.1463 16.3174 38.951 16.3102C38.9022 16.3102 38.8533 16.3245 38.8184 16.2674C38.8184 16.2032 38.8743 16.1675 38.9161 16.139C39.1114 15.982 39.1812 15.7751 39.1812 15.5254C39.1812 15.3399 39.1393 15.1686 39.0905 14.9902C39.0835 14.976 39.0626 14.9617 39.0417 14.9332C39.0207 14.9617 38.9998 14.976 38.9928 14.9974C38.9789 15.0402 38.9719 15.083 38.9719 15.1258C38.9719 15.3042 38.8743 15.4255 38.7487 15.5254C38.665 15.5967 38.5743 15.6253 38.4696 15.5896C38.3441 15.5468 38.2115 15.5111 38.0929 15.454C37.8488 15.3399 37.6186 15.1972 37.4023 15.0331C36.9977 14.7334 36.5931 14.4266 36.1815 14.134C35.8955 13.9342 35.5676 13.8344 35.2258 13.8272C35.163 13.8272 35.1002 13.8272 35.0374 13.8272C34.7444 13.8058 34.4584 13.87 34.1724 13.92C34.0329 13.9414 33.8934 13.9699 33.7539 14.0056C33.6422 14.0341 33.5446 14.0127 33.4469 13.9628C33.2934 13.8772 33.133 13.7987 32.9725 13.7131C32.8818 13.6631 32.7842 13.606 32.7005 13.549C32.3865 13.3206 32.1912 13.0067 32.0866 12.6357C32.0657 12.55 32.0447 12.4644 32.0168 12.3859C32.0029 12.3431 31.9889 12.3003 31.968 12.2646C31.9052 12.1648 31.8145 12.1576 31.7378 12.2432C31.7029 12.286 31.668 12.336 31.6471 12.3859C31.6122 12.4787 31.5843 12.5786 31.5634 12.6785C31.5076 12.9496 31.4448 13.2136 31.4099 13.4919C31.368 13.8486 31.3332 14.2125 31.389 14.5764C31.4308 14.8832 31.5983 15.083 31.8912 15.1829C32.0517 15.24 32.2052 15.2542 32.3726 15.2614C32.4284 15.2614 32.4842 15.2614 32.54 15.2756C32.5819 15.2828 32.6168 15.3042 32.6237 15.3541C32.6307 15.3898 32.5958 15.4255 32.54 15.4326C32.4912 15.4397 32.4424 15.4398 32.3935 15.4398C32.2749 15.4398 32.1494 15.4397 32.0308 15.4255C31.8913 15.4112 31.8006 15.4683 31.7378 15.5967C31.7099 15.6609 31.668 15.718 31.6331 15.7894C31.5076 16.0534 31.3053 16.2389 31.082 16.4101C30.9913 16.4815 30.8937 16.5457 30.803 16.6099C30.6286 16.7312 30.4821 16.8739 30.3426 17.0309C30.2031 17.1878 30.1193 17.3876 30.0496 17.5803C30.0007 17.7016 30.0007 17.8443 30.0007 17.9727C29.9938 18.1011 29.9519 18.1939 29.8682 18.2795C29.5334 18.6505 29.1985 19.0287 28.8567 19.3926C28.5846 19.6851 28.3056 19.9777 28.0265 20.2631C27.8661 20.4272 27.6777 20.5627 27.4824 20.684C27.3638 20.7625 27.2522 20.8481 27.1685 20.9694C27.1196 21.0408 27.0987 21.105 27.0987 21.1906C27.1057 21.369 27.1127 21.5545 27.1127 21.7329C27.1127 21.8542 27.1196 21.9826 27.1127 22.1039C27.1057 22.3108 27.1057 22.5249 27.0917 22.7318C27.0848 22.8816 27.1476 22.9744 27.2731 23.0457C27.4475 23.1456 27.6149 23.2455 27.7893 23.3454C28.0265 23.4881 28.2498 23.6522 28.4381 23.8663C28.466 23.902 28.5009 23.9234 28.5288 23.959C28.6753 24.1445 28.8706 24.1802 29.0869 24.1231C29.2055 24.0946 29.3241 24.0732 29.4357 24.0375C29.5961 23.9876 29.7566 24.009 29.917 24.0304C30.0147 24.0447 30.1124 24.0589 30.21 24.0589C30.4751 24.0732 30.6774 23.9519 30.8169 23.7236C30.8797 23.6237 30.9355 23.5095 30.9774 23.3954C31.0541 23.1742 31.1378 22.9601 31.1309 22.7247C31.1309 22.6248 31.1867 22.5463 31.2564 22.4821C31.3053 22.4393 31.3611 22.4036 31.4099 22.3679C31.5913 22.2537 31.7727 22.1396 31.9471 22.0254C32.0308 21.9683 32.1145 21.9541 32.2121 21.9826C32.3656 22.0254 32.5261 22.0611 32.6865 22.0968C32.7353 22.111 32.7842 22.111 32.833 22.111C33.0702 22.111 33.3004 22.1182 33.5306 22.1039C33.8027 22.0896 34.0608 22.0254 34.3119 21.9255C34.3747 21.897 34.4375 21.8685 34.5073 21.897C34.5003 21.9755 34.4445 21.9969 34.4026 22.0326C34.305 22.111 34.2701 22.2181 34.284 22.3394C34.305 22.4892 34.3119 22.639 34.3398 22.7889C34.3956 23.0814 34.3468 23.3526 34.2003 23.6023C34.0957 23.7807 33.998 23.9662 33.8724 24.1303C33.7259 24.3158 33.5515 24.4514 33.3702 24.5941C32.561 25.2505 31.7168 25.8641 30.8797 26.4848C30.5379 26.7417 30.1961 27.0057 29.8612 27.2626C29.2473 27.7406 28.8009 28.3614 28.4451 29.0606C28.194 29.5529 28.0056 30.0667 27.8312 30.5875C27.6359 31.1726 27.4824 31.7648 27.3359 32.3642C27.1545 33.0919 27.022 33.834 26.8825 34.576C26.8546 34.7259 26.8267 34.8757 26.7988 35.0255C26.7918 35.0541 26.8057 35.104 26.8267 35.1183C26.8476 35.1326 26.8964 35.1326 26.9243 35.1183C26.9732 35.0898 27.015 35.0541 27.0638 35.0184C27.5033 34.7187 27.9568 34.4262 28.4102 34.1479C28.8916 33.8554 29.3729 33.57 29.8752 33.306C30.1263 33.1704 30.3775 33.0349 30.6286 32.9136C30.9495 32.7566 31.2704 32.6139 31.5983 32.4712C31.8075 32.3784 32.0168 32.2857 32.2261 32.2143C32.4493 32.1358 32.6795 32.0502 32.9097 31.986C33.14 31.9146 33.3771 31.8647 33.6074 31.8148C34.0538 31.722 34.5003 31.6578 34.9537 31.6792C35.1421 31.6863 35.3374 31.6792 35.5258 31.6863C35.8885 31.7006 36.2443 31.7648 36.5931 31.8647C36.9279 31.9575 37.2558 32.0645 37.5976 32.1358C37.9674 32.2143 38.3371 32.2643 38.7138 32.2429C39.1184 32.2215 39.516 32.1501 39.8928 31.9931C40.0113 31.9432 40.123 31.879 40.2276 31.8076C40.3183 31.7505 40.402 31.7291 40.5066 31.7505C40.7159 31.8005 40.9252 31.829 41.1345 31.8647C41.5251 31.936 41.9298 31.936 42.3204 31.8932C42.7669 31.8504 43.1854 31.6935 43.5482 31.3938C43.7924 31.1869 43.9458 30.9229 44.0435 30.6232C44.0993 30.4662 44.1063 30.295 44.1133 30.1309C44.1133 30.1023 44.1132 30.0738 44.0993 30.0453C44.0923 30.031 44.0714 30.0096 44.0505 30.0096C44.0365 30.0096 44.0016 30.0167 43.9947 30.031C43.9737 30.0667 43.9528 30.1095 43.9389 30.1451C43.8342 30.3877 43.7086 30.6089 43.5342 30.8016C43.3738 30.9871 43.1854 31.0941 42.9343 31.0442C42.5297 31.0798 42.2088 30.8801 41.8949 30.6731C41.867 30.6803 41.867 30.6731 41.8391 30.5661Z" fill="black"/>
<path d="M34.9398 3.66687L16.858 13.2778C16.858 13.2778 14.4652 37.5585 34.9328 46.356C55.4005 37.5585 53.0147 13.2778 53.0147 13.2778L34.9398 3.66687ZM50.6429 26.3065C48.1594 35.3109 42.8785 41.6754 34.9328 45.2215C26.9872 41.6754 21.7063 35.3109 19.2228 26.3065C17.6532 20.6198 17.7509 15.5753 17.8346 13.9414L34.9259 4.85129L52.0171 13.9414C52.1148 15.5753 52.2125 20.6198 50.6429 26.3065Z" fill="black"/>
<path d="M34.9399 6.22836L19.0066 14.6977C18.9438 16.4244 18.9369 21.0194 20.339 26.0996C22.6621 34.5189 27.5662 40.4981 34.9329 43.8659C42.2996 40.4981 47.2107 34.5189 49.5267 26.0996C50.9289 21.0194 50.9219 16.4244 50.8592 14.6977L34.9399 6.22836ZM49.15 25.9854C46.8828 34.2264 42.0973 40.0914 34.9399 43.4164C27.7755 40.0914 22.9899 34.2264 20.7227 25.9854C19.3973 21.1764 19.3415 16.8168 19.3973 14.9474L34.9399 6.68501L50.4825 14.9474C50.5313 16.8168 50.4755 21.1835 49.15 25.9854Z" fill="black"/>
<path d="M37.8558 50.5657C37.8349 50.6014 37.793 50.6228 37.7512 50.6157C30.7821 49.7737 25.7036 46.199 22.669 43.345C19.3763 40.2555 17.716 37.3159 17.6951 37.2873C17.6672 37.2374 17.6812 37.166 17.737 37.1375C17.7928 37.109 17.8556 37.1232 17.8835 37.1803C17.8974 37.2089 19.5507 40.12 22.8225 43.188C25.8361 46.0207 30.8728 49.5668 37.7791 50.3945C37.8419 50.4016 37.8837 50.4587 37.8768 50.5158C37.8698 50.5372 37.8628 50.5514 37.8558 50.5657Z" fill="black"/>
<path d="M18.3435 36.3741C18.776 37.323 18.6853 38.4147 18.5946 38.4575C18.5039 38.5003 17.6319 37.8653 17.1994 36.9163C16.7669 35.9674 16.8576 34.8757 16.9483 34.8329C17.0389 34.7901 17.9109 35.4251 18.3435 36.3741Z" fill="black"/>
<path d="M19.3484 40.1699C20.5064 40.6194 21.3296 41.6469 21.2877 41.761C21.2459 41.8823 19.9623 42.0821 18.8043 41.6326C17.6462 41.1831 16.8231 40.1556 16.8649 40.0415C16.9138 39.9273 18.1904 39.7204 19.3484 40.1699Z" fill="black"/>
<path d="M23.4921 41.1189C24.0711 42.5387 23.8828 44.1299 23.7433 44.1941C23.6037 44.2512 22.362 43.2737 21.776 41.8538C21.197 40.4339 21.3854 38.8428 21.5249 38.7786C21.6644 38.7215 22.9131 39.699 23.4921 41.1189Z" fill="black"/>
<path d="M29.3017 47.9143C29.8301 47.6561 29.6284 46.0978 28.8511 44.4338C28.0737 42.7698 27.0153 41.6302 26.4868 41.8884C25.9584 42.1466 26.1602 43.7049 26.9375 45.3689C27.7148 47.0329 28.7733 48.1726 29.3017 47.9143Z" fill="black"/>
<path d="M23.0388 44.4652C24.7479 44.6936 26.185 45.7995 26.164 45.9779C26.1431 46.1562 24.4758 46.8555 22.7667 46.6272C21.0576 46.3988 19.6205 45.2929 19.6415 45.1145C19.6624 44.9361 21.3227 44.2369 23.0388 44.4652Z" fill="black"/>
<path d="M28.072 50.6625C30.1196 50.4215 31.7178 49.6772 31.6416 49C31.5654 48.3227 29.8437 47.9691 27.7961 48.21C25.7485 48.451 24.1503 49.1954 24.2265 49.8726C24.3027 50.5498 26.0244 50.9035 28.072 50.6625Z" fill="black"/>
<path d="M32.1075 50.5657C32.1284 50.6014 32.1703 50.6228 32.2121 50.6157C39.1812 49.7737 44.2597 46.199 47.2943 43.345C50.587 40.2555 52.2473 37.3159 52.2682 37.2873C52.2961 37.2374 52.2822 37.166 52.2264 37.1375C52.1706 37.109 52.1078 37.1232 52.0799 37.1803C52.0659 37.2089 50.4126 40.12 47.1409 43.188C44.1272 46.0207 39.0905 49.5668 32.1842 50.3945C32.1215 50.4016 32.0796 50.4587 32.0866 50.5158C32.0935 50.5372 32.1005 50.5514 32.1075 50.5657Z" fill="black"/>
<path d="M51.6195 36.3741C51.187 37.323 51.2777 38.4147 51.3684 38.4575C51.459 38.5003 52.331 37.8653 52.7636 36.9163C53.1961 35.9674 53.1054 34.8757 53.0147 34.8329C52.924 34.7901 52.052 35.4251 51.6195 36.3741Z" fill="black"/>
<path d="M50.6149 40.1699C49.4569 40.6194 48.6337 41.6469 48.6756 41.761C48.7175 41.8823 50.001 42.0821 51.1591 41.6326C52.3171 41.1831 53.1403 40.1556 53.0984 40.0415C53.0496 39.9273 51.773 39.7204 50.6149 40.1699Z" fill="black"/>
<path d="M46.4712 41.1189C45.8922 42.5387 46.0805 44.1299 46.22 44.1941C46.3595 44.2512 47.6013 43.2737 48.1873 41.8538C48.7663 40.4339 48.5779 38.8428 48.4384 38.7786C48.2989 38.7215 47.0502 39.699 46.4712 41.1189Z" fill="black"/>
<path d="M43.0254 45.3665C43.8027 43.7025 44.0045 42.1442 43.4761 41.886C42.9477 41.6278 41.8892 42.7674 41.1119 44.4314C40.3346 46.0954 40.1328 47.6537 40.6612 47.9119C41.1896 48.1702 42.2481 47.0305 43.0254 45.3665Z" fill="black"/>
<path d="M46.9316 44.4652C45.2224 44.6936 43.7854 45.7995 43.8063 45.9779C43.8272 46.1562 45.4945 46.8555 47.2036 46.6272C48.9128 46.3988 50.3498 45.2929 50.3289 45.1145C50.308 44.9361 48.6407 44.2369 46.9316 44.4652Z" fill="black"/>
<path d="M45.7374 49.8784C45.8135 49.2012 44.2154 48.4569 42.1678 48.2159C40.1201 47.9749 38.3985 48.3286 38.3223 49.0058C38.2461 49.683 39.8443 50.4274 41.8919 50.6683C43.9395 50.9093 45.6612 50.5557 45.7374 49.8784Z" fill="black"/>
</svg>
