<svg width="15" height="18" fill="none" xmlns="http://www.w3.org/2000/svg"><path d="M11.988 12.504h-.922v-.553c0-.295.147-.443.442-.443h.037c.295 0 .443.148.443.443v.553zm-3.504-1.18c-.295 0-.443.123-.443.369v2.618c0 .246.148.37.443.37.295 0 .442-.124.442-.37v-2.618c0-.246-.147-.37-.442-.37zm5.68-1.476v5.017a2.02 2.02 0 01-.682 1.549 2.34 2.34 0 01-1.642.627H2.324a2.34 2.34 0 01-1.642-.627A2.02 2.02 0 010 14.864V9.849c0-.59.227-1.1.682-1.53a2.304 2.304 0 011.642-.646h9.516c.64 0 1.187.215 1.642.646.455.43.682.94.682 1.53zM2.95 15.418v-5.275h1.18V9.37L.996 9.332v.774h.959v5.312h.996zm3.54-4.5h-.995v3.504a.386.386 0 01-.258.24c-.123.037-.222-.03-.295-.203v-.7l-.037-2.841h-.96v3.689c.05.418.136.664.259.737.221.148.498.154.83.019.332-.136.56-.314.682-.535v.59h.775v-4.5zm3.136 3.246v-2.36c0-.468-.147-.788-.443-.96-.295-.172-.664-.086-1.106.258V9.37h-.996v6.012h.811l.074-.406c.517.443.928.566 1.236.37.307-.197.449-.59.424-1.181zm3.098-.332h-.737v.516c0 .27-.136.406-.406.406h-.148c-.27 0-.405-.135-.405-.406v-1.07h1.696v-.626c0-.64-.012-1.045-.037-1.218-.073-.393-.338-.639-.793-.737-.454-.099-.83-.037-1.124.184a1.396 1.396 0 00-.406.553c-.074.246-.11.578-.11.996v1.402c0 .91.343 1.438 1.032 1.586.59.123 1.02-.074 1.29-.59.173-.27.222-.603.148-.996zM8.926 6.234a.6.6 0 00.258.295.67.67 0 00.406.11c.148 0 .27-.037.369-.11a.918.918 0 00.258-.332v.369h1.107V1.88h-.886v3.652c0 .246-.122.369-.368.369-.222 0-.332-.123-.332-.37v-3.65h-.922v3.171c0 .443.012.713.036.812 0 .098.025.221.074.369zm-3.32-2.62c0-.442.037-.798.111-1.069.074-.221.21-.418.406-.59.197-.148.443-.221.738-.221.27 0 .491.049.664.147a.842.842 0 01.405.369c.099.123.172.283.222.48.024.122.037.38.037.774v1.18c0 .492-.013.812-.037.96a1.448 1.448 0 01-.222.553c-.073.123-.209.258-.405.405a1.67 1.67 0 01-.59.111 1.88 1.88 0 01-.665-.11.902.902 0 01-.405-.333 1.886 1.886 0 01-.185-.516 4.815 4.815 0 01-.073-.922V3.615zm.849 1.845a.49.49 0 00.129.332c.086.098.19.147.314.147.295 0 .442-.16.442-.479V2.988c0-.32-.147-.48-.442-.48-.296 0-.443.16-.443.48v2.471zM3.43 6.713h1.033V3.135L5.68.074H4.574L3.91 2.36 3.246.074H2.139L3.43 3.135v3.578z" fill="#727272"/></svg>