<svg width="18" height="18" fill="none" xmlns="http://www.w3.org/2000/svg"><path d="M11.305 1.5H6.703C2.5 1.5 1.5 2.5 1.5 6.695v4.602c0 4.202.992 5.203 5.195 5.203h4.602c4.202 0 5.203-.992 5.203-5.195V6.703c0-4.203-.992-5.203-5.195-5.203zm2.305 10.703h-1.095c-.414 0-.538-.336-1.28-1.078-.649-.625-.922-.703-1.087-.703-.226 0-.288.062-.288.375v.984c0 .266-.087.422-.782.422a4.27 4.27 0 01-3.336-2 8.72 8.72 0 01-1.726-3.625c0-.164.062-.312.375-.312h1.093c.281 0 .383.125.493.414.53 1.563 1.437 2.922 1.804 2.922.141 0 .203-.063.203-.414v-1.61c-.047-.734-.437-.796-.437-1.062a.27.27 0 01.28-.25h1.72c.234 0 .313.117.313.398v2.172c0 .235.1.313.171.313.141 0 .25-.078.508-.336a9 9 0 001.344-2.235.472.472 0 01.476-.312h1.095c.327 0 .397.164.327.398a13.71 13.71 0 01-1.468 2.524c-.118.18-.165.273 0 .484.108.164.492.484.75.789.375.374.686.807.921 1.281.094.304-.063.461-.374.461z" fill="#fff"/></svg>