<svg width="80" height="84" fill="none" xmlns="http://www.w3.org/2000/svg"><path d="M42.526 80.007c.231-.03.45-.018.67-.024.206-.006.419-.006.626 0 .213.006.432-.035.645.03v.917a.586.586 0 01-.024.142c-.019.078-.067.12-.147.126-.097.011-.2.011-.298.023-.091.012-.11.066-.079.15.025.011.055.029.08.029.644 0 1.295 0 1.94-.006.019 0 .03-.018.061-.036-.006-.035-.012-.083-.024-.13a4.74 4.74 0 01-.31-.024c-.177-.018-.213-.06-.232-.245v-2.047c0-.09 0-.179.08-.268.121-.012.255-.024.395-.048a.143.143 0 00.085-.071c.012-.03-.006-.072-.012-.107-.043-.006-.073-.018-.097-.018-.64 0-1.278 0-1.917.006-.018 0-.037.012-.055.024-.012.137-.006.16.08.172.133.018.273.036.389.048.097.119.085.244.09.357.007.12.007.232.007.351-.006.113.024.232-.03.334-.408.065-1.613.053-1.93-.018a3.6 3.6 0 01.013-.81c.006-.071.037-.143.06-.214.147-.018.28-.03.402-.048.03-.006.073-.035.086-.065.012-.03 0-.072 0-.107-.043-.012-.067-.024-.098-.024h-1.916c-.019 0-.037.012-.061.024v.148c.17.024.334.048.505.078.012.06.03.107.03.155 0 .714.006 1.422.006 2.136a.712.712 0 01-.012.114c-.018.071-.067.125-.14.13-.097.013-.2.013-.298.024-.097.012-.11.072-.085.155.024.012.048.03.079.03.645 0 1.296-.006 1.94-.006.02 0 .031-.018.05-.03.018-.077 0-.13-.092-.143-.134-.017-.28.012-.401-.071-.086-.274-.104-.637-.061-1.143zm-26.009-1.351c.012.083.03.136.03.196 0 .684.006 1.362.006 2.046 0 .041 0 .077-.006.119-.018.124-.06.172-.188.184-.091.012-.183.006-.268.018-.09.012-.103.071-.067.155.025.005.049.023.08.023h1.885c.036 0 .066-.023.097-.035.024-.102-.018-.143-.103-.15-.134-.011-.28.013-.396-.07-.091-.316-.11-.887-.036-1.13.31-.042 1.648-.042 1.897 0 .06.38.037.91-.067 1.16-.06.011-.128.029-.194.035-.067.006-.14.006-.207.012-.06.006-.091.047-.08.1.007.03.043.066.074.072.079.012.158.006.237.006h1.466c.066 0 .14.006.206 0 .116-.006.128-.041.067-.178-.103-.006-.219-.012-.322-.024-.128-.018-.177-.065-.183-.19-.012-.095-.012-.197-.012-.292 0-.582 0-1.171.006-1.754 0-.107-.012-.214.085-.315.116-.012.244-.024.371-.042.055-.006.098-.03.104-.083.006-.036-.012-.072-.024-.12h-1.983c-.03 0-.055.019-.091.03.006.048.006.096.012.161l.359.036c.128.018.17.053.188.184.025.143.018.696-.012.892-.31.036-.632.024-.948.024-.323-.006-.651.018-.992-.047.006-.351-.03-.684.073-1.017.17-.072.353-.012.499-.102 0-.041.006-.07.006-.095 0-.017-.018-.03-.037-.06h-1.988c-.018 0-.03.019-.06.037.005.041.005.083.011.142.164.024.322.048.505.072zm10.506 2.715c.022.006.044.024.072.024h1.662c.033 0 .06-.024.088-.036.012-.077 0-.136-.066-.142-.072-.012-.144-.006-.216-.018-.139-.018-.172-.053-.188-.202-.017-.166-.045-.332-.04-.493.012-.582.029-1.17.045-1.751 0-.018.017-.036.022-.054.222-.07.449-.035.67 0 .073.012.139.048.206.078.343.166.32.659.016.849-.177.106-.36.178-.57.172-.061 0-.128-.024-.167.047 0 .024-.005.048.006.06.432.498.87.991 1.302 1.478.282.03.93.018 1.135-.018 0-.041-.006-.089-.006-.142-.188 0-.32-.101-.432-.232-.315-.35-.631-.695-.947-1.045-.027-.03-.038-.071-.06-.118.093-.036.177-.06.249-.09.077-.03.15-.07.221-.112a.745.745 0 00.316-.31.547.547 0 00-.1-.664.62.62 0 00-.36-.19c-.216-.024-.432-.06-.648-.06-.681-.005-1.362 0-2.044 0-.05 0-.105.012-.155.018-.01.155-.005.172.078.19.1.018.194.03.277.048.083.107.083.214.083.32v1.93c0 .03 0 .06-.006.09-.016.148-.05.19-.183.207-.06.012-.127.006-.188.018-.1.006-.116.065-.072.148zm28.963-2.955c-.221 0-.422-.006-.622 0-.206.006-.417-.047-.617.012.01.14.015.157.072.169.113.023.231.035.334.052.077.117.072.234.072.344 0 .316.005.63 0 .946-.005.163-.02.326-.036.484a.554.554 0 01-.304.46c-.19.111-.39.123-.591.135a1.422 1.422 0 01-.74-.129.511.511 0 01-.304-.425 2.515 2.515 0 01-.026-.345c.005-.408.02-.822.031-1.23 0-.041.005-.076.01-.117.016-.094.047-.129.129-.146.098-.017.195-.03.303-.047v-.151c-.03-.012-.051-.024-.077-.024h-1.543c-.026 0-.046.012-.077.024v.134c.087.07.185.052.273.064.097.017.133.047.149.163.01.076.015.152.015.228.005.268.005.537.005.805 0 .221-.005.437-.005.659 0 .32.14.548.391.677a1.9 1.9 0 00.504.186c.36.07.725.065 1.085.035.227-.017.448-.087.659-.198a.862.862 0 00.473-.694c.015-.134.026-.268.026-.397.01-.356.01-.706.02-1.062.005-.134.005-.268.093-.39.077-.012.16-.03.241-.047.078-.012.083-.035.057-.175zm-17.05.031c-.055-.017-.083-.035-.118-.035a738.125 738.125 0 00-3.645-.012c-.055 0-.11.012-.173.018v.154c.132.054.27.048.402.06.139.017.173.047.187.166.007.065.007.136.014.202.035.624.014 1.247-.014 1.87-.014.22.007.322-.305.387-.062.012-.09.053-.041.13.09 0 .187.007.29.007.389 0 .77-.006 1.158-.006.603 0 1.206.006 1.808.012.132 0 .27.005.423-.036.007-.244.118-.47.063-.713-.257-.012-.257-.012-.326.143-.042.1-.049.208-.146.285-.665.065-1.476.071-1.76.012-.076-.238-.09-.802-.028-1.087.333-.06 1.026-.048 1.317.017.035.096.07.197.104.303.049.006.097.012.139.012.041 0 .09-.011.138-.017.049-.16.014-.315.021-.47 0-.154.02-.309 0-.451-.118-.06-.208-.06-.298-.006-.035.095-.07.184-.097.267-.326.083-.873.09-1.33.024a2.494 2.494 0 01.041-.986c.07-.006.153-.024.229-.024.409.006.818.006 1.226.018.215.006.326.006.326.273 0 .036.02.072.042.125l.27-.018c.02-.226.055-.428.083-.624zm21.294 2.929c.116.006.199.018.288.018.846 0 1.692.006 2.538.006.213 0 .426 0 .64-.006.075 0 .15-.018.24-.036-.02-.244.096-.464.055-.696-.268-.024-.261-.024-.33.125-.041.101-.055.208-.138.292-.385.047-1.361.077-1.691.047-.028 0-.055-.024-.103-.047a2.419 2.419 0 01-.028-.548c.007-.178-.041-.369.035-.541.412-.042 1.01-.03 1.313.023.02.078.041.161.069.244.007.024.034.048.048.072.048 0 .096.006.137.006.042-.006.083-.018.131-.03 0-.167.007-.321 0-.476-.007-.155.048-.31-.034-.47-.09.006-.18.006-.255.012-.048.119-.082.214-.117.303-.398.077-.997.077-1.334-.006a5.424 5.424 0 01.035-.946c.055-.018.082-.036.11-.036.495-.047.99-.018 1.485.018.138.012.165.042.186.167.007.047.007.095.02.143 0 .017.021.035.035.06h.261c0-.227.11-.423.069-.65-.337-.041-.667-.017-.99-.017-.317 0-.633.006-.95.006-.33 0-.653 0-.983.006-.323.005-.646-.048-.963.011-.02.096-.013.161.09.173.096.018.2.018.302.03.158.018.186.047.2.19a17.41 17.41 0 01-.007 2.107c0 .041-.007.077-.014.119-.007.083-.055.143-.151.172-.055.012-.151.018-.2.155zm-.48-2.766c-.016-.018-.027-.035-.038-.04a3.058 3.058 0 00-.127-.052 3.91 3.91 0 00-1.152-.115 2.738 2.738 0 00-.744.132 1.043 1.043 0 00-.49.333c-.315.385-.199.902.247 1.086.144.057.293.097.441.126.193.035.397.04.59.07.176.028.358.062.524.125.242.092.308.397.137.61a.514.514 0 01-.143.126 1.034 1.034 0 01-.408.15 1.91 1.91 0 01-.931-.116c-.199-.08-.353-.195-.325-.454 0-.017 0-.04-.006-.057-.005-.017-.022-.029-.038-.057-.061.005-.127.005-.204.011l-.083.707c.176.057.336.115.507.15.386.068.772.062 1.163.04a2.04 2.04 0 00.705-.185c.177-.08.331-.19.458-.344.248-.305.264-.88-.26-1.092a2.102 2.102 0 00-.495-.126c-.287-.029-.573-.075-.86-.115a1.211 1.211 0 01-.237-.063c-.259-.121-.303-.425-.088-.615a.628.628 0 01.231-.132 1.7 1.7 0 011.042.04c.138.046.232.138.226.31 0 .046.011.092.016.127.089.046.166.051.243 0l.1-.58zm-24.997.002c-.027-.023-.038-.04-.055-.046a4.245 4.245 0 00-.287-.08c-.568-.121-1.13-.121-1.688.045a1.057 1.057 0 00-.54.357c-.304.38-.189.88.247 1.07.138.063.293.104.442.127.193.034.397.04.59.069.177.028.359.057.524.12.26.098.326.409.144.622a.565.565 0 01-.122.109.977.977 0 01-.43.155c-.298.029-.59 0-.883-.103-.243-.087-.392-.225-.37-.507 0-.017-.016-.028-.027-.051-.072-.029-.149-.04-.22.011-.028.23-.056.449-.078.679.16.063.309.115.469.15.397.074.794.069 1.186.046a1.96 1.96 0 00.734-.196c.177-.086.331-.196.453-.35.242-.311.248-.887-.282-1.082a2.206 2.206 0 00-.474-.115c-.287-.046-.574-.075-.861-.121a.798.798 0 01-.26-.075c-.248-.12-.286-.408-.088-.604a.628.628 0 01.337-.167c.1-.017.199-.034.298-.034.21-.006.414.017.612.086.16.052.27.144.265.34 0 .034.011.074.017.109.077.057.154.057.242.011.034-.178.067-.368.105-.575z" fill="#fff"/><path d="M42.52 80.007c-.043.506-.025.87.067 1.143.115.083.261.053.401.071.092.012.116.066.092.143-.019.012-.03.03-.05.03-.644.006-1.295.006-1.94.006-.024 0-.055-.018-.08-.03-.023-.083-.011-.143.086-.155.097-.011.2-.011.298-.023.08-.012.122-.06.14-.131a.712.712 0 00.012-.114c0-.714 0-1.422-.006-2.136 0-.048-.018-.096-.03-.155a14.68 14.68 0 01-.505-.078v-.148c.024-.012.042-.024.06-.024h1.917c.03 0 .055.012.098.024 0 .035.018.077 0 .107a.132.132 0 01-.086.065c-.127.024-.255.03-.401.048-.019.071-.049.143-.061.214a3.6 3.6 0 00-.012.81c.316.071 1.52.077 1.928.018.05-.102.025-.22.031-.334.006-.119 0-.232-.006-.351-.006-.113.012-.238-.091-.357-.116-.012-.256-.03-.39-.048-.085-.012-.091-.035-.079-.172.018-.006.037-.024.055-.024.639 0 1.278-.006 1.916-.006.03 0 .055.012.098.018.006.035.024.077.012.107s-.049.065-.085.071c-.134.024-.274.036-.396.048-.079.09-.079.178-.079.268v2.048c.012.178.055.226.231.244.098.011.195.011.31.023.007.054.019.096.025.131-.03.018-.049.036-.06.036-.646 0-1.297.006-1.942.006-.03 0-.054-.018-.079-.03-.03-.083-.012-.143.08-.149.097-.012.2-.012.297-.023.08-.006.128-.054.147-.125.012-.048.024-.096.024-.143v-.917c-.207-.066-.426-.018-.645-.03-.207-.006-.42-.006-.627 0-.225.006-.444-.006-.675.024zM16.517 78.65c-.182-.024-.34-.048-.505-.066-.006-.053-.012-.1-.012-.142.024-.018.043-.036.06-.036h1.99c.018.03.036.041.036.06.007.03 0 .053-.006.095-.146.089-.334.03-.498.1-.104.328-.067.667-.073 1.017.34.066.669.048.991.048.316 0 .639.012.949-.024.03-.196.036-.749.012-.892-.024-.13-.06-.166-.188-.184l-.36-.036c-.005-.065-.012-.113-.012-.16.037-.012.067-.03.092-.03h1.983c.012.047.024.083.024.119-.006.06-.055.077-.103.083-.128.018-.256.03-.371.042-.104.1-.086.214-.086.315-.006.583-.006 1.171-.006 1.754 0 .096 0 .197.012.292.013.125.061.172.183.19.11.012.219.018.322.024.061.137.05.172-.067.178-.066.006-.14 0-.206 0h-1.466c-.08 0-.158 0-.238-.006a.108.108 0 01-.073-.071c-.012-.054.025-.095.08-.101.066-.006.14-.006.206-.012.067-.006.134-.024.195-.036.103-.25.128-.779.067-1.16-.25-.041-1.594-.041-1.898 0-.073.244-.055.815.037 1.13.11.09.255.06.395.072.085.012.128.047.103.149-.024.012-.06.035-.097.035h-1.886c-.03 0-.054-.018-.079-.023-.042-.084-.03-.143.067-.155.091-.012.177-.006.268-.018.128-.012.17-.06.188-.184.007-.036.007-.078.007-.12 0-.683 0-1.361-.006-2.045 0-.06-.019-.12-.03-.202zm10.507 2.727c-.044-.083-.028-.136.056-.154.06-.012.128-.012.189-.018.133-.018.167-.06.183-.208.006-.03.006-.06.006-.089v-1.93c0-.106.005-.213-.084-.32-.083-.012-.183-.024-.278-.048-.078-.017-.083-.035-.078-.19.05-.006.106-.017.156-.017.684 0 1.368-.006 2.052 0 .217 0 .434.035.65.059.14.018.262.089.362.19.184.178.223.44.1.665a.713.713 0 01-.317.309 2.646 2.646 0 01-.222.112c-.078.03-.156.06-.25.09.022.041.038.089.06.118.318.35.635.7.952 1.045.116.125.244.232.433.232.006.053.006.1.006.142-.206.036-.856.048-1.14.018-.428-.487-.867-.98-1.307-1.478-.01-.012 0-.036-.005-.06.039-.07.11-.047.167-.047.205 0 .394-.066.572-.172.306-.19.328-.683-.016-.85-.067-.03-.134-.07-.206-.077-.223-.035-.45-.07-.673 0-.011.024-.022.036-.022.054-.017.582-.034 1.17-.045 1.751 0 .167.023.333.04.493.016.149.05.184.188.202.072.012.145.006.217.018.072.012.084.065.067.142-.028.012-.056.036-.09.036H27.08c-.011.006-.034-.012-.056-.018zm21.73.023c-.29-.029-.584-.046-.873-.08a2.447 2.447 0 01-.873-.29c-.892-.479-.916-1.63-.105-2.165.234-.154.486-.268.762-.33a5.38 5.38 0 012.392 0 2.1 2.1 0 01.658.273c.805.467.713 1.441.24 1.903a2.074 2.074 0 01-.75.461c-.35.131-.714.194-1.089.205-.123.006-.24 0-.362 0v.023zm.123-.245c.233.017.491-.023.731-.12.338-.136.553-.359.646-.689a1.53 1.53 0 000-.832c-.136-.461-.455-.74-.96-.82a2.886 2.886 0 00-.99 0c-.503.091-.83.342-.94.797-.055.24-.061.485.006.724.111.427.382.73.849.866.203.051.412.074.657.074zm-24.944.245a13.535 13.535 0 01-.673-.08 1.699 1.699 0 01-.722-.301c-.697-.484-.712-1.617-.073-2.147a1.7 1.7 0 01.628-.341 3.463 3.463 0 011.867-.006c.206.057.393.16.57.29.594.45.554 1.281.27 1.754-.118.193-.27.347-.447.46a2.07 2.07 0 01-1.037.337c-.127.011-.255 0-.388 0a.11.11 0 01.005.034zm.103-.222c.216-.006.418-.046.614-.148a.937.937 0 00.491-.65c.07-.29.074-.585.005-.881-.103-.45-.358-.718-.751-.803a1.79 1.79 0 00-.815 0c-.433.102-.678.381-.747.86-.03.21-.03.427.015.637.098.467.334.774.741.9.143.045.295.056.447.085zm31.95-2.762c.026.14.02.163-.056.175-.083.018-.165.03-.242.047-.093.122-.093.256-.093.39-.01.356-.01.706-.02 1.062-.006.134-.01.269-.026.397a.862.862 0 01-.473.694c-.211.11-.427.18-.659.198-.36.03-.725.035-1.085-.035a1.773 1.773 0 01-.504-.186c-.252-.129-.39-.356-.39-.677 0-.222.004-.438.004-.66 0-.267 0-.536-.005-.804 0-.076-.005-.152-.015-.228-.016-.11-.052-.14-.15-.163-.087-.017-.185.006-.272-.064v-.134c.03-.012.051-.024.077-.024h1.543c.026 0 .046.012.077.024v.151c-.108.018-.205.03-.303.047-.088.017-.118.058-.129.146-.005.035-.005.076-.01.116-.01.409-.026.823-.03 1.231 0 .117.01.228.025.344a.52.52 0 00.303.426c.237.117.489.146.74.129.202-.012.402-.024.592-.134.17-.1.283-.24.304-.461.015-.164.036-.321.036-.484.005-.315 0-.63 0-.945 0-.111.005-.234-.072-.345-.103-.017-.221-.029-.334-.052-.057-.012-.062-.03-.073-.17.206-.058.412-.005.618-.011.2-.006.4 0 .622 0zm-17.036.037c-.035.196-.063.398-.097.618l-.27.018c-.014-.053-.042-.09-.042-.125 0-.267-.104-.267-.326-.273l-1.226-.018c-.076 0-.153.018-.229.024-.076.25-.097.742-.041.986.457.065 1.004.06 1.33-.024.028-.083.062-.172.097-.267.09-.054.187-.054.298.006.028.142 0 .297 0 .451 0 .155.035.31-.02.47-.05.005-.098.017-.14.017-.04 0-.09-.006-.138-.011a8.643 8.643 0 00-.104-.303c-.29-.066-.984-.072-1.317-.018-.062.285-.048.855.028 1.087.284.06 1.095.053 1.76-.012.097-.077.104-.184.146-.285.07-.149.062-.149.325-.143.056.244-.055.47-.062.713-.152.042-.284.036-.422.036-.603 0-1.206-.006-1.81-.012-.387 0-.768.006-1.156.006-.097 0-.201-.006-.291-.006-.049-.072-.014-.113.041-.13.312-.072.291-.167.305-.387.035-.624.049-1.247.014-1.871-.007-.066-.007-.137-.014-.202-.014-.119-.055-.149-.187-.166-.132-.018-.27-.006-.402-.06v-.154c.062-.006.118-.018.173-.018 1.213 0 2.432.006 3.645.012.049 0 .083.023.132.041zm21.259 2.935c.048-.137.144-.143.22-.167.096-.03.144-.09.151-.172.007-.042.007-.078.014-.12.034-.66.055-1.328.014-1.989 0-.041 0-.077-.007-.119-.02-.143-.048-.172-.2-.19-.103-.012-.2-.018-.302-.03-.103-.018-.11-.083-.09-.173.317-.06.64-.006.963-.012.33-.006.653-.006.983-.006.317 0 .633-.005.95-.005.323 0 .653-.018.99.017.041.227-.069.43-.069.65h-.261c-.02-.03-.035-.042-.035-.06-.007-.048-.007-.095-.02-.143-.02-.125-.048-.155-.186-.167-.495-.035-.99-.065-1.485-.018-.035.006-.062.018-.11.036a5.445 5.445 0 00-.035.947c.344.083.935.09 1.334.006.035-.09.076-.185.117-.304.076-.006.165-.006.255-.012.075.167.027.322.034.47.007.156 0 .31 0 .477-.048.012-.09.024-.13.03-.042.006-.09-.006-.138-.006a.218.218 0 01-.048-.072c-.028-.083-.048-.166-.069-.244-.296-.053-.9-.065-1.313-.023-.076.172-.035.357-.035.541a2.9 2.9 0 00.028.548c.048.024.075.048.103.048.33.03 1.306 0 1.691-.048.083-.077.097-.19.138-.291.062-.15.062-.15.33-.126.041.233-.075.459-.055.697-.09.012-.165.03-.24.036-.214.006-.427.006-.64.006-.846 0-1.692 0-2.538-.006-.11.012-.192 0-.31-.006zm-.459-2.773l-.099.574c-.077.058-.154.052-.243 0-.005-.04-.022-.086-.016-.126.011-.172-.083-.264-.226-.31a1.744 1.744 0 00-1.042-.04.629.629 0 00-.231.132c-.215.19-.171.493.088.614a.806.806 0 00.237.063c.287.04.573.086.86.115.17.017.336.058.496.126.523.207.507.787.259 1.091a1.238 1.238 0 01-.458.345 1.817 1.817 0 01-.705.184c-.386.023-.777.034-1.163-.04-.17-.03-.33-.093-.507-.15l.083-.706c.077-.006.143-.006.204-.012.022.03.033.04.038.058a.098.098 0 01.006.057c-.028.259.126.373.325.454.303.12.612.15.931.115.144-.018.281-.075.408-.15a.514.514 0 00.143-.126c.171-.207.105-.511-.137-.609a2.683 2.683 0 00-.524-.126c-.198-.034-.397-.034-.59-.069a1.949 1.949 0 01-.44-.126c-.447-.19-.563-.706-.249-1.085.133-.161.298-.276.49-.333.243-.075.491-.127.745-.132.391-.012.777.011 1.152.114a.59.59 0 01.127.052c.016.012.022.035.038.046zm-24.997-.018l-.105.587c-.088.04-.16.046-.242-.011-.006-.035-.017-.07-.017-.11.011-.196-.1-.288-.265-.34a2.022 2.022 0 00-.612-.086c-.1 0-.199.017-.298.034a.629.629 0 00-.337.167c-.198.19-.16.484.089.605.082.04.17.064.259.075.287.046.574.075.86.121.16.029.32.058.475.115.53.196.524.772.282 1.083a1.253 1.253 0 01-.453.352c-.232.115-.48.178-.734.196-.397.023-.794.028-1.186-.047a2.457 2.457 0 01-.469-.15c.028-.23.055-.454.077-.679.072-.052.15-.04.22-.011.012.022.029.04.029.051-.023.288.132.42.37.507.286.104.579.127.882.104a.976.976 0 00.43-.156.56.56 0 00.122-.11c.182-.218.116-.529-.144-.621-.17-.064-.347-.092-.524-.121-.199-.035-.397-.035-.59-.07a2.292 2.292 0 01-.442-.126c-.436-.19-.546-.691-.248-1.072a1.03 1.03 0 01.54-.357 3.49 3.49 0 011.69-.046c.099.023.192.052.286.08.017-.005.028.012.055.035zm-10-11.051c.018.042.024.071.042.095 1.65 2.5 3.306 5 4.962 7.5a.374.374 0 01.043.06c.37-.013.716-.025 1.061-.03.947-.019 1.893-.03 2.833-.048.097 0 .2.023.291-.054.019-.25.025-.501-.012-.764-.115-.012-.218-.03-.327-.036-.334-.03-.6-.172-.825-.417a6.34 6.34 0 01-.589-.74c-1.243-1.831-2.48-3.663-3.724-5.495-.06-.09-.14-.167-.158-.292.206-.095.413-.185.619-.28a6.76 6.76 0 001.389-.853c1.274-1.027 1.577-2.667 1.14-3.962-.273-.811-.819-1.396-1.638-1.718a4.087 4.087 0 00-.837-.209 8.945 8.945 0 00-1.546-.101c-.68.006-1.353.024-2.033.03-1.37.011-2.747.03-4.118.03-.668 0-1.335-.037-2.002-.054-.097 0-.2-.03-.285.03-.043.31-.037.674.018.877.036.005.073.017.11.017.302.042.612.072.915.126.437.083.497.179.546.543.055.357.091.715.11 1.08.03.554.048 1.115.048 1.67.012 1.456.03 2.917.024 4.373a165.028 165.028 0 01-.073 3.872c-.006.322-.054.644-.097.96-.024.21-.152.335-.37.358-.255.03-.51.072-.764.108-.158.024-.316.036-.473.053-.049.162-.03.305-.025.454 0 .155-.036.31.043.46.267-.013.522-.025.782-.03l.747-.019c.26-.005.515-.017.776-.023.249-.006.497-.006.746-.006h.776c.25 0 .498 0 .747.006.26.006.515.018.776.023.249.007.497.018.746.013.255-.007.51.053.759.017.048-.316.042-.686-.013-.889-.054-.006-.115-.012-.176-.023-.333-.036-.673-.06-1.006-.114-.431-.071-.516-.238-.553-.579-.018-.166-.042-.328-.048-.495a113 113 0 01-.127-2.553 39.473 39.473 0 01-.013-3.055c.043-1.223.055-2.446.085-3.669.018-.674.03-1.348.049-2.022 0-.096-.024-.197.048-.287.14-.017.291-.053.437-.06.316-.017.637-.017.953-.023.37-.012.733.042 1.091.137.898.239 1.499.788 1.741 1.677a3.55 3.55 0 01.049 1.598c-.134.728-.51 1.301-1.116 1.736-.619.442-1.286.698-2.057.621-.042-.006-.078-.006-.121-.006h-.237c-.042.161-.097.274-.14.382zM52.178 60.4c.733.035 1.452.053 2.16.163.86.133 1.691.341 2.466.724 1.858.915 3.045 2.329 3.5 4.27.197.834.228 1.674.191 2.52a8.152 8.152 0 01-.43 2.293c-.677 1.93-1.987 3.343-3.931 4.224a8.576 8.576 0 01-1.655.538c-.8.174-1.605.261-2.423.267-.819.011-1.63-.04-2.436-.18-1.206-.203-2.332-.59-3.322-1.286-1.237-.875-2.036-2.033-2.455-3.435-.264-.886-.35-1.79-.332-2.706a8.226 8.226 0 01.326-2.253c.548-1.825 1.686-3.21 3.451-4.136a7.743 7.743 0 011.68-.626c.78-.197 1.58-.301 2.386-.336.283-.006.56-.029.825-.04zm4.934 7.636a10.207 10.207 0 00-.258-2.503 6.393 6.393 0 00-.905-2.132 3.89 3.89 0 00-.965-1.014c-.696-.492-1.495-.73-2.356-.799a8.555 8.555 0 00-1.39-.006 4.68 4.68 0 00-1.237.25c-1.04.358-1.809 1.013-2.32 1.94-.282.51-.454 1.054-.577 1.61a10.047 10.047 0 00-.203 2.01c-.013.98.061 1.959.326 2.909.24.851.609 1.65 1.175 2.358a3.91 3.91 0 001.47 1.158c.584.261 1.205.377 1.839.423.504.035 1.009.035 1.507-.058a4.6 4.6 0 00.954-.266 4.2 4.2 0 001.943-1.61c.419-.632.652-1.322.8-2.046.154-.724.21-1.465.197-2.224zm7.209-4.342c-.012.03-.03.052-.03.076-.006.064-.006.134-.006.199-.006 2.4-.006 4.799.042 7.198.013.585.037 1.17.06 1.755.007.17.03.346.055.516.042.269.132.368.403.415.259.047.524.076.788.111.175.024.35.035.524.053.06.21.066.58.018.86-.006.006-.012.018-.024.023a.047.047 0 01-.03.012c-1.065-.04-2.13-.105-3.196-.064-.62.023-1.24.04-1.86.064-.005 0-.017-.006-.042-.023a4.367 4.367 0 01-.006-.843c.115-.047.223-.03.331-.04.097-.013.199-.018.295-.03l.674-.07c.271-.03.44-.176.482-.433.048-.275.084-.55.096-.826.03-.72.048-1.44.06-2.159.042-1.92.018-3.839.012-5.758 0-.603 0-1.212-.006-1.815-.006-.356-.036-.708-.054-1.065 0-.04-.006-.076-.012-.117-.036-.228-.156-.397-.403-.438-.253-.047-.506-.082-.758-.117-.223-.03-.452-.053-.669-.077-.066-.187-.072-.503-.03-.866.109-.052.223-.023.337-.023.62.017 1.246.047 1.866.053.56.005 1.126-.012 1.685-.024.217-.006.434-.03.656-.04.054.058.103.116.15.175a242.457 242.457 0 006.398 7.596c.776.883 1.577 1.744 2.365 2.616.06.07.12.146.205.187.066-.041.048-.094.048-.135 0-2.042-.006-4.09-.012-6.133a50.442 50.442 0 00-.054-1.902 8.728 8.728 0 00-.108-.971c-.049-.287-.15-.369-.458-.398a75.704 75.704 0 00-1.15-.111l-.15-.018c-.078-.14-.036-.286-.042-.427-.006-.14 0-.287 0-.445.084-.005.15-.023.217-.017 1.372.093 2.744.052 4.116.035.169 0 .337-.018.5-.03.114-.005.234 0 .349 0 .054.194.066.562.012.867-.235.046-.482.058-.722.082a7.976 7.976 0 00-.53.064c-.307.047-.47.205-.535.497a.81.81 0 00-.019.17c-.018.375-.048.75-.048 1.124-.024 2.487-.036 4.974-.06 7.455-.012 1.44.012 2.88.06 4.319 0 .076.006.152 0 .228-.012.111-.114.182-.228.17-.193-.023-.392-.059-.584-.088-.35-.058-.698-.117-1.053-.17-.103-.011-.157-.076-.217-.134-.259-.275-.512-.556-.77-.837a329.89 329.89 0 01-5.754-6.502 107.901 107.901 0 01-3.003-3.599c-.042-.058-.078-.146-.18-.175z" fill="#fff"/><path d="M6.304 74.467c.024.32.024.6 0 .892-.119.047-.238.024-.351.018-1.113-.072-2.226-.054-3.34-.042-.244 0-.488.024-.732.036-.143.006-.291.03-.434.006-.054-.214-.06-.595-.006-.886.16-.042.333-.054.506-.072.143-.018.292-.041.434-.06a.556.556 0 00.417-.285c.143-.256.292-.511.41-.773.418-.934.84-1.868 1.227-2.813 1.334-3.248 2.655-6.495 3.982-9.742.048-.114.078-.244.173-.346h1.476c.096.09.125.209.167.316l2.679 6.358c.744 1.76 1.482 3.52 2.232 5.281.197.464.423.922.637 1.38.036.078.09.155.125.232.107.238.304.351.542.393.154.03.31.047.464.065l.429.054c.077.208.083.636.017.892-.005.006-.011.018-.023.018-.03.005-.06.011-.09.011-2.172-.1-4.351-.07-6.524-.011-.006 0-.018-.012-.041-.03a4.703 4.703 0 010-.868c.25-.036.494-.048.738-.066.184-.012.369-.03.553-.06.28-.047.381-.19.334-.475a1.808 1.808 0 00-.096-.34c-.327-.856-.654-1.712-.982-2.563-.018-.041-.047-.083-.071-.119-.447-.065-5.161-.06-5.518.006-.018.036-.048.078-.066.12-.321.814-.649 1.629-.869 2.48-.03.1-.054.208-.071.315-.042.261.06.452.315.505.256.054.518.084.78.113.184.024.369.036.577.06zm4.167-4.848c.054-.006.107-.023.185-.047-.75-1.808-1.494-3.599-2.256-5.413-.12.101-.137.197-.173.286a361.2 361.2 0 00-1.066 2.599l-.946 2.302c-.03.077-.09.148-.054.25.179.041.352.053.53.053" fill="#B41517"/><path d="M41.96 60.22a2.51 2.51 0 010 .89c-.232.023-.476.047-.714.077-.196.024-.386.048-.583.066-.267.03-.434.172-.475.435-.036.22-.078.441-.084.668-.03.8-.06 1.605-.065 2.404-.006 1.88-.006 3.759.006 5.632.006.823.024 1.64.053 2.464.012.292.066.584.102.87.035.233.178.365.404.4.262.042.517.072.779.102.19.024.387.036.57.053.048.263.048.663 0 .89a.08.08 0 01-.023.017.045.045 0 01-.024.012c-2.277-.131-4.561-.065-6.839-.012-.006 0-.018-.012-.041-.03a4.592 4.592 0 01-.006-.859c.22-.041.434-.047.648-.071.267-.03.541-.078.809-.12.16-.023.261-.125.309-.274.036-.113.065-.227.083-.34.024-.233.048-.465.054-.704.071-2.66.083-5.321.023-7.982-.011-.555-.005-1.116-.017-1.67a48.45 48.45 0 00-.054-1.319c-.018-.388-.149-.53-.523-.573-.375-.047-.755-.077-1.136-.119a3.356 3.356 0 01-.19-.024c-.048-.292-.012-.584-.024-.87.142-.048.261-.03.374-.024.75.017 1.5.047 2.254.053 1.041.006 2.088-.006 3.129-.012.285 0 .565-.024.844-.036.13-.005.244-.03.357.006zM38.822 4l-20.09 10.485s-2.66 26.488 20.082 36.086c22.742-9.598 20.091-36.086 20.091-36.086L38.822 4zM56.27 28.698c-2.76 9.823-8.627 16.766-17.456 20.635-8.828-3.869-14.696-10.812-17.455-20.635-1.744-6.203-1.636-11.707-1.543-13.489l18.99-9.916 18.99 9.916c.11 1.782.218 7.286-1.526 13.49z" fill="#fff"/><path d="M38.822 6.795l-17.704 9.24c-.07 1.883-.077 6.896 1.48 12.438 2.582 9.184 8.031 15.707 16.216 19.381C47 44.18 52.456 37.657 55.03 28.473c1.558-5.542 1.55-10.555 1.48-12.439l-17.688-9.24zm15.79 21.553c-2.52 8.99-7.837 15.389-15.79 19.016-7.96-3.627-13.278-10.026-15.797-19.016-1.473-5.246-1.534-10.002-1.473-12.041l17.27-9.014 17.27 9.014c.054 2.039-.008 6.803-1.48 12.041zm-12.55 26.815a.115.115 0 01-.116.054C34.202 54.3 28.56 50.4 25.188 47.286c-3.659-3.37-5.503-6.578-5.527-6.609-.03-.054-.015-.132.047-.163.062-.032.132-.016.163.046.015.032 1.852 3.207 5.487 6.554 3.349 3.09 8.945 6.959 16.619 7.862a.12.12 0 01.108.132.326.326 0 01-.023.055z" fill="#fff"/><path d="M20.383 39.681c.48 1.035.38 2.226.28 2.273-.102.047-1.07-.646-1.551-1.681-.48-1.036-.38-2.227-.28-2.273.102-.047 1.07.646 1.551 1.681zm1.115 4.141c1.287.49 2.202 1.611 2.155 1.735-.046.133-1.473.35-2.76-.14-1.286-.49-2.2-1.61-2.154-1.735.054-.125 1.473-.35 2.76.14zm4.604 1.035c.644 1.549.434 3.285.28 3.355-.156.062-1.535-1.004-2.186-2.553-.644-1.55-.434-3.285-.28-3.355.156-.062 1.543 1.004 2.186 2.553zm6.455 7.413c.588-.281.363-1.981-.5-3.797-.864-1.815-2.04-3.058-2.627-2.776-.587.281-.363 1.981.5 3.796.864 1.816 2.04 3.059 2.627 2.777zm-6.958-3.762c1.899.249 3.495 1.456 3.472 1.65-.023.195-1.876.957-3.775.708s-3.495-1.455-3.472-1.65c.023-.194 1.868-.957 3.775-.708zm5.592 6.76c2.275-.263 4.051-1.075 3.966-1.813-.084-.74-1.997-1.125-4.272-.862-2.276.263-4.051 1.075-3.967 1.813.085.74 1.998 1.125 4.273.862zm4.484-.105c.023.039.07.062.116.054 7.744-.918 13.387-4.818 16.758-7.931 3.659-3.37 5.504-6.578 5.527-6.609.03-.054.015-.132-.047-.163-.062-.032-.131-.016-.162.046-.016.032-1.853 3.207-5.488 6.554-3.349 3.09-8.945 6.959-16.619 7.862a.12.12 0 00-.108.132.436.436 0 00.023.055z" fill="#fff"/><path d="M57.355 39.681c-.48 1.035-.38 2.226-.279 2.273.1.047 1.07-.646 1.55-1.681.48-1.036.38-2.227.28-2.273-.102-.047-1.07.646-1.55 1.681zm-1.116 4.141c-1.287.49-2.201 1.611-2.155 1.735.046.133 1.473.35 2.76-.14 1.286-.49 2.2-1.61 2.154-1.735-.054-.125-1.472-.35-2.76.14zm-4.604 1.035c-.644 1.549-.434 3.285-.28 3.355.156.062 1.535-1.004 2.187-2.553.643-1.55.433-3.285.279-3.355-.155-.062-1.543 1.004-2.186 2.553zm-3.829 4.634c.864-1.815 1.088-3.515.5-3.797-.586-.282-1.762.962-2.626 2.777-.864 1.815-1.088 3.515-.5 3.797.586.282 1.762-.962 2.626-2.777zm4.34-.983c-1.899.249-3.495 1.456-3.472 1.65.023.195 1.876.957 3.775.708 1.898-.249 3.495-1.455 3.472-1.65-.023-.194-1.876-.957-3.775-.708zm-1.326 5.905c.084-.739-1.692-1.55-3.967-1.814-2.275-.262-4.188.123-4.273.862-.084.739 1.691 1.55 3.967 1.814 2.275.263 4.188-.123 4.272-.862zm-4.332-21.068c.03 0 .062-.015.085-.008.24.055.489.063.729.024.527-.078.953-.311 1.201-.81.148-.288.14-.591.008-.887-.116-.265-.302-.46-.527-.63-.047-.04-.109-.063-.163-.086-.03-.016-.077.031-.077.062v.047c.131.397.046.763-.194 1.097a.908.908 0 01-.961.35 1.115 1.115 0 01-.613-.38.982.982 0 01-.155-.943c.109-.334.28-.638.458-.934.24-.389.364-.817.418-1.268.054-.444 0-.888-.062-1.324-.03-.202-.093-.397-.132-.599a.298.298 0 01-.007-.117c.007-.03.038-.054.07-.039.03.008.054.032.077.047.14.117.279.233.419.343.302.233.418.544.426.91 0 .164-.016.335-.078.49-.07.195-.147.382-.224.577-.008.03-.032.054-.032.085 0 .016.016.047.031.063.008.007.032.007.047 0 .031-.016.054-.032.078-.047.24-.203.496-.39.728-.607.178-.164.341-.358.403-.6.023-.1.047-.202.039-.303a2.104 2.104 0 00-.504-1.277c-.1-.117-.201-.241-.318-.35-.271-.265-.441-.592-.566-.95-.023-.07-.046-.132-.061-.202-.086-.32-.117-.63 0-.957.162-.452.193-.927.17-1.401a2.988 2.988 0 00-.868-1.97c-.109-.109-.24-.202-.364-.296l-.512-.373c-.023-.016-.047-.04-.07-.063-.038-.054-.008-.14.054-.147.055-.008.109 0 .163.007.178.047.341.125.48.242.117.093.226.194.342.296a.28.28 0 00.077.054c.031.015.086-.016.086-.055 0-.015.007-.03 0-.046-.117-.335-.194-.677-.365-.997-.31-.599-.76-1.035-1.38-1.3a4.15 4.15 0 00-.906-.256c-.217-.04-.442-.016-.66-.024-.053 0-.108.016-.146-.046 0-.07.062-.11.108-.14.217-.172.295-.397.295-.67 0-.202-.047-.389-.101-.584-.008-.015-.031-.03-.054-.062-.024.031-.047.047-.055.07a.442.442 0 00-.023.14c0 .195-.108.327-.248.436-.093.078-.194.11-.31.07-.14-.047-.287-.085-.419-.148a4.264 4.264 0 01-.767-.459c-.45-.327-.899-.661-1.356-.98a1.928 1.928 0 00-1.062-.335h-.21c-.325-.024-.643.046-.96.1-.156.024-.31.055-.466.094a.47.47 0 01-.34-.046c-.171-.094-.35-.18-.528-.273a3.75 3.75 0 01-.302-.179 1.79 1.79 0 01-.682-.996 2.718 2.718 0 00-.078-.273c-.015-.046-.03-.093-.054-.132-.07-.109-.17-.117-.256-.023a.667.667 0 00-.1.155 2.15 2.15 0 00-.093.32c-.063.295-.132.583-.171.887-.047.389-.085.786-.023 1.183.046.335.232.553.558.662.178.062.349.077.535.085.062 0 .124 0 .186.016.046.008.085.03.093.085.007.04-.031.078-.093.086a1.12 1.12 0 01-.163.008c-.132 0-.271 0-.403-.016-.155-.015-.256.047-.326.187-.03.07-.077.132-.116.21-.14.288-.364.49-.612.677-.101.078-.21.148-.31.218a2.881 2.881 0 00-.512.46c-.155.17-.248.389-.325.599-.055.132-.055.288-.055.428a.478.478 0 01-.147.335c-.372.404-.744.817-1.124 1.214-.302.32-.612.638-.922.95a3.176 3.176 0 01-.605.459 1.215 1.215 0 00-.349.311.39.39 0 00-.077.241c.008.195.015.397.015.592 0 .132.008.272 0 .405-.008.226-.008.459-.023.685-.008.163.062.264.201.342.194.11.38.218.574.327.264.156.512.335.72.568.032.04.07.063.102.101.162.203.38.242.62.18.132-.032.263-.055.387-.094.179-.054.357-.031.535-.008.109.016.217.032.326.032.294.015.52-.117.674-.366.07-.11.132-.234.178-.358.086-.242.179-.475.17-.732 0-.109.063-.195.14-.265.055-.046.117-.085.17-.124.203-.125.404-.25.598-.374a.331.331 0 01.294-.047c.17.047.35.086.527.125a.58.58 0 00.163.015c.264 0 .52.008.775-.007a2.76 2.76 0 00.868-.195c.07-.031.14-.062.217-.031-.007.086-.07.109-.116.148a.35.35 0 00-.132.335c.024.163.031.327.062.49.062.32.008.615-.155.887-.116.195-.224.397-.364.576-.163.203-.357.35-.558.506-.9.716-1.837 1.386-2.767 2.063-.38.28-.76.568-1.132.848-.682.522-1.178 1.2-1.573 1.962-.28.537-.489 1.097-.682 1.666a23.971 23.971 0 00-.55 1.938c-.202.794-.35 1.603-.505 2.413l-.093.49c-.007.031.008.086.031.101.024.016.078.016.109 0 .054-.03.1-.07.155-.109.488-.327.992-.646 1.496-.95.535-.319 1.07-.63 1.628-.918.279-.148.558-.296.837-.428.356-.171.713-.327 1.077-.483.233-.1.465-.202.698-.28.248-.085.504-.179.76-.249.255-.078.519-.132.775-.187.496-.1.992-.17 1.495-.148.21.008.427 0 .636.008a5.12 5.12 0 011.186.195c.372.101.736.218 1.116.296.411.085.822.14 1.24.116.45-.023.892-.1 1.31-.272a2.15 2.15 0 00.372-.202.399.399 0 01.31-.063c.233.055.465.086.698.125a4.66 4.66 0 001.318.031 2.495 2.495 0 001.364-.545c.271-.226.442-.514.55-.84.062-.172.07-.358.078-.538 0-.03 0-.062-.016-.093-.008-.016-.03-.039-.054-.039-.016 0-.054.008-.062.023a.924.924 0 00-.062.125 2.536 2.536 0 01-.45.716c-.178.203-.387.32-.666.265-.45.039-.806-.18-1.155-.405-.031.008-.031 0-.062-.117z" fill="#fff"/></svg>